<svg viewBox="0 0 48 48" fill="none" xmlns="http://www.w3.org/2000/svg"><path d="M13.7397 28.2238c.6494 0 1.1417-.1728 1.4769-.5185.3457-.3457.5185-.7646.5185-1.2569 0-.5971-.178-1.037-.5342-1.3198-.3561-.2828-.9165-.4242-1.6811-.4242h-1.1313v-1.0842l1.9011-2.5924.4444-.5656h-3.4296v-1.7283h6.0019v1.1155l-2.2154 2.9695-.3268.4085h.2954c.3666.0315.7123.1153 1.037.2514.3352.1362.6232.3352.8641.5971.2514.2514.4504.5656.5971.9427.1466.3771.22.8118.22 1.3041 0 .618-.1048 1.1522-.3143 1.6026-.199.4504-.4818.8274-.8484 1.1312-.3562.3038-.7751.529-1.257.6756-.4818.1467-1.0003.22-1.5554.22-.4609 0-.9375-.0419-1.4298-.1257-.4923-.0838-.8903-.2043-1.1941-.3614l.5499-1.6969c.2724.1362.5709.2462.8956.33.3352.0838.707.1257 1.1155.1257zM26.2523 26.3227c0 .5132-.089.9898-.2671 1.4297-.1676.44-.4085.8223-.7227 1.147-.3143.3247-.6966.5813-1.147.7699-.4399.1885-.927.2828-1.4612.2828-.5447 0-1.0474-.0838-1.5083-.2514-.4504-.1781-.8432-.4399-1.1784-.7856-.3352-.3457-.597-.7803-.7856-1.3041-.1885-.5237-.2828-1.1312-.2828-1.8225 0-1.037.1466-1.9745.4399-2.8124.3038-.838.7071-1.566 1.2098-2.184.5133-.6284 1.1051-1.1312 1.7755-1.5083.6808-.3876 1.3983-.6442 2.1525-.7699l.4556 1.6183c-.5237.0838-1.0055.2462-1.4455.4871-.4399.2409-.8327.529-1.1783.8641-.3352.3352-.6233.7123-.8642 1.1313-.2304.4085-.3928.8327-.4871 1.2726.2095-.2618.4819-.4818.8171-.6599.3351-.1885.7541-.2828 1.2569-.2828.4713 0 .906.0734 1.3041.22.398.1466.7384.3666 1.0212.6599.2828.2828.5028.6337.6599 1.0527.1571.419.2357.9008.2357 1.4455zm-1.9797.1099c0-1.1731-.5761-1.7597-1.7283-1.7597-.419 0-.7751.0943-1.0684.2828-.2828.1886-.4818.4085-.597.6599-.021.1153-.0314.2148-.0314.2986v.2513c0 .2514.0366.5028.1099.7542.0734.2409.1781.4609.3143.6599.1466.1885.3299.3457.5499.4714.22.1152.4818.1728.7856.1728.4923 0 .8903-.1676 1.1941-.5028.3142-.3352.4713-.7646.4713-1.2884zM26.8397 24.2173c0-1.9273.3299-3.3571.9898-4.2893.6599-.9427 1.6078-1.4141 2.8438-1.4141 1.3198 0 2.2887.4661 2.9067 1.3984.618.9217.927 2.3567.927 4.305 0 1.9378-.3352 3.378-1.0056 4.3207-.6599.9427-1.6078 1.4141-2.8438 1.4141-1.3093 0-2.273-.4923-2.891-1.4769-.6179-.9951-.9269-2.4144-.9269-4.2579zm2.0425 0c0 1.2779.1362 2.2677.4085 2.9695.2828.6913.7437 1.037 1.3826 1.037.618 0 1.0684-.3195 1.3512-.9584.2933-.639.44-1.655.44-3.0481 0-1.2674-.1362-2.2468-.4085-2.9381-.2724-.6913-.7385-1.037-1.3984-1.037-.6285 0-1.0841.3247-1.3669.9741-.2723.6495-.4085 1.6498-.4085 3.001zM35.2829 21.1221c0-.3876.0681-.7385.2042-1.0527.1362-.3247.3195-.6023.55-.8327.2409-.2305.5132-.4085.817-.5342.3142-.1257.6494-.1886 1.0055-.1886.3561 0 .6913.0576 1.0056.1728.3247.1153.6075.2881.8484.5185.2409.22.4295.4923.5656.817.1362.3248.2043.6914.2043 1.0999 0 .4085-.0681.7751-.2043 1.0998-.1361.3142-.3247.5813-.5656.8013-.2409.22-.5237.3875-.8484.5028-.3143.1152-.6495.1728-1.0056.1728-.3561 0-.6913-.0576-1.0055-.1728-.3038-.1153-.5761-.2828-.817-.5028-.2305-.22-.4138-.4871-.55-.8013-.1361-.3247-.2042-.6913-.2042-1.0998zm1.5712 0c0 .3352.0995.6023.2985.8013.199.1885.4399.2828.7227.2828s.529-.0943.7385-.2828c.2095-.199.3142-.4661.3142-.8013s-.1047-.6023-.3142-.8013c-.2095-.2095-.4557-.3143-.7385-.3143-.2828 0-.5237.1048-.7227.3143-.199.199-.2985.4661-.2985.8013z" fill="#333"/><path fill-rule="evenodd" clip-rule="evenodd" d="M46.2612 24.9729l-1.9981-.0858a20.71553 20.71553 0 000-1.7741l1.9981-.0859c.0139.3226.0209.647.0209.9729 0 .326-.007.6504-.0209.9729zm-.1675-3.8831l-1.9832.2587a20.15407 20.15407 0 00-.3052-1.7421l1.953-.4312c.1388.6287.251 1.2673.3354 1.9146zm-.8373-3.7921l-1.9076.6009c-.1779-.565-.38-1.1193-.6049-1.6617l1.8474-.7661c.2473.5963.4694 1.2057.6651 1.8269zm-1.4879-3.5885l-1.7732.925a20.29205 20.29205 0 00-.8861-1.5315l1.6858-1.0761c.348.5452.673 1.1065.9735 1.6826zm-2.0899-3.2741l-1.5858 1.2187c-.36-.4685-.74-.9208-1.1387-1.3557l1.4742-1.35158c.4378.47752.855.97418 1.2503 1.48858zm-2.625-2.86326A22.39585 22.39585 0 0037.565 6.3215l-1.2187 1.58584c.4685.35997.9208.73996 1.3557 1.13869l1.3516-1.47419zm-3.0801-2.36671l-1.0761 1.68578a20.2877 20.2877 0 00-1.5315-.88608l.925-1.77325a22.26676 22.26676 0 011.6826.97355zm-3.4442-1.79634l-.7661 1.84745a20.0999 20.0999 0 00-1.6617-.60496l.6009-1.9076a22.10264 22.10264 0 011.8269.66511zm-3.7045-1.16701l-.4311 1.95299a20.2002 20.2002 0 00-1.7421-.30522l.2587-1.9832a22.20335 22.20335 0 011.9145.33543zm-3.8519-.5029l-.0858 1.99815A20.66657 20.66657 0 0024 3.71802c-.2973 0-.593.00638-.887.01901l-.0859-1.99815c.3226-.01386.647-.02086.9729-.02086.326 0 .6504.007.9729.02086zm-3.8831.16747l.2587 1.9832a20.2002 20.2002 0 00-1.7421.30522l-.4312-1.95298a22.20855 22.20855 0 011.9146-.33544zm-3.7921.83733l.6009 1.9076a20.0999 20.0999 0 00-1.6617.60496l-.7661-1.84745a22.10264 22.10264 0 011.8269-.66511zm-3.5885 1.4879l.925 1.77325a20.26799 20.26799 0 00-1.5315.88608l-1.0761-1.68578a22.26676 22.26676 0 011.6826-.97355zM10.4351 6.3215l1.2187 1.58584a20.37793 20.37793 0 00-1.3557 1.13869l-1.35158-1.4742A22.40351 22.40351 0 0110.4351 6.3215zM7.57184 8.94652l1.47419 1.35158a20.38097 20.38097 0 00-1.13869 1.3557L6.3215 10.4351a22.40061 22.40061 0 011.25034-1.48858zM5.20513 12.0266l1.68578 1.0761a20.26799 20.26799 0 00-.88608 1.5315l-1.77325-.925a22.26676 22.26676 0 01.97355-1.6826zm-1.79634 3.4442l1.84745.7661a20.0999 20.0999 0 00-.60496 1.6617l-1.9076-.6009a22.10264 22.10264 0 01.66511-1.8269zm-1.16701 3.7044l1.95299.4312a20.2002 20.2002 0 00-.30522 1.7421l-1.9832-.2587a22.21239 22.21239 0 01.33543-1.9146zm-.5029 3.8519c-.01386.3226-.02086.647-.02086.9729 0 .326.007.6504.02086.9729l1.99815-.0858A20.66657 20.66657 0 013.71802 24c0-.2973.00638-.593.01901-.887l-1.99815-.0859zm.16747 3.8832l1.9832-.2587a20.2002 20.2002 0 00.30522 1.7421l-1.95298.4312a22.20855 22.20855 0 01-.33544-1.9146zm.83733 3.7921l1.9076-.6009a20.0999 20.0999 0 00.60496 1.6617l-1.84745.7661a22.10264 22.10264 0 01-.66511-1.8269zm1.4879 3.5885l1.77325-.925a20.2877 20.2877 0 00.88608 1.5315l-1.68578 1.0761a22.26676 22.26676 0 01-.97355-1.6826zM6.3215 37.565l1.58584-1.2187c.35996.4685.73996.9208 1.13869 1.3557l-1.47419 1.3516A22.42145 22.42145 0 016.3215 37.565zm2.62502 2.8633l1.35158-1.4742c.4349.3987.8872.7787 1.3557 1.1387l-1.2187 1.5858a22.40002 22.40002 0 01-1.48858-1.2503zm3.08008 2.3667l1.0761-1.6858c.4963.3168 1.0073.6126 1.5315.8861l-.925 1.7732a22.26962 22.26962 0 01-1.6826-.9735zm3.4442 1.7963l.7661-1.8474c.5424.2249 1.0967.427 1.6617.6049l-.6009 1.9076a22.11349 22.11349 0 01-1.8269-.6651zm3.7044 1.167l.4312-1.953c.5718.1263 1.1529.2284 1.7421.3052l-.2587 1.9832a22.18538 22.18538 0 01-1.9146-.3354zm3.8519.5029l.0859-1.9981a20.71436 20.71436 0 001.7741 0l.0858 1.9981c-.3225.0139-.6469.0209-.9729.0209-.3259 0-.6503-.007-.9729-.0209zm3.8832-.1675l-.2587-1.9832a20.15407 20.15407 0 001.7421-.3052l.4312 1.953c-.6287.1388-1.2673.251-1.9146.3354zm3.7921-.8373l-.6009-1.9076c.565-.1779 1.1193-.38 1.6617-.6049l.7661 1.8474c-.5963.2473-1.2057.4694-1.8269.6651zm3.5885-1.4879l-.925-1.7732a20.3118 20.3118 0 001.5315-.8861l1.0761 1.6858c-.5452.348-1.1065.673-1.6826.9735zm3.2741-2.0899l-1.2187-1.5858c.4685-.36.9208-.74 1.3557-1.1387l1.3516 1.4742c-.4776.4378-.9742.855-1.4886 1.2503zm2.8633-2.625l-1.4742-1.3516c.3987-.4349.7787-.8872 1.1387-1.3557l1.5858 1.2187a22.39526 22.39526 0 01-1.2503 1.4886zm2.3667-3.0801c.348-.5452.673-1.1065.9735-1.6826l-1.7732-.925a20.3118 20.3118 0 01-.8861 1.5315l1.6858 1.0761zm1.7963-3.4442l-1.8474-.7661c.2249-.5424.427-1.0967.6049-1.6617l1.9076.6009a22.11349 22.11349 0 01-.6651 1.8269zm1.167-3.7045l-1.953-.4311c.1263-.5718.2284-1.1529.3052-1.7421l1.9832.2587a22.17636 22.17636 0 01-.3354 1.9145z" fill="#333"/></svg>