<svg viewBox="0 0 48 48" fill="none" xmlns="http://www.w3.org/2000/svg"><circle cx="24" cy="24" r="18.5" stroke="#fff"/><path d="M32.477 24c0 6.6061-.9741 12.5759-2.5411 16.8851-.7839 2.1557-1.7114 3.8826-2.7287 5.0659-1.018 1.1841-2.1028 1.799-3.2075 1.799-1.1047 0-2.1894-.6149-3.2074-1.799-1.0174-1.1833-1.9449-2.9102-2.7287-5.0659-1.567-4.3092-2.5411-10.279-2.5411-16.8851 0-6.6061.9741-12.5759 2.5411-16.88513.7838-2.15566 1.7113-3.88255 2.7287-5.06585C21.8103.86491 22.895.25 23.9997.25c1.1047 0 2.1895.6149 3.2075 1.79902 1.0173 1.1833 1.9448 2.91019 2.7287 5.06585C31.5029 11.4241 32.477 17.3939 32.477 24z" stroke="#fff" stroke-opacity=".5" stroke-width=".5"/><path d="M24 15.5227c6.6061 0 12.5759.9741 16.8851 2.5412 2.1557.7838 3.8826 1.7113 5.0659 2.7286C47.1351 21.8106 47.75 22.8953 47.75 24c0 1.1047-.6149 2.1895-1.799 3.2075-1.1833 1.0173-2.9102 1.9448-5.0659 2.7287-4.3092 1.567-10.279 2.5411-16.8851 2.5411-6.6061 0-12.5759-.9741-16.88513-2.5411-2.15566-.7839-3.88255-1.7114-5.06585-2.7287C.8649 26.1895.25 25.1047.25 24c0-1.1047.6149-2.1894 1.79902-3.2075 1.1833-1.0173 2.91019-1.9448 5.06585-2.7286C11.4241 16.4969 17.3939 15.5227 24 15.5227z" stroke="#fff" stroke-opacity=".5" stroke-width=".5"/><path d="M18.9219 23.6172c.4648.168.8183.4219 1.0605.7617.2422.3399.3633.7481.3633 1.2246 0 .5195-.1328.9688-.3984 1.3477-.2657.3789-.6309.6679-1.0957.8672-.461.1992-.9844.2988-1.5704.2988-.5039 0-.9804-.0899-1.4296-.2695-.4454-.1836-.8067-.461-1.084-.8321-.2774-.3711-.416-.8261-.416-1.3652h1.7695c0 .1953.0527.373.1582.5332.1055.1602.25.2852.4336.375.1836.0898.3887.1348.6152.1348.2578 0 .4805-.0469.668-.1407.1914-.0976.3359-.2304.4336-.3984.1015-.168.1523-.3613.1523-.5801 0-.8281-.4511-1.2422-1.3535-1.2422h-.914v-1.3769h.914c.3985 0 .7012-.1016.9082-.3047.2071-.2031.3106-.4824.3106-.8379 0-.3086-.0957-.5586-.2871-.75-.1875-.1953-.4649-.293-.8321-.293-.1953 0-.3769.0371-.5449.1114-.168.0742-.3027.1796-.4043.3164-.0977.1367-.1465.2949-.1465.4746h-1.7695c0-.461.125-.8672.375-1.2188.2539-.3554.5957-.6289 1.0254-.8203.4297-.1914.9023-.2871 1.4179-.2871.586 0 1.0997.0938 1.5411.2813.4414.1835.7832.4589 1.0254.8261.2461.3633.3691.8067.3691 1.3301 0 .3789-.1152.7324-.3457 1.0606-.2266.3281-.543.5859-.9492.7734zm6.0644-1.3477c.5157 0 .9551.1289 1.3184.3867.3633.2579.6367.6075.8203 1.0489.1875.4375.2812.9297.2812 1.4765 0 .5547-.121 1.0547-.3632 1.5-.2383.4454-.5782.7969-1.0196 1.0547-.4414.2539-.9472.3809-1.5175.3809-.6016 0-1.1329-.1406-1.5938-.4219-.457-.2812-.8125-.6797-1.0664-1.1953-.2539-.5156-.3809-1.1133-.3809-1.793v-.6797c0-.9296.1797-1.7461.5391-2.4492.3633-.707.877-1.2519 1.541-1.6347.6641-.3868 1.4336-.5801 2.3086-.5801h.2578v1.459h-.1054c-.7696 0-1.3926.1875-1.8692.5625-.4765.3711-.7637.8984-.8613 1.582.2109-.2188.4609-.3887.75-.5098.2891-.125.6094-.1875.9609-.1875zm-.5156 4.418c.2305 0 .4336-.0645.6094-.1934.1797-.1289.3183-.3066.416-.5332.0977-.2265.1465-.4824.1465-.7675 0-.2969-.0508-.5586-.1524-.7852-.0976-.2305-.2382-.4082-.4218-.5332s-.3985-.1875-.6446-.1875c-.2734 0-.5156.0703-.7265.2109-.2071.1368-.3614.3106-.4629.5215v.5332c0 .5703.1094 1.002.3281 1.2949.2187.293.5215.4395.9082.4395zm9.6914-2.2031c0 .8203-.1191 1.5019-.3574 2.0449-.2383.5391-.5742.9395-1.0078 1.2012-.4297.2578-.9395.3867-1.5293.3867-.5899 0-1.1035-.1289-1.541-.3867-.4336-.2617-.7715-.6621-1.0137-1.2012-.2422-.543-.3633-1.2246-.3633-2.0449v-1.5117c0-.8204.1192-1.5.3574-2.0391.2422-.5391.5801-.9375 1.0137-1.1953.4336-.2578.9453-.3867 1.5352-.3867.5898 0 1.1015.1289 1.5351.3867.4336.2578.7695.6562 1.0078 1.1953.2422.5391.3633 1.2187.3633 2.0391v1.5117zm-1.7695-1.752c0-.6992-.0957-1.1992-.2871-1.5-.1914-.3047-.4746-.457-.8496-.457s-.6582.1523-.8497.457c-.1914.3008-.2871.8008-.2871 1.5v1.9864c0 .707.0957 1.2128.2871 1.5175.1954.3047.4825.4571.8614.4571.375 0 .6562-.1524.8437-.4571.1875-.3047.2813-.8105.2813-1.5175v-1.9864zm4.664-3.3808c.2852 0 .5489.0742.7911.2226.2421.1446.4335.3418.5742.5918.1445.25.2168.5215.2168.8145 0 .2929-.0723.5625-.2168.8086-.1407.2421-.3321.4355-.5742.58-.2422.1407-.5059.211-.7911.211-.289 0-.5566-.0703-.8027-.211-.2461-.1445-.4434-.3379-.5918-.58-.1445-.2461-.2168-.5157-.2168-.8086 0-.293.0723-.5645.2168-.8145.1484-.25.3457-.4472.5918-.5918.2461-.1484.5137-.2226.8027-.2226zm0 2.3554c.1993 0 .3672-.0683.5039-.205.1368-.1407.2051-.3145.2051-.5215 0-.2149-.0683-.3926-.2051-.5332-.1367-.1446-.3046-.2168-.5039-.2168-.1328 0-.2558.0332-.3691.0996-.1133.0664-.2031.1562-.2695.2695-.0664.1133-.0996.2402-.0996.3809 0 .1367.0332.2597.0996.3691.0664.1094.1562.1973.2695.2637.1133.0625.2363.0937.3691.0937z" fill="#fff"/></svg>