<svg xmlns="http://www.w3.org/2000/svg" viewBox="0 0 48 48"><defs><mask id="a" x="1" y="1" width="46" height="46" maskUnits="userSpaceOnUse"><path d="M24 46A22 22 0 102 24a22 22 0 0022 22zm-4.25-13.77l13.5-7.8a.5.5 0 000-.86l-13.5-7.8a.5.5 0 00-.75.44v15.58a.5.5 0 00.75.44z" fill-rule="evenodd" fill="#fff"/></mask></defs><path d="M24 46A22 22 0 102 24a22 22 0 0022 22zm-4.25-13.77l13.5-7.8a.5.5 0 000-.86l-13.5-7.8a.5.5 0 00-.75.44v15.58a.5.5 0 00.75.44z" fill="#333" fill-rule="evenodd"/><g mask="url(#a)"><path d="M33.25 24.43l.5.87zm-13.5 7.8l.5.86zm13.5-8.66l.5-.87zm-13.5-7.8l.5-.86zM45 24a21 21 0 01-21 21v2a23 23 0 0023-23zM24 3a21 21 0 0121 21h2A23 23 0 0024 1zM3 24A21 21 0 0124 3V1A23 23 0 001 24zm21 21A21 21 0 013 24H1a23 23 0 0023 23zm8.75-21.43l-13.5 7.79 1 1.73 13.5-7.79zm0 .86a.5.5 0 010-.86l1 1.73a1.5 1.5 0 000-2.6zm-13.5-7.79l13.5 7.79 1-1.73-13.5-7.79zm.75-.43a.5.5 0 01-.75.43l1-1.73a1.5 1.5 0 00-2.25 1.3zm0 15.58V16.21h-2v15.58zm-.75-.43a.5.5 0 01.75.43h-2a1.5 1.5 0 002.25 1.3z" fill="#333"/></g></svg>