<svg viewBox="0 0 48 48" fill="none" xmlns="http://www.w3.org/2000/svg"><path d="M36.7692 4.34493l-2.2253 3.32388a19.60479 19.60479 0 00-2.2229-1.2861l1.7718-3.58615c.9283.45861 1.822.97638 2.6764 1.54837zM31.2369 1.6123l-1.2855 3.7878a19.45706 19.45706 0 00-2.4783-.66248l.7763-3.92396a23.46017 23.46017 0 012.9875.79864zM25.1839.41361l-.258 3.99167a19.99155 19.99155 0 00-1.2894-.04151c-.4337 0-.8637.014-1.2894.04151L22.0892.41361a23.98945 23.98945 0 011.5473-.04984c.5199 0 1.0359.01678 1.5474.04984zM19.0236.81366l.7763 3.92396a19.46595 19.46595 0 00-2.4783.66248l-1.2855-3.7878a23.46166 23.46166 0 012.9875-.79864zM13.1802 2.79656l1.7719 3.58615a19.60763 19.60763 0 00-2.223 1.2861l-2.2253-3.32387a23.61334 23.61334 0 012.6764-1.54838zM8.05192 6.22904l2.63858 3.00633A19.78334 19.78334 0 008.87184 11.054L5.86551 8.41545a23.78368 23.78368 0 012.18641-2.18641zM3.98141 10.8674l3.32387 2.2252a19.61478 19.61478 0 00-1.28609 2.223l-3.58616-1.7719a23.612 23.612 0 011.54838-2.6763zM1.24877 16.3996l3.75187 1.2734a19.88616 19.88616 0 00-.81145 2.4538l-3.73905-.7397a23.4661 23.4661 0 01.79863-2.9875zM3.69958 22.6885c-.10144.817-.15368 1.6491-.15368 2.4934 0 .0466.00016.0931.00047.1396l-3.49629.2259A23.99241 23.99241 0 01.00024 24c0-.5198.01679-1.0358.04984-1.5473l3.6495.2358zM3.73737 27.9626c.12356.8897.30557 1.7608.54203 2.6093l-3.03063 1.0286a23.46347 23.46347 0 01-.79863-2.9876l3.28723-.6503zM5.17264 33.1028a19.99405 19.99405 0 001.2354 2.4053l-2.42663 1.6246a23.612 23.612 0 01-1.54838-2.6763l2.73961-1.3536zM7.96717 37.7401a20.2403 20.2403 0 001.85636 2.0124l-1.7716 2.0186a23.78978 23.78978 0 01-2.18642-2.1865l2.10166-1.8445zM11.9445 41.5033c.7458.5347 1.5298 1.02 2.3471 1.4508l-1.1114 2.2494a23.61124 23.61124 0 01-2.6764-1.5483l1.4407-2.1519zM16.8218 44.0726a20.0529 20.0529 0 002.6673.7611l-.4655 2.3527a23.46388 23.46388 0 01-2.9875-.7986l.7857-2.3152zM22.242 45.221c.4812.0343.967.0517 1.4569.0517.4419 0 .8864-.016 1.3324-.0476l.1526 2.3614c-.5115.033-1.0275.0498-1.5474.0498s-1.0358-.0168-1.5473-.0498l.1528-2.3655zM27.7855 44.8413c.8974-.1851 1.7937-.4272 2.6816-.7217l.7698 2.2682c-.9691.3289-1.9665.5966-2.9875.7986l-.4639-2.3451zM33.0551 43.1031c.8451-.3843 1.6753-.8143 2.4838-1.2856l1.2303 1.8377a23.60251 23.60251 0 01-2.6764 1.5483l-1.0377-2.1004zM39.2211 41.771l-1.3142-1.4973c.7766-.5635 1.5232-1.1658 2.2325-1.8021l1.2681 1.113a23.77096 23.77096 0 01-2.1864 2.1864zM43.2916 37.1327l-1.0885-.7287c.6674-.7492 1.2835-1.5316 1.8396-2.3416l.7973.394a23.61063 23.61063 0 01-1.5484 2.6763zM46.0243 31.6005l-.4495-.1526c.4554-.9312.8297-1.8876 1.1114-2.862l.1367.027a23.46537 23.46537 0 01-.7986 2.9876zM34.2947 11.9789l8.674.1668-2.5512-8.292-6.1228 8.1252zM13.2192 23.0493h1.271c.4825 0 .835-.167 1.0577-.501.2288-.3401.3432-.7916.3432-1.3545 0-.538-.1175-.9555-.3525-1.2524-.2289-.3031-.5381-.4546-.9278-.4546-.3649 0-.6648.1423-.8999.4268-.2288.2845-.3432.6432-.3432 1.0761h-2.6255c0-.705.1608-1.3359.4824-1.8925.3278-.5629.7824-1.002 1.3638-1.3174.5875-.3154 1.237-.4732 1.9482-.4732 1.2432 0 2.2173.3433 2.9224 1.0298.7051.6865 1.0576 1.6267 1.0576 2.8203 0 .6123-.1608 1.1814-.4824 1.7071-.3154.5195-.7329.9184-1.2525 1.1967.6371.2722 1.1102.6804 1.4195 1.2247.3154.5442.4731 1.1875.4731 1.9296 0 1.1999-.3834 2.1617-1.1504 2.8853-.7607.7236-1.7627 1.0854-3.0058 1.0854-1.1566 0-2.0967-.3556-2.8203-1.0668-.7175-.7175-1.0762-1.6576-1.0762-2.8204h2.6255c0 .4825.1268.8876.3803 1.2154.2536.3278.5752.4917.9649.4917.4515 0 .8071-.167 1.0669-.501.2659-.334.3989-.7793.3989-1.3359 0-1.3298-.5164-1.9978-1.5493-2.0039h-1.2896v-2.1153zM26.1849 17.353v2.2266h-.1485c-.9834.0062-1.7657.303-2.3471.8906-.5752.5814-.9247 1.3978-1.0484 2.4492.5629-.6432 1.2679-.9648 2.1153-.9648.9772 0 1.7565.4175 2.3379 1.2524.5875.835.8813 1.9483.8813 3.3399 0 .8844-.167 1.6823-.501 2.3935-.334.7113-.804 1.2648-1.4101 1.6607-.6.3896-1.2803.5844-2.041.5844-1.2246 0-2.208-.4917-2.9502-1.4751-.736-.9833-1.104-2.3069-1.104-3.9707v-.9741c0-1.4905.2319-2.7955.6958-3.915.47-1.1195 1.1442-1.9792 2.0224-2.5791.8845-.6061 1.9142-.9123 3.0894-.9185h.4082zm-2.2544 6.7725c-.334 0-.6154.1051-.8442.3154-.2227.2103-.3897.4701-.501.7793v.9463c0 .9525.1268 1.6637.3803 2.1338.2536.47.5876.7051 1.002.7051.4206 0 .7576-.2258 1.0112-.6773.2536-.4577.3804-1.0421.3804-1.7534 0-.7236-.133-1.3112-.3989-1.7627-.2598-.4577-.6031-.6865-1.0298-.6865zM36.8126 25.415c0 1.8679-.3401 3.2966-1.0205 4.2862-.6741.9896-1.639 1.4843-2.8945 1.4843-1.2432 0-2.2049-.4793-2.8853-1.4379-.6741-.9649-1.0236-2.3441-1.0483-4.1377v-2.5513c0-1.8617.3371-3.2842 1.0112-4.2676.6742-.9896 1.6421-1.4844 2.9038-1.4844 1.2618 0 2.2297.4886 2.9039 1.4659.6741.9772 1.0174 2.3719 1.0297 4.184v2.4585zm-2.6347-2.7368c0-1.0638-.1052-1.8616-.3155-2.3935-.2102-.5319-.538-.7979-.9834-.7979-.8349 0-1.2679.9741-1.2988 2.9224v3.3677c0 1.0885.1052 1.8987.3154 2.4306.2165.5319.5505.7979 1.002.7979.4268 0 .7422-.2474.9463-.7422.2103-.501.3216-1.2648.334-2.2915v-3.2935zM38.2929 19.8672c0-.7113.2505-1.3143.7515-1.8091.5072-.501 1.1009-.7515 1.7812-.7515.6742 0 1.2556.2505 1.7442.7515.4948.4948.7422 1.0978.7422 1.8091 0 .7174-.2474 1.3205-.7422 1.8091-.4886.4824-1.07.7236-1.7442.7236-.6741 0-1.2648-.2412-1.7719-.7236-.5072-.4886-.7608-1.0917-.7608-1.8091zm2.5327 1.1504c.3278 0 .5969-.1114.8072-.334.2103-.2227.3154-.4948.3154-.8164s-.1051-.5999-.3154-.835c-.2103-.235-.4794-.3525-.8072-.3525-.3278 0-.6061.1175-.8349.3525-.2227.2289-.334.5072-.334.835s.1144.603.3433.8257c.235.2164.5102.3247.8256.3247z" fill="#fff"/></svg>