<svg viewBox="0 0 48 48" fill="none" xmlns="http://www.w3.org/2000/svg"><path fill-rule="evenodd" clip-rule="evenodd" d="M35.8149 18.5697c.1631.3545.3111.7175.4424 1.0883 1.3982.2431 2.6883.5262 3.8482.8425 2.0478.5585 3.6328 1.2057 4.6821 1.8824 1.0942.7056 1.3611 1.2749 1.3611 1.617 0 .3421-.2669.9114-1.3611 1.6169-1.0493.6768-2.6343 1.324-4.6821 1.8825-1.1599.3163-2.45.5993-3.8482.8425-.1313.3707-.279.7336-.4421 1.0881 6.7861-1.1006 11.3335-3.1205 11.3335-5.43 0-2.3096-4.5476-4.3296-11.3338-5.4302zm-6.3847 17.2452c-.3545.1632-.7173.311-1.0882.4423-.2431 1.3981-.5261 2.6881-.8425 3.848-.5583 2.0479-1.2056 3.6327-1.8823 4.6822-.7056 1.0942-1.2749 1.361-1.617 1.361-.342 0-.9113-.2668-1.6169-1.361-.6768-1.0495-1.324-2.6343-1.8823-4.6822-.3164-1.1598-.5994-2.4498-.8426-3.8478-.3708-.1313-.7338-.279-1.0883-.4422 1.1006 6.786 3.1203 11.3332 5.4301 11.3332 2.3096 0 4.3294-4.5473 5.43-11.3335zM31.6505 28.4122l-7.5169 4.6786-7.8897-5.4306v-7.7678l7.9045-4.7363 7.6204 4.7418-.1183 8.5143zm-.751-.3813l.1008-7.255-6.4777 4.2992V32l6.3769-3.9691zm-7.1331 3.9298v-6.8816l-6.7663-4.3242v6.5485l6.7663 4.6573zm-6.4601-11.8659l6.8341 4.3676 6.5808-4.3677-6.5806-4.0948-6.8343 4.0949z" fill="#fff"/><path d="M25.6172 3.21252c-.7056-1.09423-1.2749-1.36108-1.617-1.36108-.342 0-.9113.26685-1.6169 1.36108-.6768 1.04944-1.324 2.63428-1.8823 4.68201-.3164 1.15991-.5994 2.45007-.8426 3.84817a12.9205 12.9205 0 00-1.0883.4421C19.6707 5.3988 21.6904.85144 24.0002.85144c2.0519 0 3.8751 3.58915 5.0283 9.14856H30a.50008.50008 0 01.4253.2371.49995.49995 0 01.0219.4865l-1.5 3a.49916.49916 0 01-.1843.2017A.4993.4993 0 0128.5 14a.49896.49896 0 01-.2628-.0747.4994.4994 0 01-.1844-.2017l-1.5-3a.50039.50039 0 01-.0523-.2461.50103.50103 0 01.0742-.2404A.49998.49998 0 0127 10h1.0066c-.1574-.74137-.3268-1.44458-.5071-2.10547-.5583-2.04773-1.2056-3.63257-1.8823-4.68201zM12.1848 29.4299c-.1638-.3559-.3113-.719-.4421-1.0882-1.398-.2431-2.68801-.5261-3.84792-.8424-2.04761-.5585-3.63257-1.2057-4.68213-1.8825-1.09424-.7055-1.36109-1.2748-1.36109-1.6169 0-.3421.26685-.9114 1.36109-1.617 1.04956-.6767 2.63452-1.3239 4.68213-1.8824.5105-.1392 1.0462-.272 1.60522-.3977v1.0003c0 .0852.02179.1691.06329.2435a.5002.5002 0 00.41423.256.50036.50036 0 00.24608-.0523l3-1.5a.49916.49916 0 00.2017-.1843.4993.4993 0 00.0747-.2629.49896.49896 0 00-.0747-.2628.4994.4994 0 00-.2017-.1844l-3-1.5a.50036.50036 0 00-.24608-.0523.5002.5002 0 00-.41423.256.50035.50035 0 00-.06329.2435v.9753C4.22636 20.2356.85156 22.0102.85156 23.9999c0 2.3095 4.54712 4.3294 11.33324 5.43z" fill="#fff"/></svg>