<svg viewBox="0 0 48 48" fill="none" xmlns="http://www.w3.org/2000/svg"><path d="M15.56 26.06l1.21-.16c.1667.68.5433 1.02 1.13 1.02.3267 0 .5933-.1067.8-.32s.31-.4967.31-.85c0-.3933-.1033-.6967-.31-.91-.2-.2133-.4633-.32-.79-.32-.2133 0-.4167.05-.61.15l-.5-.7 1.32-1.81h-2.23V21h4.01v.44l-1.65 2.23c.12-.0133.2133-.02.28-.02.5333 0 .9567.1933 1.27.58.3133.38.47.88.47 1.5 0 .7133-.2233 1.2833-.67 1.71-.4467.4267-1.0133.64-1.7.64-.64 0-1.1767-.1867-1.61-.56-.4267-.38-.67-.8667-.73-1.46zm7.6348-2.54h.16c.6466 0 1.1833.2133 1.61.64.4333.42.65.9667.65 1.64 0 .6533-.2234 1.1967-.67 1.63-.4467.4333-1.0034.65-1.67.65-.66 0-1.2167-.2167-1.67-.65-.4467-.4333-.67-.9767-.67-1.63 0-.4267.1133-.8367.34-1.23l2.04-3.65h1.4l-1.52 2.6zm-1 2.28c0 .3333.1033.6033.31.81.2133.2067.47.31.77.31.3066 0 .5633-.1033.77-.31.2066-.2067.31-.4767.31-.81 0-.3467-.1034-.62-.31-.82-.2-.2-.4567-.3-.77-.3-.3134 0-.5734.1-.78.3-.2.2-.3.4733-.3.82zm4.7307-3.93c.4467-.6333 1.0834-.95 1.91-.95.8267 0 1.4634.3167 1.91.95.4467.6267.67 1.5033.67 2.63 0 1.1267-.2233 2.0067-.67 2.64-.4466.6267-1.0833.94-1.91.94-.8266 0-1.4633-.3133-1.91-.94-.4466-.6333-.67-1.5133-.67-2.64s.2234-2.0033.67-2.63zm3.25 2.63c0-1.6133-.4466-2.42-1.34-2.42-.8933 0-1.34.8067-1.34 2.42s.4467 2.42 1.34 2.42c.8934 0 1.34-.8067 1.34-2.42zm2.4065-1.56c-.2333-.2333-.35-.5233-.35-.87s.1167-.6333.35-.86c.2334-.2333.5234-.35.87-.35.3467 0 .6367.1167.87.35.2334.2267.35.5133.35.86s-.1166.6367-.35.87c-.2333.2267-.5233.34-.87.34-.3466 0-.6366-.1133-.87-.34zm.58-1.16c-.0666.0733-.1.17-.1.29 0 .12.0334.2167.1.29.0734.0733.17.11.29.11.12 0 .2134-.0367.28-.11.0734-.0733.11-.17.11-.29 0-.12-.0366-.2167-.11-.29-.0666-.0733-.16-.11-.28-.11-.12 0-.2166.0367-.29.11zM35.8149 18.5697c.1631.3545.3111.7175.4424 1.0883 1.3982.2431 2.6883.5262 3.8482.8425 2.0478.5585 3.6328 1.2057 4.6821 1.8824 1.0942.7056 1.3611 1.2749 1.3611 1.617 0 .3421-.2669.9114-1.3611 1.6169-1.0493.6768-2.6343 1.324-4.6821 1.8825-1.1599.3163-2.45.5993-3.8482.8425-.1313.3707-.279.7336-.4421 1.0881 6.7861-1.1006 11.3335-3.1205 11.3335-5.43 0-2.3096-4.5476-4.3296-11.3338-5.4302zM29.4302 35.8149c-.3545.1632-.7173.311-1.0882.4423-.2431 1.3981-.5261 2.6881-.8425 3.848-.5583 2.0479-1.2056 3.6327-1.8823 4.6822-.7056 1.0942-1.2749 1.361-1.617 1.361-.342 0-.9113-.2668-1.6169-1.361-.6768-1.0495-1.324-2.6343-1.8823-4.6822-.3164-1.1598-.5994-2.4498-.8426-3.8478-.3708-.1313-.7338-.279-1.0883-.4422 1.1006 6.786 3.1203 11.3332 5.4301 11.3332 2.3096 0 4.3294-4.5473 5.43-11.3335zM25.6172 3.21252c-.7056-1.09423-1.2749-1.36108-1.617-1.36108-.342 0-.9113.26685-1.6169 1.36108-.6768 1.04944-1.324 2.63428-1.8823 4.68201-.3164 1.15991-.5994 2.45007-.8426 3.84817a12.9205 12.9205 0 00-1.0883.4421C19.6707 5.3988 21.6904.85144 24.0002.85144c2.0519 0 3.8751 3.58915 5.0283 9.14856H30a.50008.50008 0 01.4253.2371.49995.49995 0 01.0219.4865l-1.5 3a.49916.49916 0 01-.1843.2017A.4993.4993 0 0128.5 14a.49896.49896 0 01-.2628-.0747.4994.4994 0 01-.1844-.2017l-1.5-3a.50039.50039 0 01-.0523-.2461.50103.50103 0 01.0742-.2404A.49998.49998 0 0127 10h1.0066c-.1574-.74137-.3268-1.44458-.5071-2.10547-.5583-2.04773-1.2056-3.63257-1.8823-4.68201zM12.1848 29.4299c-.1638-.3559-.3113-.719-.4421-1.0882-1.398-.2431-2.68801-.5261-3.84792-.8424-2.04761-.5585-3.63257-1.2057-4.68213-1.8825-1.09424-.7055-1.36109-1.2748-1.36109-1.6169 0-.3421.26685-.9114 1.36109-1.617 1.04956-.6767 2.63452-1.3239 4.68213-1.8824.5105-.1392 1.0462-.272 1.60522-.3977v1.0003c0 .0852.02179.1691.06329.2435a.5002.5002 0 00.41423.256.50036.50036 0 00.24608-.0523l3-1.5a.49916.49916 0 00.2017-.1843.4993.4993 0 00.0747-.2629.49896.49896 0 00-.0747-.2628.4994.4994 0 00-.2017-.1844l-3-1.5a.50036.50036 0 00-.24608-.0523.5002.5002 0 00-.41423.256.50035.50035 0 00-.06329.2435v.9753C4.22636 20.2356.85156 22.0102.85156 23.9999c0 2.3095 4.54712 4.3294 11.33324 5.43z" fill="#fff"/></svg>