<svg viewBox="0 0 48 52" fill="none" xmlns="http://www.w3.org/2000/svg">
<g opacity="0.7" filter="url(#filter0_dd)">
<path d="M9.33318 37.2526C8.94265 37.6431 8.94265 38.2763 9.33318 38.6668C9.7237 39.0573 10.3569 39.0573 10.7474 38.6668L9.33318 37.2526ZM38.7072 10.707C39.0977 10.3165 39.0977 9.68334 38.7072 9.29282C38.3167 8.9023 37.6835 8.9023 37.293 9.29282L38.7072 10.707ZM10.7474 38.6668L38.7072 10.707L37.293 9.29282L9.33318 37.2526L10.7474 38.6668Z" fill="white"/>
<path d="M10.7071 9.33318C10.3166 8.94265 9.68342 8.94265 9.29289 9.33318C8.90237 9.7237 8.90237 10.3569 9.29289 10.7474L10.7071 9.33318ZM37.2527 38.7072C37.6432 39.0977 38.2764 39.0977 38.6669 38.7072C39.0574 38.3167 39.0574 37.6835 38.6669 37.293L37.2527 38.7072ZM9.29289 10.7474L37.2527 38.7072L38.6669 37.293L10.7071 9.33318L9.29289 10.7474Z" fill="white"/>
</g>
<defs>
<filter id="filter0_dd" x="0.585693" y="4.58569" width="46.8285" height="46.8286" filterUnits="userSpaceOnUse" color-interpolation-filters="sRGB">
<feFlood flood-opacity="0" result="BackgroundImageFix"/>
<feColorMatrix in="SourceAlpha" type="matrix" values="0 0 0 0 0 0 0 0 0 0 0 0 0 0 0 0 0 0 127 0"/>
<feOffset dy="4"/>
<feGaussianBlur stdDeviation="4"/>
<feColorMatrix type="matrix" values="0 0 0 0 0.184314 0 0 0 0 0.211765 0 0 0 0 0.247059 0 0 0 0.3 0"/>
<feBlend mode="normal" in2="BackgroundImageFix" result="effect1_dropShadow"/>
<feColorMatrix in="SourceAlpha" type="matrix" values="0 0 0 0 0 0 0 0 0 0 0 0 0 0 0 0 0 0 127 0"/>
<feOffset dy="2"/>
<feGaussianBlur stdDeviation="2"/>
<feColorMatrix type="matrix" values="0 0 0 0 0.184314 0 0 0 0 0.211765 0 0 0 0 0.247059 0 0 0 0.1 0"/>
<feBlend mode="normal" in2="effect1_dropShadow" result="effect2_dropShadow"/>
<feBlend mode="normal" in="SourceGraphic" in2="effect2_dropShadow" result="shape"/>
</filter>
</defs>
</svg>
