<svg viewBox="0 0 48 48" fill="none" xmlns="http://www.w3.org/2000/svg">
<path d="M25.3841 24.7241C24.9937 24.3334 24.9939 23.7002 25.3847 23.3098L37 11.7051L36.2943 11L24.6793 22.6044C24.2886 22.9947 23.6556 22.9944 23.2652 22.6038L11.7052 11.0366L11 11.7422L22.5593 23.3087C22.9497 23.6994 22.9495 24.3326 22.5588 24.723L11.037 36.2342L11.7427 36.9393L23.2641 25.4284C23.6548 25.0381 24.2879 25.0383 24.6782 25.4289L36.2421 37L36.9472 36.2944L25.3841 24.7241Z" fill="#999999"/>
<path d="M25.3841 24.7241C24.9937 24.3334 24.9939 23.7002 25.3847 23.3098L37 11.7051L36.2943 11L24.6793 22.6044C24.2886 22.9947 23.6556 22.9944 23.2652 22.6038L11.7052 11.0366L11 11.7422L22.5593 23.3087C22.9497 23.6994 22.9495 24.3326 22.5588 24.723L11.037 36.2342L11.7427 36.9393L23.2641 25.4284C23.6548 25.0381 24.2879 25.0383 24.6782 25.4289L36.2421 37L36.9472 36.2944L25.3841 24.7241Z" stroke="#999999"/>
</svg>
