<svg viewBox="0 0 48 48" fill="none" xmlns="http://www.w3.org/2000/svg">
<path d="M3 45L2 45L2 46L3 46L3 45ZM4 35C4 34.4477 3.55229 34 3 34C2.44772 34 2 34.4477 2 35L4 35ZM13 46C13.5523 46 14 45.5523 14 45C14 44.4477 13.5523 44 13 44L13 46ZM4 45L4 35L2 35L2 45L4 45ZM13 44L3 44L3 46L13 46L13 44Z" fill="#999999"/>
<path d="M45 3L46 3L46 2L45 2L45 3ZM44 13C44 13.5523 44.4477 14 45 14C45.5523 14 46 13.5523 46 13L44 13ZM35 2C34.4477 2 34 2.44772 34 3C34 3.55228 34.4477 4 35 4L35 2ZM44 3L44 13L46 13L46 3L44 3ZM35 4L45 4L45 2L35 2L35 4Z" fill="#999999"/>
<path d="M45 45L45 46L46 46L46 45L45 45ZM35 44C34.4477 44 34 44.4477 34 45C34 45.5523 34.4477 46 35 46L35 44ZM46 35C46 34.4477 45.5523 34 45 34C44.4477 34 44 34.4477 44 35L46 35ZM45 44L35 44L35 46L45 46L45 44ZM44 35L44 45L46 45L46 35L44 35Z" fill="#999999"/>
<path d="M3 3L3 2L2 2L2 3L3 3ZM13 4C13.5523 4 14 3.55228 14 3C14 2.44771 13.5523 2 13 2L13 4ZM2 13C2 13.5523 2.44772 14 3 14C3.55229 14 4 13.5523 4 13L2 13ZM3 4L13 4L13 2L3 2L3 4ZM4 13L4 3L2 3L2 13L4 13Z" fill="#999999"/>
</svg>
