<svg viewBox="0 0 48 48" fill="none" xmlns="http://www.w3.org/2000/svg">
<path d="M4 44L2 44L2 46L4 46L4 44ZM6 36L6 34L2 34L2 36L6 36ZM12 46L14 46L14 42L12 42L12 46ZM6 44L6 36L2 36L2 44L6 44ZM12 42L4 42L4 46L12 46L12 42Z" fill="#999999"/>
<path d="M44 4L46 4L46 2L44 2L44 4ZM42 12L42 14L46 14L46 12L42 12ZM36 2L34 2L34 6L36 6L36 2ZM42 4L42 12L46 12L46 4L42 4ZM36 6L44 6L44 2L36 2L36 6Z" fill="#999999"/>
<path d="M44 44L44 46L46 46L46 44L44 44ZM36 42L34 42L34 46L36 46L36 42ZM46 36L46 34L42 34L42 36L46 36ZM44 42L36 42L36 46L44 46L44 42ZM42 36L42 44L46 44L46 36L42 36Z" fill="#999999"/>
<path d="M4 4L4 2L2 2L2 4L4 4ZM12 6L14 6L14 2L12 2L12 6ZM2 12L2 14L6 14L6 12L2 12ZM4 6L12 6L12 2L4 2L4 6ZM6 12L6 4L2 4L2 12L6 12Z" fill="#999999"/>
</svg>
