<svg viewBox="0 0 48 48" fill="none" xmlns="http://www.w3.org/2000/svg">
<path d="M37.412 6.18453L44.1421 3.94116L41.8987 10.6713L37.412 6.18453Z" fill="#999999"/>
<path d="M10.8722 41.6978L4.14209 43.9412L6.38545 37.2111L10.8722 41.6978Z" fill="#999999"/>
<path d="M6.38545 11.0732L4.14209 4.34314L10.8722 6.58651L6.38545 11.0732Z" fill="#999999"/>
<path d="M41.8987 37.6131L44.1421 44.3431L37.412 42.0998L41.8987 37.6131Z" fill="#999999"/>
<path d="M8.62882 8.82987L16.8291 17.0302M30.9698 31.1709L39.6554 39.8564M8.62882 39.4544L16.9707 31.1126M31.1126 16.9707L39.6554 8.42789M44.1421 3.94116L37.412 6.18453L41.8987 10.6713L44.1421 3.94116ZM4.14209 43.9412L10.8722 41.6978L6.38545 37.2111L4.14209 43.9412ZM4.14209 4.34314L6.38545 11.0732L10.8722 6.58651L4.14209 4.34314ZM44.1421 44.3431L41.8987 37.6131L37.412 42.0998L44.1421 44.3431Z" stroke="#999999" stroke-width="2" stroke-linecap="round" stroke-linejoin="round"/>
</svg>
