<svg viewBox="0 0 48 48" fill="none" xmlns="http://www.w3.org/2000/svg">
<path d="M44 15C44 15.5523 44.4477 16 45 16C45.5523 16 46 15.5523 46 15H44ZM45 3H46V2H45V3ZM33 2C32.4477 2 32 2.44772 32 3C32 3.55228 32.4477 4 33 4V2ZM32.2929 14.2929C31.9024 14.6834 31.9024 15.3166 32.2929 15.7071C32.6834 16.0976 33.3166 16.0976 33.7071 15.7071L32.2929 14.2929ZM46 15V3H44V15H46ZM45 2H33V4H45V2ZM44.2929 2.29289L32.2929 14.2929L33.7071 15.7071L45.7071 3.70711L44.2929 2.29289Z" fill="#999999"/>
<path d="M15 4C15.5523 4 16 3.55228 16 3C16 2.44772 15.5523 2 15 2V4ZM3 3V2H2V3H3ZM2 15C2 15.5523 2.44772 16 3 16C3.55228 16 4 15.5523 4 15H2ZM14.2929 15.7071C14.6834 16.0976 15.3166 16.0976 15.7071 15.7071C16.0976 15.3166 16.0976 14.6834 15.7071 14.2929L14.2929 15.7071ZM15 2H3V4H15V2ZM2 3V15H4V3H2ZM2.29289 3.70711L14.2929 15.7071L15.7071 14.2929L3.70711 2.29289L2.29289 3.70711Z" fill="#999999"/>
<path d="M4 33C4 32.4477 3.55229 32 3 32C2.44772 32 2 32.4477 2 33L4 33ZM3 45L2 45L2 46L3 46L3 45ZM15 46C15.5523 46 16 45.5523 16 45C16 44.4477 15.5523 44 15 44L15 46ZM15.7071 33.7071C16.0976 33.3166 16.0976 32.6834 15.7071 32.2929C15.3166 31.9024 14.6834 31.9024 14.2929 32.2929L15.7071 33.7071ZM2 33L2 45L4 45L4 33L2 33ZM3 46L15 46L15 44L3 44L3 46ZM3.70711 45.7071L15.7071 33.7071L14.2929 32.2929L2.29289 44.2929L3.70711 45.7071Z" fill="#999999"/>
<path d="M33 44C32.4477 44 32 44.4477 32 45C32 45.5523 32.4477 46 33 46L33 44ZM45 45L45 46L46 46L46 45L45 45ZM46 33C46 32.4477 45.5523 32 45 32C44.4477 32 44 32.4477 44 33L46 33ZM33.7071 32.2929C33.3166 31.9024 32.6834 31.9024 32.2929 32.2929C31.9024 32.6834 31.9024 33.3166 32.2929 33.7071L33.7071 32.2929ZM33 46L45 46L45 44L33 44L33 46ZM46 45L46 33L44 33L44 45L46 45ZM45.7071 44.2929L33.7071 32.2929L32.2929 33.7071L44.2929 45.7071L45.7071 44.2929Z" fill="#999999"/>
</svg>
