<svg viewBox="0 0 48 48" fill="none" xmlns="http://www.w3.org/2000/svg">
<path d="M14 6H6V14L14 6Z" fill="#999999"/>
<path d="M34 42H42V34L34 42Z" fill="#999999"/>
<path d="M6 42L6 34L14 42H6Z" fill="#999999"/>
<path d="M42 14V6L34 6L42 14Z" fill="#999999"/>
<path d="M28.7135 27.7129L35.8031 34.8023C35.578 35.0481 35.3452 35.287 35.1053 35.5184L28.031 28.4443C28.2782 28.22 28.5066 27.9753 28.7135 27.7129Z" fill="#999999"/>
<path d="M20.0997 28.5595L13.0205 35.6384C12.7781 35.4096 12.5428 35.1733 12.315 34.9299L19.3967 27.8485C19.6109 28.1045 19.8461 28.3424 20.0997 28.5595Z" fill="#999999"/>
<path d="M19.5556 19.9692L12.4812 12.8951C12.7126 12.6551 12.9515 12.4224 13.1973 12.1972L20.287 19.2866C20.0246 19.4936 19.7799 19.722 19.5556 19.9692Z" fill="#999999"/>
<path d="M35.6388 13.0209C35.41 12.7785 35.1737 12.5432 34.9303 12.3154L27.8487 19.3968C28.1047 19.6111 28.3425 19.8463 28.5596 20.0998L35.6388 13.0209Z" fill="#999999"/>
</svg>
