<svg viewBox="0 0 48 48" fill="none" xmlns="http://www.w3.org/2000/svg">
<circle cx="24" cy="24" r="18.5" stroke="white"/>
<path d="M32.477 24C32.477 30.6061 31.5029 36.5759 29.9359 40.8851C29.152 43.0408 28.2245 44.7677 27.2072 45.951C26.1892 47.1351 25.1044 47.75 23.9997 47.75C22.895 47.75 21.8103 47.1351 20.7923 45.951C19.7749 44.7677 18.8474 43.0408 18.0636 40.8851C16.4966 36.5759 15.5225 30.6061 15.5225 24C15.5225 17.3939 16.4966 11.4241 18.0636 7.11487C18.8474 4.95921 19.7749 3.23232 20.7923 2.04902C21.8103 0.864906 22.895 0.25 23.9997 0.25C25.1044 0.25 26.1892 0.864906 27.2072 2.04902C28.2245 3.23232 29.152 4.95921 29.9359 7.11487C31.5029 11.4241 32.477 17.3939 32.477 24Z" stroke="white" stroke-opacity="0.5" stroke-width="0.5"/>
<path d="M24 15.5227C30.6061 15.5227 36.5759 16.4968 40.8851 18.0639C43.0408 18.8477 44.7677 19.7752 45.951 20.7925C47.1351 21.8106 47.75 22.8953 47.75 24C47.75 25.1047 47.1351 26.1895 45.951 27.2075C44.7677 28.2248 43.0408 29.1523 40.8851 29.9362C36.5759 31.5032 30.6061 32.4773 24 32.4773C17.3939 32.4773 11.4241 31.5032 7.11487 29.9362C4.95921 29.1523 3.23232 28.2248 2.04902 27.2075C0.864905 26.1895 0.25 25.1047 0.25 24C0.25 22.8953 0.864905 21.8106 2.04902 20.7925C3.23232 19.7752 4.95921 18.8477 7.11487 18.0639C11.4241 16.4969 17.3939 15.5227 24 15.5227Z" stroke="white" stroke-opacity="0.5" stroke-width="0.5"/>
<path d="M18.9219 23.6172C19.3867 23.7852 19.7402 24.0391 19.9824 24.3789C20.2246 24.7188 20.3457 25.127 20.3457 25.6035C20.3457 26.123 20.2129 26.5723 19.9473 26.9512C19.6816 27.3301 19.3164 27.6191 18.8516 27.8184C18.3906 28.0176 17.8672 28.1172 17.2812 28.1172C16.7773 28.1172 16.3008 28.0273 15.8516 27.8477C15.4062 27.6641 15.0449 27.3867 14.7676 27.0156C14.4902 26.6445 14.3516 26.1895 14.3516 25.6504H16.1211C16.1211 25.8457 16.1738 26.0234 16.2793 26.1836C16.3848 26.3438 16.5293 26.4688 16.7129 26.5586C16.8965 26.6484 17.1016 26.6934 17.3281 26.6934C17.5859 26.6934 17.8086 26.6465 17.9961 26.5527C18.1875 26.4551 18.332 26.3223 18.4297 26.1543C18.5312 25.9863 18.582 25.793 18.582 25.5742C18.582 24.7461 18.1309 24.332 17.2285 24.332H16.3145V23.4004V22.9551H17.2285C17.627 22.9551 17.9297 22.8535 18.1367 22.6504C18.3438 22.4473 18.4473 22.168 18.4473 21.8125C18.4473 21.5039 18.3516 21.2539 18.1602 21.0625C17.9727 20.8672 17.6953 20.7695 17.3281 20.7695C17.1328 20.7695 16.9512 20.8066 16.7832 20.8809C16.6152 20.9551 16.4805 21.0605 16.3789 21.1973C16.2812 21.334 16.2324 21.4922 16.2324 21.6719H14.4629C14.4629 21.2109 14.5879 20.8047 14.8379 20.4531C15.0918 20.0977 15.4336 19.8242 15.8633 19.6328C16.293 19.4414 16.7656 19.3457 17.2812 19.3457C17.8672 19.3457 18.3809 19.4395 18.8223 19.627C19.2637 19.8105 19.6055 20.0859 19.8477 20.4531C20.0938 20.8164 20.2168 21.2598 20.2168 21.7832C20.2168 22.1621 20.1016 22.5156 19.8711 22.8438C19.6445 23.1719 19.3281 23.4297 18.9219 23.6172ZM24.9863 22.2695C25.502 22.2695 25.9414 22.3984 26.3047 22.6562C26.668 22.9141 26.9414 23.2637 27.125 23.7051C27.3125 24.1426 27.4062 24.6348 27.4062 25.1816C27.4062 25.7363 27.2852 26.2363 27.043 26.6816C26.8047 27.127 26.4648 27.4785 26.0234 27.7363C25.582 27.9902 25.0762 28.1172 24.5059 28.1172C23.9043 28.1172 23.373 27.9766 22.9121 27.6953C22.4551 27.4141 22.0996 27.0156 21.8457 26.5C21.5918 25.9844 21.4648 25.3867 21.4648 24.707V24.0273C21.4648 23.0977 21.6445 22.2812 22.0039 21.5781C22.3672 20.8711 22.8809 20.3262 23.5449 19.9434C24.209 19.5566 24.9785 19.3633 25.8535 19.3633H26.1113V20.8223H26.0059C25.2363 20.8223 24.6133 21.0098 24.1367 21.3848C23.6602 21.7559 23.373 22.2832 23.2754 22.9668C23.4863 22.748 23.7363 22.5781 24.0254 22.457C24.3145 22.332 24.6348 22.2695 24.9863 22.2695ZM24.4707 26.6875C24.7012 26.6875 24.9043 26.623 25.0801 26.4941C25.2598 26.3652 25.3984 26.1875 25.4961 25.9609C25.5938 25.7344 25.6426 25.4785 25.6426 25.1934C25.6426 24.8965 25.5918 24.6348 25.4902 24.4082C25.3926 24.1777 25.252 24 25.0684 23.875C24.8848 23.75 24.6699 23.6875 24.4238 23.6875C24.1504 23.6875 23.9082 23.7578 23.6973 23.8984C23.4902 24.0352 23.3359 24.209 23.2344 24.4199V24.9531C23.2344 25.5234 23.3438 25.9551 23.5625 26.248C23.7812 26.541 24.084 26.6875 24.4707 26.6875ZM34.1621 24.4844C34.1621 25.3047 34.043 25.9863 33.8047 26.5293C33.5664 27.0684 33.2305 27.4688 32.7969 27.7305C32.3672 27.9883 31.8574 28.1172 31.2676 28.1172C30.6777 28.1172 30.1641 27.9883 29.7266 27.7305C29.293 27.4688 28.9551 27.0684 28.7129 26.5293C28.4707 25.9863 28.3496 25.3047 28.3496 24.4844V22.9727C28.3496 22.1523 28.4688 21.4727 28.707 20.9336C28.9492 20.3945 29.2871 19.9961 29.7207 19.7383C30.1543 19.4805 30.666 19.3516 31.2559 19.3516C31.8457 19.3516 32.3574 19.4805 32.791 19.7383C33.2246 19.9961 33.5605 20.3945 33.7988 20.9336C34.041 21.4727 34.1621 22.1523 34.1621 22.9727V24.4844ZM32.3926 22.7324C32.3926 22.0332 32.2969 21.5332 32.1055 21.2324C31.9141 20.9277 31.6309 20.7754 31.2559 20.7754C30.8809 20.7754 30.5977 20.9277 30.4062 21.2324C30.2148 21.5332 30.1191 22.0332 30.1191 22.7324V24.7188C30.1191 25.4258 30.2148 25.9316 30.4062 26.2363C30.6016 26.541 30.8887 26.6934 31.2676 26.6934C31.6426 26.6934 31.9238 26.541 32.1113 26.2363C32.2988 25.9316 32.3926 25.4258 32.3926 24.7188V22.7324ZM37.0566 19.3516C37.3418 19.3516 37.6055 19.4258 37.8477 19.5742C38.0898 19.7188 38.2812 19.916 38.4219 20.166C38.5664 20.416 38.6387 20.6875 38.6387 20.9805C38.6387 21.2734 38.5664 21.543 38.4219 21.7891C38.2812 22.0312 38.0898 22.2246 37.8477 22.3691C37.6055 22.5098 37.3418 22.5801 37.0566 22.5801C36.7676 22.5801 36.5 22.5098 36.2539 22.3691C36.0078 22.2246 35.8105 22.0312 35.6621 21.7891C35.5176 21.543 35.4453 21.2734 35.4453 20.9805C35.4453 20.6875 35.5176 20.416 35.6621 20.166C35.8105 19.916 36.0078 19.7188 36.2539 19.5742C36.5 19.4258 36.7676 19.3516 37.0566 19.3516ZM37.0566 21.707C37.2559 21.707 37.4238 21.6387 37.5605 21.502C37.6973 21.3613 37.7656 21.1875 37.7656 20.9805C37.7656 20.7656 37.6973 20.5879 37.5605 20.4473C37.4238 20.3027 37.2559 20.2305 37.0566 20.2305C36.9238 20.2305 36.8008 20.2637 36.6875 20.3301C36.5742 20.3965 36.4844 20.4863 36.418 20.5996C36.3516 20.7129 36.3184 20.8398 36.3184 20.9805C36.3184 21.1172 36.3516 21.2402 36.418 21.3496C36.4844 21.459 36.5742 21.5469 36.6875 21.6133C36.8008 21.6758 36.9238 21.707 37.0566 21.707Z" fill="white"/>
</svg>
