<svg viewBox="0 0 24 48" fill="none" xmlns="http://www.w3.org/2000/svg">
<path d="M13.4854 24.4854L14.1925 25.1925C14.583 24.8019 14.583 24.1688 14.1925 23.7782L13.4854 24.4854ZM8.5356 28.0209C8.14508 28.4114 8.14508 29.0446 8.5356 29.4351C8.92613 29.8256 9.55929 29.8256 9.94982 29.4351L8.5356 28.0209ZM9.94982 19.5356C9.55929 19.1451 8.92613 19.1451 8.5356 19.5356C8.14508 19.9261 8.14508 20.5593 8.5356 20.9498L9.94982 19.5356ZM12.7782 23.7782L8.5356 28.0209L9.94982 29.4351L14.1925 25.1925L12.7782 23.7782ZM8.5356 20.9498L12.7782 25.1925L14.1925 23.7782L9.94982 19.5356L8.5356 20.9498Z" fill="#999999"/>
</svg>
