<svg viewBox="0 0 48 48" fill="none" xmlns="http://www.w3.org/2000/svg">
<path d="M14.3932 46C11.8069 44.8691 9.45852 43.2955 7.44369 41.375L15.934 32.885C15.4398 32.436 14.9832 31.9464 14.5695 31.4215L6.05438 39.9364C4.39149 38.0652 3.01682 35.9321 2 33.6068V45C2 45.5523 2.44772 46 3 46H14.3932Z" fill="#999999"/>
<path d="M14.65 16.4776L6.13997 7.96786C4.43863 9.86192 3.03422 12.0281 2 14.3932V3C2 2.44772 2.44772 2 3 2H14.3932C11.8467 3.11355 9.53074 4.65628 7.5368 6.53672L16.0296 15.0292C15.5307 15.4728 15.0691 15.9573 14.65 16.4776Z" fill="#999999"/>
<path d="M31.4218 14.5698C31.9468 14.9835 32.4363 15.4401 32.8852 15.9343L41.3756 7.44429C43.2958 9.45899 44.8692 11.8072 46 14.3932V3C46 2.44772 45.5523 2 45 2H33.6068C35.9324 3.01694 38.0656 4.39179 39.937 6.05493L31.4218 14.5698Z" fill="#999999"/>
<path d="M32.9711 31.9701C32.5275 32.469 32.043 32.9307 31.5228 33.3498L40.0328 41.8595C38.1385 43.5611 35.9721 44.9657 33.6068 46H45C45.5523 46 46 45.5523 46 45V33.6068C44.8866 36.1531 43.344 38.4688 41.4638 40.4626L32.9711 31.9701Z" fill="#999999"/>
</svg>
