<svg viewBox="0 0 48 48" fill="none" xmlns="http://www.w3.org/2000/svg">
<path d="M39.8137 19.3137C39.8137 19.5899 40.0376 19.8137 40.3137 19.8137C40.5899 19.8137 40.8137 19.5899 40.8137 19.3137H39.8137ZM40.3137 8H40.8137V7.5H40.3137V8ZM29 7.5C28.7239 7.5 28.5 7.72386 28.5 8C28.5 8.27614 28.7239 8.5 29 8.5V7.5ZM28.6464 18.9602C28.4512 19.1554 28.4512 19.472 28.6464 19.6673C28.8417 19.8625 29.1583 19.8625 29.3536 19.6673L28.6464 18.9602ZM40.8137 19.3137V8H39.8137V19.3137H40.8137ZM40.3137 7.5H29V8.5H40.3137V7.5ZM39.9602 7.64645L28.6464 18.9602L29.3536 19.6673L40.6673 8.35355L39.9602 7.64645Z" fill="#999999"/>
<path d="M19.3137 8.5C19.5899 8.5 19.8137 8.27614 19.8137 8C19.8137 7.72386 19.5899 7.5 19.3137 7.5V8.5ZM8 8V7.5H7.5V8H8ZM7.5 19.3137C7.5 19.5899 7.72386 19.8137 8 19.8137C8.27614 19.8137 8.5 19.5899 8.5 19.3137H7.5ZM18.9602 19.6673C19.1554 19.8625 19.472 19.8625 19.6673 19.6673C19.8625 19.472 19.8625 19.1554 19.6673 18.9602L18.9602 19.6673ZM19.3137 7.5H8V8.5H19.3137V7.5ZM7.5 8V19.3137H8.5V8H7.5ZM7.64645 8.35355L18.9602 19.6673L19.6673 18.9602L8.35355 7.64645L7.64645 8.35355Z" fill="#999999"/>
<path d="M8.5 29C8.5 28.7239 8.27614 28.5 8 28.5C7.72386 28.5 7.5 28.7239 7.5 29L8.5 29ZM8 40.3137L7.5 40.3137L7.5 40.8137L8 40.8137L8 40.3137ZM19.3137 40.8137C19.5899 40.8137 19.8137 40.5899 19.8137 40.3137C19.8137 40.0376 19.5899 39.8137 19.3137 39.8137L19.3137 40.8137ZM19.6673 29.3536C19.8625 29.1583 19.8625 28.8417 19.6673 28.6464C19.472 28.4512 19.1554 28.4512 18.9602 28.6464L19.6673 29.3536ZM7.5 29L7.5 40.3137L8.5 40.3137L8.5 29L7.5 29ZM8 40.8137L19.3137 40.8137L19.3137 39.8137L8 39.8137L8 40.8137ZM8.35355 40.6673L19.6673 29.3536L18.9602 28.6464L7.64645 39.9602L8.35355 40.6673Z" fill="#999999"/>
<path d="M29 39.8137C28.7239 39.8137 28.5 40.0376 28.5 40.3137C28.5 40.5899 28.7239 40.8137 29 40.8137L29 39.8137ZM40.3137 40.3137L40.3137 40.8137L40.8137 40.8137L40.8137 40.3137L40.3137 40.3137ZM40.8137 29C40.8137 28.7239 40.5899 28.5 40.3137 28.5C40.0376 28.5 39.8137 28.7239 39.8137 29L40.8137 29ZM29.3536 28.6464C29.1583 28.4512 28.8417 28.4512 28.6464 28.6464C28.4512 28.8417 28.4512 29.1583 28.6464 29.3536L29.3536 28.6464ZM29 40.8137L40.3137 40.8137L40.3137 39.8137L29 39.8137L29 40.8137ZM40.8137 40.3137L40.8137 29L39.8137 29L39.8137 40.3137L40.8137 40.3137ZM40.6673 39.9602L29.3536 28.6464L28.6464 29.3536L39.9602 40.6673L40.6673 39.9602Z" fill="#999999"/>
</svg>
