<svg viewBox="0 0 48 48" fill="none" xmlns="http://www.w3.org/2000/svg">
<path d="M8 40L7.5 40L7.5 40.5L8 40.5L8 40ZM8.5 32L8.5 31.5L7.5 31.5L7.5 32L8.5 32ZM16 40.5L16.5 40.5L16.5 39.5L16 39.5L16 40.5ZM8.5 40L8.5 32L7.5 32L7.5 40L8.5 40ZM16 39.5L8 39.5L8 40.5L16 40.5L16 39.5Z" fill="#999999"/>
<path d="M40 8L40.5 8L40.5 7.5L40 7.5L40 8ZM39.5 16L39.5 16.5L40.5 16.5L40.5 16L39.5 16ZM32 7.5L31.5 7.5L31.5 8.5L32 8.5L32 7.5ZM39.5 8L39.5 16L40.5 16L40.5 8L39.5 8ZM32 8.5L40 8.5L40 7.5L32 7.5L32 8.5Z" fill="#999999"/>
</svg>
