<svg viewBox="0 0 48 48" fill="none" xmlns="http://www.w3.org/2000/svg">
<path fill-rule="evenodd" clip-rule="evenodd" d="M25.6172 3.21252C24.9116 2.11829 24.3423 1.85144 24.0002 1.85144C23.6582 1.85144 23.0889 2.11829 22.3833 3.21252C21.7065 4.26196 21.0593 5.8468 20.501 7.89453C20.1846 9.05444 19.9016 10.3446 19.6584 11.7427C19.2876 11.874 18.9246 12.0216 18.5701 12.1848C19.6707 5.3988 21.6904 0.85144 24.0002 0.85144C26.3098 0.85144 28.3298 5.39893 29.4304 12.1851C29.0759 12.0219 28.7129 11.8741 28.342 11.7428C28.0989 10.3447 27.8159 9.05444 27.4995 7.89453C26.9412 5.8468 26.2939 4.26196 25.6172 3.21252ZM35.8149 18.5697C35.978 18.9242 36.126 19.2872 36.2573 19.658C37.6555 19.9011 38.9456 20.1842 40.1055 20.5005C42.1533 21.059 43.7383 21.7062 44.7876 22.3829C45.8818 23.0885 46.1487 23.6578 46.1487 23.9999C46.1487 24.342 45.8818 24.9113 44.7876 25.6168C43.7383 26.2936 42.1533 26.9408 40.1055 27.4993C38.9456 27.8156 37.6555 28.0986 36.2573 28.3418C36.126 28.7125 35.9783 29.0754 35.8152 29.4299C42.6013 28.3293 47.1487 26.3094 47.1487 23.9999C47.1487 21.6903 42.6011 19.6703 35.8149 18.5697ZM29.4302 35.8149C29.0757 35.9781 28.7129 36.1259 28.342 36.2572C28.0989 37.6553 27.8159 38.9453 27.4995 40.1052C26.9412 42.1531 26.2939 43.7379 25.6172 44.7874C24.9116 45.8816 24.3423 46.1484 24.0002 46.1484C23.6582 46.1484 23.0889 45.8816 22.3833 44.7874C21.7065 43.7379 21.0593 42.1531 20.501 40.1052C20.1846 38.9454 19.9016 37.6554 19.6584 36.2574C19.2876 36.1261 18.9246 35.9784 18.5701 35.8152C19.6707 42.6012 21.6904 47.1484 24.0002 47.1484C26.3098 47.1484 28.3296 42.6011 29.4302 35.8149ZM12.1848 29.4299C12.0217 29.0754 11.874 28.7124 11.7427 28.3417C10.3447 28.0986 9.05469 27.8156 7.89478 27.4993C5.84717 26.9408 4.26221 26.2936 3.21265 25.6168C2.11841 24.9113 1.85156 24.342 1.85156 23.9999C1.85156 23.6578 2.11841 23.0885 3.21265 22.3829C4.26221 21.7062 5.84717 21.059 7.89478 20.5005C9.05469 20.1842 10.3447 19.9011 11.7427 19.6581C11.874 19.2874 12.022 18.9243 12.1851 18.5698C5.39893 19.6704 0.851562 21.6903 0.851562 23.9999C0.851562 26.3094 5.39868 28.3293 12.1848 29.4299Z" fill="rgba(255,255,255,1)"/>
<path d="M29 13.5L30.5 10.5H27.5L29 13.5Z" fill="white"/>
<path d="M30.5 10.5L30.9472 10.7236C31.0247 10.5686 31.0164 10.3845 30.9253 10.2371C30.8342 10.0897 30.6733 10 30.5 10V10.5ZM29 13.5L28.5528 13.7236C28.6375 13.893 28.8106 14 29 14C29.1894 14 29.3625 13.893 29.4472 13.7236L29 13.5ZM27.5 10.5V10C27.3267 10 27.1658 10.0897 27.0747 10.2371C26.9836 10.3845 26.9753 10.5686 27.0528 10.7236L27.5 10.5ZM30.0528 10.2764L28.5528 13.2764L29.4472 13.7236L30.9472 10.7236L30.0528 10.2764ZM29.4472 13.2764L27.9472 10.2764L27.0528 10.7236L28.5528 13.7236L29.4472 13.2764ZM30.5 10H27.5V11H30.5V10Z" fill="white"/>
<path fill-rule="evenodd" clip-rule="evenodd" d="M31 20.776L30.8992 28.031L24.5222 32.0001V25.0753L31 20.776ZM23.7661 25.0792V31.9608L16.9998 27.3036V20.755L23.7661 25.0792ZM24.1401 24.4625L17.3062 20.095L24.1404 16L30.7209 20.0948L24.1401 24.4625Z" fill="rgba(255,255,255,.75)"/>
<path d="M13 19.5L10 18L10 21L13 19.5Z" fill="white"/>
<path d="M10 18L10.2236 17.5528C10.0686 17.4753 9.88454 17.4836 9.73713 17.5747C9.58973 17.6658 9.5 17.8267 9.5 18L10 18ZM13 19.5L13.2236 19.9472C13.393 19.8625 13.5 19.6894 13.5 19.5C13.5 19.3106 13.393 19.1375 13.2236 19.0528L13 19.5ZM10 21L9.5 21C9.5 21.1733 9.58973 21.3342 9.73713 21.4253C9.88454 21.5164 10.0686 21.5247 10.2236 21.4472L10 21ZM9.77639 18.4472L12.7764 19.9472L13.2236 19.0528L10.2236 17.5528L9.77639 18.4472ZM12.7764 19.0528L9.77639 20.5528L10.2236 21.4472L13.2236 19.9472L12.7764 19.0528ZM9.5 18L9.5 21L10.5 21L10.5 18L9.5 18Z" fill="white"/>
</svg>
