<svg width="48" height="48" viewBox="0 0 48 48" fill="none" xmlns="http://www.w3.org/2000/svg">
<path fill-rule="evenodd" clip-rule="evenodd" d="M25.9131 3.39148C25.1482 2.32849 24.4883 2 24.0001 2C23.5118 2 22.8519 2.32849 22.087 3.39148C21.3392 4.43091 20.6243 5.99939 20.0069 8.02771C19.5158 9.64165 19.0968 11.5109 18.771 13.5739C18.7323 13.8186 18.522 14 18.2742 14C17.9688 14 17.7345 13.7277 17.7822 13.426C18.9474 6.04382 21.2945 1 24.0001 1C26.4527 1 28.6111 5.14509 29.8611 11.4195C29.9223 11.7269 29.6857 12.0117 29.3722 12.0117C29.1317 12.0117 28.9253 11.8406 28.8783 11.6047C28.62 10.3097 28.323 9.11122 27.9932 8.02771C27.3758 5.99939 26.6609 4.43091 25.9131 3.39148ZM18.1258 33C17.8238 33 17.5906 33.2667 17.6323 33.5658C18.7372 41.4931 21.1728 47 24.0001 47C26.8258 47 29.2606 41.4986 30.3663 33.5776C30.408 33.2785 30.1748 33.0117 29.8727 33.0117C29.6216 33.0117 29.4096 33.198 29.3748 33.4467C29.0322 35.8996 28.5609 38.1066 27.9932 39.9723C27.3758 42.0006 26.6609 43.5691 25.9131 44.6085C25.1482 45.6715 24.4883 46 24.0001 46C23.5118 46 22.8519 45.6715 22.087 44.6085C21.3392 43.5691 20.6243 42.0006 20.0069 39.9723C19.4382 38.1036 18.9667 35.8927 18.6238 33.4351C18.5891 33.1863 18.377 33 18.1258 33Z" fill="white"/>
<path fill-rule="evenodd" clip-rule="evenodd" d="M38 19.0781C38 19.31 38.1591 19.5113 38.384 19.5677C38.9372 19.7067 39.4673 19.8533 39.9724 20.007C42.0005 20.6243 43.5691 21.3392 44.6084 22.0871C45.6714 22.8519 46 23.5118 46 24.0001C46 24.4883 45.6714 25.1483 44.6084 25.913C43.5691 26.661 42.0005 27.3758 39.9724 27.9931C35.9282 29.2239 30.281 30.0001 24 30.0001C17.7192 30.0001 12.0718 29.2239 8.02783 27.9931C5.99951 27.3758 4.43091 26.661 3.3916 25.913C2.32861 25.1483 2 24.4883 2 24.0001C2 23.5118 2.32861 22.852 3.3916 22.0871C4.43091 21.3392 5.99951 20.6243 8.02783 20.007C8.22461 19.9471 8.42522 19.8883 8.62953 19.8306C8.84779 19.7689 9 19.5707 9 19.3439C9 19.015 8.68781 18.7751 8.37125 18.8644C3.83768 20.1429 1 21.9706 1 24.0001C1 27.866 11.2976 31.0001 24 31.0001C36.7026 31.0001 47 27.866 47 24.0001C47 21.8234 43.7357 19.8787 38.6154 18.5948C38.302 18.5162 38 18.755 38 19.0781Z" fill="white"/>
<path d="M16.88 25.144C16.256 25.144 15.736 25.04 15.32 24.832C14.904 24.624 14.56 24.368 14.288 24.064L14.948 23.176C15.18 23.408 15.444 23.608 15.74 23.776C16.036 23.936 16.376 24.016 16.76 24.016C17.176 24.016 17.512 23.916 17.768 23.716C18.032 23.508 18.164 23.224 18.164 22.864C18.164 22.664 18.128 22.484 18.056 22.324C17.984 22.164 17.86 22.028 17.684 21.916C17.516 21.804 17.288 21.72 17 21.664C16.712 21.6 16.352 21.568 15.92 21.568V20.56C16.296 20.56 16.608 20.532 16.856 20.476C17.112 20.412 17.316 20.328 17.468 20.224C17.628 20.112 17.74 19.98 17.804 19.828C17.876 19.676 17.912 19.512 17.912 19.336C17.912 19.016 17.812 18.768 17.612 18.592C17.412 18.408 17.136 18.316 16.784 18.316C16.48 18.316 16.204 18.384 15.956 18.52C15.716 18.648 15.48 18.82 15.248 19.036L14.54 18.184C14.868 17.896 15.216 17.664 15.584 17.488C15.96 17.312 16.376 17.224 16.832 17.224C17.2 17.224 17.536 17.268 17.84 17.356C18.144 17.444 18.404 17.576 18.62 17.752C18.836 17.92 19.004 18.132 19.124 18.388C19.244 18.636 19.304 18.92 19.304 19.24C19.304 19.672 19.184 20.032 18.944 20.32C18.712 20.608 18.388 20.832 17.972 20.992V21.04C18.428 21.16 18.804 21.38 19.1 21.7C19.404 22.02 19.556 22.432 19.556 22.936C19.556 23.288 19.484 23.6 19.34 23.872C19.204 24.144 19.012 24.376 18.764 24.568C18.524 24.752 18.24 24.896 17.912 25C17.592 25.096 17.248 25.144 16.88 25.144ZM23.4523 25.144C23.0763 25.144 22.7203 25.072 22.3843 24.928C22.0483 24.776 21.7523 24.548 21.4963 24.244C21.2483 23.94 21.0483 23.552 20.8963 23.08C20.7523 22.608 20.6803 22.052 20.6803 21.412C20.6803 20.668 20.7643 20.032 20.9323 19.504C21.1003 18.976 21.3203 18.544 21.5923 18.208C21.8723 17.872 22.1923 17.624 22.5523 17.464C22.9123 17.304 23.2883 17.224 23.6803 17.224C24.1443 17.224 24.5403 17.308 24.8683 17.476C25.2043 17.644 25.4883 17.848 25.7203 18.088L24.9763 18.928C24.8403 18.76 24.6603 18.624 24.4363 18.52C24.2203 18.408 23.9963 18.352 23.7643 18.352C23.5243 18.352 23.2963 18.4 23.0803 18.496C22.8723 18.592 22.6883 18.752 22.5283 18.976C22.3683 19.192 22.2363 19.48 22.1323 19.84C22.0363 20.2 21.9803 20.644 21.9643 21.172C22.1883 20.892 22.4483 20.672 22.7443 20.512C23.0483 20.352 23.3403 20.272 23.6203 20.272C23.9483 20.272 24.2483 20.32 24.5203 20.416C24.8003 20.512 25.0363 20.66 25.2283 20.86C25.4283 21.052 25.5803 21.296 25.6843 21.592C25.7963 21.888 25.8523 22.236 25.8523 22.636C25.8523 23.02 25.7883 23.368 25.6603 23.68C25.5323 23.984 25.3603 24.244 25.1443 24.46C24.9283 24.676 24.6723 24.844 24.3763 24.964C24.0883 25.084 23.7803 25.144 23.4523 25.144ZM23.4283 24.088C23.7483 24.088 24.0163 23.964 24.2323 23.716C24.4563 23.468 24.5683 23.108 24.5683 22.636C24.5683 22.18 24.4643 21.84 24.2563 21.616C24.0483 21.392 23.7523 21.28 23.3683 21.28C23.1523 21.28 22.9243 21.348 22.6843 21.484C22.4443 21.612 22.2163 21.836 22.0003 22.156C22.0723 22.836 22.2323 23.328 22.4803 23.632C22.7363 23.936 23.0523 24.088 23.4283 24.088ZM29.3767 25.144C28.5767 25.144 27.9447 24.804 27.4807 24.124C27.0167 23.436 26.7847 22.444 26.7847 21.148C26.7847 19.852 27.0167 18.876 27.4807 18.22C27.9447 17.556 28.5767 17.224 29.3767 17.224C30.1767 17.224 30.8087 17.556 31.2727 18.22C31.7367 18.884 31.9687 19.86 31.9687 21.148C31.9687 22.444 31.7367 23.436 31.2727 24.124C30.8087 24.804 30.1767 25.144 29.3767 25.144ZM29.3767 24.064C29.5607 24.064 29.7287 24.016 29.8807 23.92C30.0407 23.816 30.1767 23.648 30.2887 23.416C30.4007 23.184 30.4887 22.884 30.5527 22.516C30.6167 22.148 30.6487 21.692 30.6487 21.148C30.6487 20.612 30.6167 20.164 30.5527 19.804C30.4887 19.436 30.4007 19.14 30.2887 18.916C30.1767 18.692 30.0407 18.536 29.8807 18.448C29.7287 18.352 29.5607 18.304 29.3767 18.304C29.1927 18.304 29.0207 18.352 28.8607 18.448C28.7087 18.536 28.5767 18.692 28.4647 18.916C28.3527 19.14 28.2647 19.436 28.2007 19.804C28.1367 20.164 28.1047 20.612 28.1047 21.148C28.1047 21.692 28.1367 22.148 28.2007 22.516C28.2647 22.884 28.3527 23.184 28.4647 23.416C28.5767 23.648 28.7087 23.816 28.8607 23.92C29.0207 24.016 29.1927 24.064 29.3767 24.064ZM34.557 20.044C34.333 20.044 34.121 20.004 33.921 19.924C33.729 19.844 33.557 19.732 33.405 19.588C33.261 19.444 33.145 19.272 33.057 19.072C32.977 18.872 32.937 18.652 32.937 18.412C32.937 18.172 32.977 17.952 33.057 17.752C33.145 17.552 33.261 17.38 33.405 17.236C33.557 17.092 33.729 16.98 33.921 16.9C34.121 16.82 34.333 16.78 34.557 16.78C34.781 16.78 34.989 16.82 35.181 16.9C35.381 16.98 35.553 17.092 35.697 17.236C35.849 17.38 35.965 17.552 36.045 17.752C36.133 17.952 36.177 18.172 36.177 18.412C36.177 18.652 36.133 18.872 36.045 19.072C35.965 19.272 35.849 19.444 35.697 19.588C35.553 19.732 35.381 19.844 35.181 19.924C34.989 20.004 34.781 20.044 34.557 20.044ZM34.557 19.336C34.813 19.336 35.017 19.252 35.169 19.084C35.329 18.908 35.409 18.684 35.409 18.412C35.409 18.132 35.329 17.908 35.169 17.74C35.017 17.564 34.813 17.476 34.557 17.476C34.301 17.476 34.093 17.564 33.933 17.74C33.781 17.908 33.705 18.132 33.705 18.412C33.705 18.684 33.781 18.908 33.933 19.084C34.093 19.252 34.301 19.336 34.557 19.336Z" fill="white"/>
<path d="M29 13.5L30.5 10.5H27.5L29 13.5Z" fill="white"/>
<path d="M30.5 10.5L30.9472 10.7236C31.0247 10.5686 31.0164 10.3845 30.9253 10.2371C30.8342 10.0897 30.6733 10 30.5 10V10.5ZM29 13.5L28.5528 13.7236C28.6375 13.893 28.8106 14 29 14C29.1894 14 29.3625 13.893 29.4472 13.7236L29 13.5ZM27.5 10.5V10C27.3267 10 27.1658 10.0897 27.0747 10.2371C26.9836 10.3845 26.9753 10.5686 27.0528 10.7236L27.5 10.5ZM30.0528 10.2764L28.5528 13.2764L29.4472 13.7236L30.9472 10.7236L30.0528 10.2764ZM29.4472 13.2764L27.9472 10.2764L27.0528 10.7236L28.5528 13.7236L29.4472 13.2764ZM30.5 10H27.5V11H30.5V10Z" fill="white"/>
<path d="M12 19.5L9 18L9 21L12 19.5Z" fill="white"/>
<path d="M9 18L9.22361 17.5528C9.06861 17.4753 8.88454 17.4836 8.73713 17.5747C8.58973 17.6658 8.5 17.8267 8.5 18L9 18ZM12 19.5L12.2236 19.9472C12.393 19.8625 12.5 19.6894 12.5 19.5C12.5 19.3106 12.393 19.1375 12.2236 19.0528L12 19.5ZM9 21L8.5 21C8.5 21.1733 8.58973 21.3342 8.73713 21.4253C8.88454 21.5164 9.06861 21.5247 9.22361 21.4472L9 21ZM8.77639 18.4472L11.7764 19.9472L12.2236 19.0528L9.22361 17.5528L8.77639 18.4472ZM11.7764 19.0528L8.77639 20.5528L9.22361 21.4472L12.2236 19.9472L11.7764 19.0528ZM8.5 18L8.5 21L9.5 21L9.5 18L8.5 18Z" fill="white"/>
</svg>
