<svg viewBox="0 0 48 48" fill="none" xmlns="http://www.w3.org/2000/svg">
<mask id="path-1-inside-1" fill="white">
<path d="M8.9999 22.8996C3.94109 24.1836 0.721924 26.1163 0.721924 28.2779C0.721924 31.854 9.53301 34.8038 20.9084 35.2261L20.9084 32.2239C11.1948 31.8479 3.72181 29.5529 3.72181 26.7779C3.72181 25.342 5.72284 24.0346 8.9999 23.055V22.8996Z"/>
<path d="M36.9999 22.6648V22.5615C42.8822 23.8294 46.7218 25.9172 46.7218 28.2779C46.7218 31.9214 37.5756 34.9147 25.8898 35.2472L28.0227 33.8253L25.6632 32.2523C35.7979 31.9839 43.7218 29.6354 43.7218 26.7779C43.7218 25.1417 41.1236 23.6723 36.9999 22.6648Z"/>
<path d="M25.0227 33.8252L17.9084 29.0824L17.9084 38.5681L25.0227 33.8252Z"/>
</mask>
<path d="M8.9999 22.8996C3.94109 24.1836 0.721924 26.1163 0.721924 28.2779C0.721924 31.854 9.53301 34.8038 20.9084 35.2261L20.9084 32.2239C11.1948 31.8479 3.72181 29.5529 3.72181 26.7779C3.72181 25.342 5.72284 24.0346 8.9999 23.055V22.8996Z" fill="white"/>
<path d="M36.9999 22.6648V22.5615C42.8822 23.8294 46.7218 25.9172 46.7218 28.2779C46.7218 31.9214 37.5756 34.9147 25.8898 35.2472L28.0227 33.8253L25.6632 32.2523C35.7979 31.9839 43.7218 29.6354 43.7218 26.7779C43.7218 25.1417 41.1236 23.6723 36.9999 22.6648Z" fill="white"/>
<path d="M25.0227 33.8252L17.9084 29.0824L17.9084 38.5681L25.0227 33.8252Z" fill="white"/>
<path d="M0.721924 28.2779L-0.278076 28.2779L0.721924 28.2779ZM8.9999 22.8996H9.9999V21.614L8.75387 21.9303L8.9999 22.8996ZM20.9084 35.2261L20.8713 36.2254L21.9084 36.2639L21.9084 35.2261L20.9084 35.2261ZM20.9084 32.2239L21.9084 32.2239L21.9084 31.2619L20.9471 31.2247L20.9084 32.2239ZM3.72181 26.7779L2.72181 26.7779L3.72181 26.7779ZM8.9999 23.055L9.28628 24.0132L9.9999 23.7999V23.055H8.9999ZM36.9999 22.5615L37.2106 21.584L35.9999 21.323V22.5615H36.9999ZM36.9999 22.6648H35.9999V23.4499L36.7626 23.6363L36.9999 22.6648ZM46.7218 28.2779L45.7218 28.2779L46.7218 28.2779ZM25.8898 35.2472L25.3351 34.4152L22.4392 36.3458L25.9182 36.2468L25.8898 35.2472ZM28.0227 33.8253L28.5774 34.6574L29.8254 33.8253L28.5774 32.9933L28.0227 33.8253ZM25.6632 32.2523L25.6367 31.2527L22.4861 31.3361L25.1085 33.0844L25.6632 32.2523ZM43.7218 26.7779L42.7218 26.7779L42.7218 26.7779L43.7218 26.7779ZM17.9084 29.0824L18.4631 28.2503C18.1562 28.0457 17.7617 28.0267 17.4365 28.2007C17.1114 28.3747 16.9084 28.7136 16.9084 29.0824L17.9084 29.0824ZM25.0227 33.8252L25.5774 34.6573C25.8556 34.4718 26.0227 34.1596 26.0227 33.8252C26.0227 33.4909 25.8556 33.1786 25.5774 32.9932L25.0227 33.8252ZM17.9084 38.5681L16.9084 38.5681C16.9084 38.9369 17.1114 39.2757 17.4365 39.4498C17.7617 39.6238 18.1562 39.6047 18.4631 39.4001L17.9084 38.5681ZM1.72192 28.2779C1.72192 27.7285 2.14396 26.9661 3.50046 26.1035C4.81223 25.2693 6.76814 24.4978 9.24592 23.8688L8.75387 21.9303C6.17284 22.5854 3.98977 23.4222 2.42726 24.4158C0.909472 25.381 -0.278076 26.6658 -0.278076 28.2779L1.72192 28.2779ZM20.9455 34.2268C15.322 34.018 10.378 33.1849 6.87243 31.9883C5.11422 31.3882 3.77372 30.7153 2.89293 30.0255C1.99914 29.3256 1.72192 28.7287 1.72192 28.2779L-0.278076 28.2779C-0.278076 29.6151 0.546095 30.728 1.65986 31.6002C2.78663 32.4825 4.35987 33.244 6.22635 33.8811C9.97019 35.159 15.1194 36.0119 20.8713 36.2254L20.9455 34.2268ZM19.9084 32.2239L19.9084 35.2261L21.9084 35.2261L21.9084 32.2239L19.9084 32.2239ZM2.72181 26.7779C2.72181 27.9545 3.50992 28.8791 4.45847 29.5593C5.43274 30.258 6.783 30.8555 8.37301 31.3546C11.5658 32.3569 15.9562 33.0329 20.8697 33.2232L20.9471 31.2247C16.147 31.0388 11.9441 30.3794 8.97201 29.4464C7.47958 28.9779 6.35449 28.4579 5.62401 27.934C4.86782 27.3917 4.72181 26.9888 4.72181 26.7779L2.72181 26.7779ZM8.71352 22.0969C7.02686 22.6011 5.59544 23.2095 4.56344 23.9226C3.56312 24.6139 2.72181 25.5611 2.72181 26.7779L4.72181 26.7779C4.72181 26.5588 4.88102 26.1343 5.70047 25.568C6.48825 25.0236 7.69588 24.4885 9.28628 24.0132L8.71352 22.0969ZM9.9999 23.055V22.8996H7.9999V23.055H9.9999ZM35.9999 22.5615V22.6648H37.9999V22.5615H35.9999ZM47.7218 28.2779C47.7218 26.5222 46.319 25.1523 44.5655 24.1432C42.7451 23.0956 40.2032 22.229 37.2106 21.584L36.7892 23.5391C39.6789 24.1619 41.9979 24.9732 43.5679 25.8767C45.2048 26.8186 45.7218 27.6729 45.7218 28.2779L47.7218 28.2779ZM25.9182 36.2468C31.8267 36.0787 37.1372 35.238 41.0034 33.9532C42.9308 33.3126 44.5555 32.5434 45.719 31.6505C46.8672 30.7693 47.7218 29.6402 47.7218 28.2779L45.7218 28.2779C45.7218 28.7374 45.4332 29.3487 44.5013 30.0639C43.5847 30.7674 42.1925 31.4504 40.3726 32.0552C36.7442 33.261 31.6388 34.0832 25.8614 34.2476L25.9182 36.2468ZM27.468 32.9933L25.3351 34.4152L26.4445 36.0793L28.5774 34.6574L27.468 32.9933ZM25.1085 33.0844L27.468 34.6574L28.5774 32.9933L26.2179 31.4203L25.1085 33.0844ZM42.7218 26.7779C42.7218 26.9958 42.5646 27.4171 41.7547 27.9798C40.9756 28.5212 39.7804 29.054 38.2047 29.5285C35.0666 30.4733 30.6455 31.12 25.6367 31.2527L25.6897 33.252C30.8156 33.1162 35.4238 32.4544 38.7813 31.4435C40.4535 30.9401 41.8727 30.3333 42.896 29.6222C43.8885 28.9326 44.7218 27.9888 44.7218 26.7779L42.7218 26.7779ZM36.7626 23.6363C38.7781 24.1287 40.3501 24.7186 41.3934 25.3435C42.4976 26.0048 42.7218 26.522 42.7218 26.7779L44.7218 26.7779C44.7218 25.3976 43.6469 24.3619 42.4211 23.6277C41.1344 22.857 39.3454 22.2085 37.2372 21.6934L36.7626 23.6363ZM17.3537 29.9144L24.468 34.6573L25.5774 32.9932L18.4631 28.2503L17.3537 29.9144ZM24.468 32.9932L17.3537 37.736L18.4631 39.4001L25.5774 34.6573L24.468 32.9932ZM16.9084 29.0824L16.9084 38.5681L18.9084 38.5681L18.9084 29.0824L16.9084 29.0824Z" fill="white" mask="url(#path-1-inside-1)"/>
<path d="M13.9404 17.2458H15.1445C15.6016 17.2458 15.9355 17.0876 16.1465 16.7712C16.3633 16.449 16.4717 16.0212 16.4717 15.488C16.4717 14.9783 16.3604 14.5828 16.1377 14.3015C15.9209 14.0144 15.6279 13.8708 15.2588 13.8708C14.9131 13.8708 14.6289 14.0056 14.4062 14.2751C14.1895 14.5447 14.0811 14.8845 14.0811 15.2947H11.5938C11.5938 14.6267 11.7461 14.0291 12.0508 13.5017C12.3613 12.9685 12.792 12.5525 13.3428 12.2537C13.8994 11.9548 14.5146 11.8054 15.1885 11.8054C16.3662 11.8054 17.2891 12.1306 17.957 12.781C18.625 13.4314 18.959 14.322 18.959 15.4529C18.959 16.033 18.8066 16.572 18.502 17.0701C18.2031 17.5623 17.8076 17.9402 17.3154 18.2039C17.9189 18.4617 18.3672 18.8484 18.6602 19.364C18.959 19.8796 19.1084 20.489 19.1084 21.1921C19.1084 22.3289 18.7451 23.24 18.0186 23.9255C17.2979 24.6111 16.3486 24.9539 15.1709 24.9539C14.0752 24.9539 13.1846 24.6169 12.499 23.9431C11.8193 23.2634 11.4795 22.3728 11.4795 21.2712H13.9668C13.9668 21.7283 14.0869 22.1121 14.3271 22.4226C14.5674 22.7332 14.8721 22.8884 15.2412 22.8884C15.6689 22.8884 16.0059 22.7302 16.252 22.4138C16.5039 22.0974 16.6299 21.6755 16.6299 21.1482C16.6299 19.8884 16.1406 19.2556 15.1621 19.2498H13.9404V17.2458Z" fill="white"/>
<path d="M26.0437 11.8494V13.9587H25.903C24.9714 13.9646 24.2302 14.2458 23.6794 14.8025C23.1345 15.3533 22.8034 16.1267 22.6862 17.1228C23.2195 16.5134 23.8874 16.2087 24.6902 16.2087C25.6159 16.2087 26.3542 16.6042 26.905 17.3953C27.4616 18.1863 27.74 19.241 27.74 20.5593C27.74 21.3972 27.5818 22.1531 27.2654 22.8269C26.9489 23.5007 26.5036 24.0251 25.9294 24.4001C25.3611 24.7693 24.7165 24.9539 23.9958 24.9539C22.8357 24.9539 21.904 24.488 21.2009 23.5564C20.5036 22.6248 20.155 21.3708 20.155 19.7947V18.8718C20.155 17.4597 20.3747 16.2234 20.8142 15.1628C21.2595 14.1023 21.8982 13.2878 22.7302 12.7195C23.5681 12.1453 24.5437 11.8552 25.657 11.8494H26.0437ZM23.9079 18.2654C23.5915 18.2654 23.3249 18.365 23.1081 18.5642C22.8972 18.7634 22.739 19.0095 22.6335 19.3025V20.199C22.6335 21.1013 22.7536 21.7751 22.9939 22.2205C23.2341 22.6658 23.5505 22.8884 23.9431 22.8884C24.3415 22.8884 24.6609 22.6746 24.9011 22.2468C25.1413 21.8132 25.2614 21.2595 25.2614 20.5857C25.2614 19.9001 25.1355 19.3435 24.8835 18.9158C24.6374 18.4822 24.3122 18.2654 23.9079 18.2654Z" fill="white"/>
<path d="M35.9321 19.4871C35.9321 21.2566 35.6098 22.6101 34.9653 23.5476C34.3266 24.4851 33.4125 24.9539 32.2231 24.9539C31.0454 24.9539 30.1342 24.4998 29.4897 23.5916C28.851 22.6775 28.52 21.3708 28.4965 19.6716V17.2546C28.4965 15.491 28.8159 14.1433 29.4545 13.2117C30.0932 12.2742 31.0102 11.8054 32.2055 11.8054C33.4008 11.8054 34.3178 12.2683 34.9565 13.1941C35.5952 14.1199 35.9204 15.4412 35.9321 17.158V19.4871ZM33.436 16.8943C33.436 15.8865 33.3364 15.1306 33.1371 14.6267C32.9379 14.1228 32.6274 13.8708 32.2055 13.8708C31.4145 13.8708 31.0043 14.7937 30.975 16.6394V19.8298C30.975 20.8611 31.0746 21.6287 31.2739 22.1326C31.4789 22.6365 31.7954 22.8884 32.2231 22.8884C32.6274 22.8884 32.9262 22.6541 33.1196 22.1853C33.3188 21.7107 33.4243 20.9871 33.436 20.0144V16.8943Z" fill="white"/>
<path d="M37.1545 14.2312C37.1545 13.5574 37.3918 12.9861 37.8664 12.5173C38.3468 12.0427 38.9093 11.8054 39.5539 11.8054C40.1925 11.8054 40.7433 12.0427 41.2062 12.5173C41.675 12.9861 41.9093 13.5574 41.9093 14.2312C41.9093 14.9109 41.675 15.4822 41.2062 15.9451C40.7433 16.4021 40.1925 16.6306 39.5539 16.6306C38.9152 16.6306 38.3556 16.4021 37.8752 15.9451C37.3947 15.4822 37.1545 14.9109 37.1545 14.2312ZM39.5539 15.321C39.8644 15.321 40.1193 15.2156 40.3185 15.0046C40.5177 14.7937 40.6173 14.5359 40.6173 14.2312C40.6173 13.9265 40.5177 13.6628 40.3185 13.4402C40.1193 13.2175 39.8644 13.1062 39.5539 13.1062C39.2433 13.1062 38.9796 13.2175 38.7629 13.4402C38.5519 13.657 38.4464 13.9207 38.4464 14.2312C38.4464 14.5417 38.5548 14.8025 38.7716 15.0134C38.9943 15.2185 39.255 15.321 39.5539 15.321Z" fill="white"/>
</svg>
