<svg viewBox="0 0 48 48" fill="none" xmlns="http://www.w3.org/2000/svg"><path d="M46.9499 27.5454c-.0588.27-.1248.5388-.1979.8063l.117.0219c.0513-.2744.0979-.5505.1397-.8282h-.0588zM46.4677 29.2836c-.1031.3059-.2152.6098-.336.9116l.2985.082c.0861-.3131.1658-.6289.2392-.9471l-.2017-.0465zM45.748 31.0842c-.1346.2906-.2771.5789-.4272.8646l.514.1885c.1118-.3051.2176-.613.3171-.9238l-.4039-.1293zM44.8537 32.7883c-.1607.2736-.3284.5446-.5027.8128l.7352.3414c.137-.295.2681-.5933.3931-.8948l-.6256-.2594zM43.816 34.3865c-.1821.2555-.3703.5082-.5641.7578l.9388.5345c.1609-.2827.3162-.569.4657-.8588l-.8404-.4335zM42.6616 35.8744c-.1997.2374-.4045.4717-.6142.7027l1.1073.7579c.1838-.2685.3622-.541.5351-.8174l-1.0282-.6432zM41.4117 37.2524c-.2142.2195-.4328.4357-.6556.6484l1.2295.9996c.2054-.2526.4057-.5096.6007-.7707l-1.1746-.8773zM40.0826 38.5224a27.2831 27.2831 0 01-.69.5951l1.2992 1.2469c.2255-.2349.4462-.4746.6619-.7187l-1.2711-1.1233zM38.6872 39.6865a28.2836 28.2836 0 01-.7197.5431l1.3147 1.4876c.2441-.2157.4837-.4364.7187-.6619l-1.3137-1.3688zM37.2343 40.747c-.2461.1678-.4948.3318-.746.4918l1.2779 1.711c.2611-.195.5181-.3953.7707-.6007l-1.3026-1.6021zM35.7303 41.705c-.2544.1509-.511.2978-.7696.4405l1.1934 1.9078c.2764-.1729.5489-.3513.8174-.5351l-1.2412-1.8132zM34.1799 42.5602c-.2622.134-.5261.2636-.7917.3887l1.0682 2.0711c.2899-.1495.5762-.3048.8589-.4658l-1.1354-1.994zM32.586 43.3111a26.4629 26.4629 0 01-.8127.3352l.9109 2.1965c.3014-.125.5997-.2561.8947-.393l-.9929-2.1387zM30.9507 43.9537a25.1073 25.1073 0 01-.8316.2785l.7308 2.2832c.3108-.0995.6188-.2052.9239-.3171l-.8231-2.2446zM29.2782 44.481c-.2827.0781-.566.1508-.8496.2179l.5379 2.334c.3183-.0733.634-.1531.9472-.2392l-.6355-2.3127zM27.5708 44.8844c-.2885.0566-.5771.1072-.8654.1517l.3403 2.3562c.3236-.0468.6451-.1001.9643-.1598l-.4392-2.3481zM25.8335 45.152c-.2924.0326-.5844.0587-.8756.0782l.1445 2.3614c.3262-.0199.6505-.0465.973-.0796l-.2419-2.36zM23.6989 45.2727c-.1686 0-.3368-.002-.5045-.0061l-.0481 2.3647c.163.0034.3264.005.4902.005s.3272-.0016.4902-.005l-.048-2.3625a18.526 18.526 0 01-.3798.0039zM22.3154 45.2261a20.16403 20.16403 0 01-.8754-.0782l-.2423 2.3641c.3224.0331.6468.0597.9729.0796l.1448-2.3655zM20.5683 45.0318a20.15075 20.15075 0 01-.8648-.1539l-.4405 2.3546c.3192.0597.6407.113.9643.1598l.341-2.3605zM18.8472 44.6867a20.05999 20.05999 0 01-.8462-.2282l-.6416 2.3352c.3131.0861.6289.1659.9471.2392l.5407-2.3462zM17.1663 44.1937a19.9122 19.9122 0 01-.8217-.3007l-.8453 2.3053c.305.1119.613.2176.9238.3171l.7432-2.3217zM15.5368 43.5567c-.2669-.118-.5309-.2417-.7916-.3708l-1.0511 2.2639c.295.1369.5933.268.8947.393l.948-2.2861zM13.9712 42.7815a20.37327 20.37327 0 01-.7551-.4372l-1.2584 2.2099c.2827.161.5691.3163.8589.4658l1.1546-2.2385zM12.4814 41.8752a20.13937 20.13937 0 01-.7131-.4997l-1.4668 2.1427c.2686.1838.5411.3622.8174.5351l1.3625-2.1781zM11.0781 40.846a20.08335 20.08335 0 01-.6662-.558l-1.67577 2.0611c.25264.2054.5096.4057.77072.6007l1.57125-2.1038zM9.77114 39.7027a20.17008 20.17008 0 01-.61422-.6112l-1.88478 1.9638c.23496.2255.47458.4462.71868.6619l1.78032-2.0145zM8.57031 38.4555a20.1871 20.1871 0 01-.55797-.6595l-2.09301 1.8497c.21573.2442.43642.4838.66193.7187l1.98905-1.9089zM7.48396 37.1146a20.14707 20.14707 0 01-.49787-.7021l-2.29934 1.7172c.19502.2611.39531.5181.60072.7707l2.19649-1.7858zM6.51966 35.6913a20.07246 20.07246 0 01-.43425-.7388l-2.50215 1.5651c.17287.2764.35129.5489.53511.8174l2.40129-1.6437zM5.68399 34.1974a19.98756 19.98756 0 01-.36797-.7698L2.6166 34.82c.14949.2898.3048.5761.46577.8588l2.60162-1.4814zM4.98201 32.6446a19.92447 19.92447 0 01-.29962-.7947l-2.88861 1.1978c.125.3015.25606.5998.39303.8948l2.7952-1.2979zM4.41752 31.0448a19.86267 19.86267 0 01-.22968-.813l-3.06666.9817c.09948.3108.20522.6187.31708.9238l2.97926-1.0925zM3.99329 29.4116a19.98498 19.98498 0 01-.15938-.826l-3.23024.7445c.07334.3182.1531.6339.23916.9471l3.15046-.8656zM3.70966 27.7551a20.0642 20.0642 0 01-.08926-.8336l-3.3761.4878c.04674.3236.10005.645.15977.9643l3.30559-.6185zM3.56595 26.0861a20.34674 20.34674 0 01-.01993-.8344l-3.50106.2142c.01996.3262.04653.6505.07958.973l3.44141-.3528zM3.5602 24.4179c.01049-.2797.02672-.558.04858-.8348l-3.60355-.0733a24.09762 24.09762 0 000 .9805l3.55497-.0724zM3.69116 22.7573c.03314-.2746.07183-.5475.11596-.8186l-3.68258-.3775a23.77716 23.77716 0 00-.07958.973l3.6462.2231zM3.95653 21.1271c.05536-.2693.11612-.5366.18217-.8019l-3.73463-.6987a23.56169 23.56169 0 00-.15977.9643l3.71223.5363zM4.35309 19.5342c.07683-.262.15886-.5218.24599-.7792L.84283 17.7229a23.4449 23.4449 0 00-.23916.9471l3.74942.8642zM4.87608 17.9886c.09748-.2533.19996-.5042.30732-.7525l-3.74514-1.3733c-.11185.3051-.2176.613-.31708.9238l3.7549 1.202zM36.9715 4.48189l-2.2594 3.30075a19.68962 19.68962 0 00-.6793-.44468l2.1213-3.39117c.2764.17286.5489.35128.8174.5351zM35.3153 3.4459L33.336 6.92187a19.61646 19.61646 0 00-.7132-.38676l1.8336-3.55498c.2899.14949.5762.30479.8589.46577zM33.5789 2.55033l-1.6845 3.62801a19.48317 19.48317 0 00-.7424-.32613l1.5322-3.69491c.3014.12501.5997.25607.8947.39303zM31.7738 1.80178l-1.3771 3.75549a19.42886 19.42886 0 00-.7663-.263l1.2195-3.80957c.3108.09949.6188.20523.9239.31708zM29.9137 1.20635L28.8539 5.0634a19.4973 19.4973 0 00-.7857-.19839l.8983-3.89782c.3183.07335.634.15311.9472.23916zM28.01.7676l-.7355 3.93178a19.57762 19.57762 0 00-.8007-.13266l.5719-3.9589c.3236.04675.6451.10005.9643.15977zM26.0754.48806l-.4079 3.97915a19.80531 19.80531 0 00-.8094-.06619l.2443-3.99254c.3262.01996.6505.04653.973.07958zM24.1267.36875l-.0813 3.99917a20.1375 20.1375 0 00-.8177 0L23.1463.36875a24.10045 24.10045 0 01.9804 0zM22.1706.40848l.2443 3.99254a19.76814 19.76814 0 00-.8093.06619L21.1977.48806c.3224-.03305.6468-.05962.9729-.07958zM20.2273.60782l.5719 3.9589a19.54431 19.54431 0 00-.8006.13266L19.263.76759c.3192-.05972.6407-.11302.9643-.15977zM18.3065.9672l.8984 3.89781c-.2641.06085-.526.12702-.7857.19839l-1.0598-3.85705c.3131-.08605.6289-.16582.9471-.23916zM16.4231 1.4847l1.2195 3.80957a19.46862 19.46862 0 00-.7663.263l-1.377-3.75549c.305-.11185.613-.21759.9238-.31708zM14.5888 2.1573l1.5323 3.69491a19.48765 19.48765 0 00-.7425.32613l-1.6845-3.62801c.295-.13696.5933-.26802.8947-.39303zM12.8166 2.98013l1.8336 3.55498a19.61646 19.61646 0 00-.7132.38676L11.9577 3.4459c.2827-.16097.5691-.31628.8589-.46577zM11.1189 3.94679l2.1213 3.39117c-.2296.14363-.456.2919-.6792.44468L10.3015 4.4819c.2686-.18382.5411-.36224.8174-.53511zM9.50685 5.05028l2.39355 3.20484a19.74175 19.74175 0 00-.6409.4995L8.73613 5.65099a23.7335 23.7335 0 01.77072-.60071zM7.99082 6.28285l2.64888 2.99728a19.6402 19.6402 0 00-.5978.55058L7.27214 6.94478c.23496-.2255.47458-.4462.71868-.66193zM6.58125 7.63566l2.88593 2.76974a19.75958 19.75958 0 00-.55058.5978L5.91933 8.35435a23.78844 23.78844 0 01.66192-.71869zM5.28746 9.09966L8.39109 11.623a19.75572 19.75572 0 00-.4995.6409L4.68675 9.87038a23.7335 23.7335 0 01.60071-.77072zM4.11837 10.6651l3.30074 2.2594a19.67461 19.67461 0 00-.44467.6793l-3.39118-2.1213c.17287-.2764.35129-.5489.53511-.8174zM3.08237 12.3213l3.47598 1.9793c-.1337.2348-.26266.4725-.38677.7131L2.6166 13.1801c.14949-.2898.3048-.5761.46577-.8588zM2.18681 14.0576l3.62801 1.6845a19.55772 19.55772 0 00-.32614.7425l-3.6949-1.5322c.125-.3015.25606-.5998.39303-.8948zM33.2193 11.0382l8.6739.1668-2.5511-8.29198-6.1228 8.12518zM13.2192 23.0493h1.271c.4825 0 .835-.167 1.0577-.501.2288-.3401.3432-.7916.3432-1.3545 0-.538-.1175-.9555-.3525-1.2524-.2289-.3031-.5381-.4546-.9278-.4546-.3649 0-.6648.1423-.8999.4268-.2288.2845-.3432.6432-.3432 1.0761h-2.6255c0-.705.1608-1.3359.4824-1.8925.3278-.5629.7824-1.002 1.3638-1.3174.5875-.3154 1.237-.4732 1.9482-.4732 1.2432 0 2.2173.3433 2.9224 1.0298.7051.6865 1.0576 1.6267 1.0576 2.8203 0 .6123-.1608 1.1814-.4824 1.7071-.3154.5195-.7329.9184-1.2525 1.1967.6371.2722 1.1102.6804 1.4195 1.2247.3154.5442.4731 1.1875.4731 1.9296 0 1.1999-.3834 2.1617-1.1504 2.8853-.7607.7236-1.7627 1.0854-3.0058 1.0854-1.1566 0-2.0967-.3556-2.8203-1.0668-.7175-.7175-1.0762-1.6576-1.0762-2.8204h2.6255c0 .4825.1268.8876.3803 1.2154.2536.3278.5752.4917.9649.4917.4515 0 .8071-.167 1.0669-.501.2659-.334.3989-.7793.3989-1.3359 0-1.3298-.5164-1.9978-1.5493-2.0039h-1.2896v-2.1153zM26.1849 17.353v2.2266h-.1485c-.9834.0062-1.7657.303-2.3471.8906-.5752.5814-.9247 1.3978-1.0484 2.4492.5629-.6432 1.2679-.9648 2.1153-.9648.9772 0 1.7565.4175 2.3379 1.2524.5875.835.8813 1.9483.8813 3.3399 0 .8844-.167 1.6823-.501 2.3935-.334.7113-.804 1.2648-1.4101 1.6607-.6.3896-1.2803.5844-2.041.5844-1.2246 0-2.208-.4917-2.9502-1.4751-.736-.9833-1.104-2.3069-1.104-3.9707v-.9741c0-1.4905.2319-2.7955.6958-3.915.47-1.1195 1.1442-1.9792 2.0224-2.5791.8845-.6061 1.9142-.9123 3.0894-.9185h.4082zm-2.2544 6.7725c-.334 0-.6154.1051-.8442.3154-.2227.2103-.3897.4701-.501.7793v.9463c0 .9525.1268 1.6637.3803 2.1338.2536.47.5876.7051 1.002.7051.4206 0 .7576-.2258 1.0112-.6773.2536-.4577.3804-1.0421.3804-1.7534 0-.7236-.133-1.3112-.3989-1.7627-.2598-.4577-.6031-.6865-1.0298-.6865zM36.8126 25.415c0 1.8679-.3401 3.2966-1.0205 4.2862-.6741.9896-1.639 1.4843-2.8945 1.4843-1.2432 0-2.2049-.4793-2.8853-1.4379-.6741-.9649-1.0236-2.3441-1.0483-4.1377v-2.5513c0-1.8617.3371-3.2842 1.0112-4.2676.6742-.9896 1.6421-1.4844 2.9038-1.4844 1.2618 0 2.2297.4886 2.9039 1.4659.6741.9772 1.0174 2.3719 1.0297 4.184v2.4585zm-2.6347-2.7368c0-1.0638-.1052-1.8616-.3155-2.3935-.2102-.5319-.538-.7979-.9834-.7979-.8349 0-1.2679.9741-1.2988 2.9224v3.3677c0 1.0885.1052 1.8987.3154 2.4306.2165.5319.5505.7979 1.002.7979.4268 0 .7422-.2474.9463-.7422.2103-.501.3216-1.2648.334-2.2915v-3.2935zM38.2929 19.8672c0-.7113.2505-1.3143.7515-1.8091.5072-.501 1.1009-.7515 1.7812-.7515.6742 0 1.2556.2505 1.7442.7515.4948.4948.7422 1.0978.7422 1.8091 0 .7174-.2474 1.3205-.7422 1.8091-.4886.4824-1.07.7236-1.7442.7236-.6741 0-1.2648-.2412-1.7719-.7236-.5072-.4886-.7608-1.0917-.7608-1.8091zm2.5327 1.1504c.3278 0 .5969-.1114.8072-.334.2103-.2227.3154-.4948.3154-.8164s-.1051-.5999-.3154-.835c-.2103-.235-.4794-.3525-.8072-.3525-.3278 0-.6061.1175-.8349.3525-.2227.2289-.334.5072-.334.835s.1144.603.3433.8257c.235.2164.5102.3247.8256.3247z" fill="#333"/></svg>