<svg viewBox="0 0 48 48" fill="none" xmlns="http://www.w3.org/2000/svg"><path fill-rule="evenodd" clip-rule="evenodd" d="M34.0134 16.5038l-.1333 10.2732-8.4328 5.6203v-9.8056l8.5661-6.0879zm-9.5661 6.0935v9.7444l-8.9478-6.5948v-9.2728l8.9478 6.1232zm.4946-.8733l-9.0374-6.1845 9.0376-5.79853 8.7022 5.79833-8.7024 6.1847z" fill="#333" fill-opacity=".85"/><path fill-rule="evenodd" clip-rule="evenodd" d="M35.9197 20.3354a10.9838 10.9838 0 01-.1751 1.0318c.2647.1365.5213.2778.7693.4237C39.4346 23.5089 41 25.7377 41 28s-1.5654 4.4911-4.4861 6.2091c-2.0188 1.1875-4.6057 2.075-7.5273 2.5042.009.0943.0134.19.0134.2867 0 .1233-.0076.2449-.022.3643a3.03762 3.03762 0 01-.0686.37C36.4138 36.6954 42 32.7314 42 28c0-3.0774-2.3633-5.8301-6.0803-7.6646z" fill="#333" fill-opacity=".85"/><path d="M14.2554 21.3672a10.9838 10.9838 0 01-.1751-1.0318C10.3633 22.1699 8 24.9226 8 28c0 4.8971 5.984 8.972 13.8854 9.8325l-2.0383 2.0094c-.1967.1939-.1989.5105-.0051.7071.1939.1967.5105.1989.7071.0051l3.052-3.0086a.50023.50023 0 00.149-.3543.50023.50023 0 00-.1464-.3554l-2.993-2.993c-.1953-.1952-.5119-.1952-.7072 0-.1952.1953-.1952.5119 0 .7072l2.3117 2.3116c-3.4139-.3432-6.4376-1.3046-8.7291-2.6525C10.5654 32.4911 9 30.2623 9 28s1.5654-4.4911 4.4861-6.2091c.248-.1459.5046-.2872.7693-.4237z" fill="#333" fill-opacity=".85"/></svg>