<svg width="48" height="48" viewBox="0 0 48 48" fill="none" xmlns="http://www.w3.org/2000/svg">
<path fill-rule="evenodd" clip-rule="evenodd" d="M25.6172 3.21252C24.9116 2.11829 24.3423 1.85144 24.0002 1.85144C23.6582 1.85144 23.0889 2.11829 22.3833 3.21252C21.7065 4.26196 21.0593 5.8468 20.501 7.89453C20.1846 9.05444 19.9016 10.3446 19.6584 11.7427C19.2876 11.874 18.9246 12.0216 18.5701 12.1848C19.6707 5.3988 21.6904 0.85144 24.0002 0.85144C26.3098 0.85144 28.3298 5.39893 29.4304 12.1851C29.0759 12.0219 28.7129 11.8741 28.342 11.7428C28.0989 10.3447 27.8159 9.05444 27.4995 7.89453C26.9412 5.8468 26.2939 4.26196 25.6172 3.21252ZM35.8149 18.5697C35.978 18.9242 36.126 19.2872 36.2573 19.658C37.6555 19.9011 38.9456 20.1842 40.1055 20.5005C42.1533 21.059 43.7383 21.7062 44.7876 22.3829C45.8818 23.0885 46.1487 23.6578 46.1487 23.9999C46.1487 24.342 45.8818 24.9113 44.7876 25.6168C43.7383 26.2936 42.1533 26.9408 40.1055 27.4993C38.9456 27.8156 37.6555 28.0986 36.2573 28.3418C36.126 28.7125 35.9783 29.0754 35.8152 29.4299C42.6013 28.3293 47.1487 26.3094 47.1487 23.9999C47.1487 21.6903 42.6011 19.6703 35.8149 18.5697ZM29.4302 35.8149C29.0757 35.9781 28.7129 36.1259 28.342 36.2572C28.0989 37.6553 27.8159 38.9453 27.4995 40.1052C26.9412 42.1531 26.2939 43.7379 25.6172 44.7874C24.9116 45.8816 24.3423 46.1484 24.0002 46.1484C23.6582 46.1484 23.0889 45.8816 22.3833 44.7874C21.7065 43.7379 21.0593 42.1531 20.501 40.1052C20.1846 38.9454 19.9016 37.6554 19.6584 36.2574C19.2876 36.1261 18.9246 35.9784 18.5701 35.8152C19.6707 42.6012 21.6904 47.1484 24.0002 47.1484C26.3098 47.1484 28.3296 42.6011 29.4302 35.8149ZM12.1848 29.4299C12.0217 29.0754 11.874 28.7124 11.7427 28.3417C10.3447 28.0986 9.05469 27.8156 7.89478 27.4993C5.84717 26.9408 4.26221 26.2936 3.21265 25.6168C2.11841 24.9113 1.85156 24.342 1.85156 23.9999C1.85156 23.6578 2.11841 23.0885 3.21265 22.3829C4.26221 21.7062 5.84717 21.059 7.89478 20.5005C9.05469 20.1842 10.3447 19.9011 11.7427 19.6581C11.874 19.2874 12.022 18.9243 12.1851 18.5698C5.39893 19.6704 0.851562 21.6903 0.851562 23.9999C0.851562 26.3094 5.39868 28.3293 12.1848 29.4299Z" fill="white"/>
<path d="M15.56 26.06L16.77 25.9C16.9367 26.58 17.3133 26.92 17.9 26.92C18.2267 26.92 18.4933 26.8133 18.7 26.6C18.9067 26.3867 19.01 26.1033 19.01 25.75C19.01 25.3567 18.9067 25.0533 18.7 24.84C18.5 24.6267 18.2367 24.52 17.91 24.52C17.6967 24.52 17.4933 24.57 17.3 24.67L16.8 23.97L18.12 22.16H15.89V21H19.9V21.44L18.25 23.67C18.37 23.6567 18.4633 23.65 18.53 23.65C19.0633 23.65 19.4867 23.8433 19.8 24.23C20.1133 24.61 20.27 25.11 20.27 25.73C20.27 26.4433 20.0467 27.0133 19.6 27.44C19.1533 27.8667 18.5867 28.08 17.9 28.08C17.26 28.08 16.7233 27.8933 16.29 27.52C15.8633 27.14 15.62 26.6533 15.56 26.06ZM23.1948 23.52H23.3548C24.0014 23.52 24.5381 23.7333 24.9648 24.16C25.3981 24.58 25.6148 25.1267 25.6148 25.8C25.6148 26.4533 25.3914 26.9967 24.9448 27.43C24.4981 27.8633 23.9414 28.08 23.2748 28.08C22.6148 28.08 22.0581 27.8633 21.6048 27.43C21.1581 26.9967 20.9348 26.4533 20.9348 25.8C20.9348 25.3733 21.0481 24.9633 21.2748 24.57L23.3148 20.92H24.7148L23.1948 23.52ZM22.1948 25.8C22.1948 26.1333 22.2981 26.4033 22.5048 26.61C22.7181 26.8167 22.9748 26.92 23.2748 26.92C23.5814 26.92 23.8381 26.8167 24.0448 26.61C24.2514 26.4033 24.3548 26.1333 24.3548 25.8C24.3548 25.4533 24.2514 25.18 24.0448 24.98C23.8448 24.78 23.5881 24.68 23.2748 24.68C22.9614 24.68 22.7014 24.78 22.4948 24.98C22.2948 25.18 22.1948 25.4533 22.1948 25.8ZM26.9255 21.87C27.3722 21.2367 28.0089 20.92 28.8355 20.92C29.6622 20.92 30.2989 21.2367 30.7455 21.87C31.1922 22.4967 31.4155 23.3733 31.4155 24.5C31.4155 25.6267 31.1922 26.5067 30.7455 27.14C30.2989 27.7667 29.6622 28.08 28.8355 28.08C28.0089 28.08 27.3722 27.7667 26.9255 27.14C26.4789 26.5067 26.2555 25.6267 26.2555 24.5C26.2555 23.3733 26.4789 22.4967 26.9255 21.87ZM30.1755 24.5C30.1755 22.8867 29.7289 22.08 28.8355 22.08C27.9422 22.08 27.4955 22.8867 27.4955 24.5C27.4955 26.1133 27.9422 26.92 28.8355 26.92C29.7289 26.92 30.1755 26.1133 30.1755 24.5ZM32.582 22.94C32.3487 22.7067 32.232 22.4167 32.232 22.07C32.232 21.7233 32.3487 21.4367 32.582 21.21C32.8154 20.9767 33.1054 20.86 33.452 20.86C33.7987 20.86 34.0887 20.9767 34.322 21.21C34.5554 21.4367 34.672 21.7233 34.672 22.07C34.672 22.4167 34.5554 22.7067 34.322 22.94C34.0887 23.1667 33.7987 23.28 33.452 23.28C33.1054 23.28 32.8154 23.1667 32.582 22.94ZM33.162 21.78C33.0954 21.8533 33.062 21.95 33.062 22.07C33.062 22.19 33.0954 22.2867 33.162 22.36C33.2354 22.4333 33.332 22.47 33.452 22.47C33.572 22.47 33.6654 22.4333 33.732 22.36C33.8054 22.2867 33.842 22.19 33.842 22.07C33.842 21.95 33.8054 21.8533 33.732 21.78C33.6654 21.7067 33.572 21.67 33.452 21.67C33.332 21.67 33.2354 21.7067 33.162 21.78Z" fill="white"/>
<path d="M29 13.5L30.5 10.5H27.5L29 13.5Z" fill="white"/>
<path d="M30.5 10.5L30.9472 10.7236C31.0247 10.5686 31.0164 10.3845 30.9253 10.2371C30.8342 10.0897 30.6733 10 30.5 10V10.5ZM29 13.5L28.5528 13.7236C28.6375 13.893 28.8106 14 29 14C29.1894 14 29.3625 13.893 29.4472 13.7236L29 13.5ZM27.5 10.5V10C27.3267 10 27.1658 10.0897 27.0747 10.2371C26.9836 10.3845 26.9753 10.5686 27.0528 10.7236L27.5 10.5ZM30.0528 10.2764L28.5528 13.2764L29.4472 13.7236L30.9472 10.7236L30.0528 10.2764ZM29.4472 13.2764L27.9472 10.2764L27.0528 10.7236L28.5528 13.7236L29.4472 13.2764ZM30.5 10H27.5V11H30.5V10Z" fill="white"/>
<path d="M13 19.5L10 18L10 21L13 19.5Z" fill="white"/>
<path d="M10 18L10.2236 17.5528C10.0686 17.4753 9.88454 17.4836 9.73713 17.5747C9.58973 17.6658 9.5 17.8267 9.5 18L10 18ZM13 19.5L13.2236 19.9472C13.393 19.8625 13.5 19.6894 13.5 19.5C13.5 19.3106 13.393 19.1375 13.2236 19.0528L13 19.5ZM10 21L9.5 21C9.5 21.1733 9.58973 21.3342 9.73713 21.4253C9.88454 21.5164 10.0686 21.5247 10.2236 21.4472L10 21ZM9.77639 18.4472L12.7764 19.9472L13.2236 19.0528L10.2236 17.5528L9.77639 18.4472ZM12.7764 19.0528L9.77639 20.5528L10.2236 21.4472L13.2236 19.9472L12.7764 19.0528ZM9.5 18L9.5 21L10.5 21L10.5 18L9.5 18Z" fill="white"/>
</svg>
