<svg viewBox="0 0 48 48" fill="none" xmlns="http://www.w3.org/2000/svg">
<g clip-path="url(#clip0)">
<mask id="path-1-inside-1" fill="white">
<path d="M0.0200463 23.8833C0.00672533 24.0953 9.35752e-09 24.3083 0 24.5224C-3.4359e-07 32.3828 9.06623 38.8764 20.8169 39.8836L20.8169 33.8471C10.2472 33.1112 1.83233 29.0568 0.0200463 23.8833Z"/>
<path d="M48 25.0703C47.5941 32.6111 38.8417 38.7825 27.5219 39.8543L29.4952 36.9256L26.6707 33.91C36.9067 33.4224 45.311 29.8358 48 25.0703Z"/>
<path d="M25.8742 37.1922L17.1182 31.3548L17.1182 43.0296L25.8742 37.1922Z"/>
</mask>
<path d="M0.0200463 23.8833C0.00672533 24.0953 9.35752e-09 24.3083 0 24.5224C-3.4359e-07 32.3828 9.06623 38.8764 20.8169 39.8836L20.8169 33.8471C10.2472 33.1112 1.83233 29.0568 0.0200463 23.8833Z" fill="white"/>
<path d="M48 25.0703C47.5941 32.6111 38.8417 38.7825 27.5219 39.8543L29.4952 36.9256L26.6707 33.91C36.9067 33.4224 45.311 29.8358 48 25.0703Z" fill="white"/>
<path d="M25.8742 37.1922L17.1182 31.3548L17.1182 43.0296L25.8742 37.1922Z" fill="white"/>
<path d="M0 24.5224L-1 24.5224L0 24.5224ZM0.0200463 23.8833L0.963816 23.5527C0.80653 23.1037 0.35468 22.8277 -0.116614 22.8927C-0.587908 22.9577 -0.948145 23.3458 -0.977985 23.8206L0.0200463 23.8833ZM20.8169 39.8836L20.7315 40.8799C21.0105 40.9038 21.2868 40.8096 21.4931 40.6202C21.6994 40.4309 21.8169 40.1636 21.8169 39.8836L20.8169 39.8836ZM20.8169 33.8471L21.8169 33.8471C21.8169 33.3217 21.4104 32.886 20.8863 32.8495L20.8169 33.8471ZM27.5219 39.8543L26.6925 39.2955C26.4765 39.6162 26.4646 40.0327 26.6622 40.3652C26.8597 40.6976 27.2312 40.8863 27.6161 40.8499L27.5219 39.8543ZM48 25.0703L48.9986 25.1241C49.0235 24.6603 48.7259 24.2404 48.28 24.1103C47.8341 23.9803 47.3574 24.1744 47.1291 24.5789L48 25.0703ZM29.4952 36.9256L30.3245 37.4844C30.5851 37.0978 30.5438 36.5823 30.2251 36.242L29.4952 36.9256ZM26.6707 33.91L26.6231 32.9111C26.2337 32.9297 25.8905 33.1729 25.744 33.5342C25.5975 33.8955 25.6743 34.309 25.9408 34.5936L26.6707 33.91ZM17.1182 31.3548L17.6729 30.5228C17.366 30.3182 16.9715 30.2991 16.6463 30.4731C16.3211 30.6472 16.1182 30.986 16.1182 31.3548L17.1182 31.3548ZM25.8742 37.1922L26.4289 38.0242C26.7071 37.8388 26.8742 37.5265 26.8742 37.1922C26.8742 36.8578 26.7071 36.5456 26.4289 36.3601L25.8742 37.1922ZM17.1182 43.0296L16.1182 43.0296C16.1182 43.3984 16.3212 43.7372 16.6463 43.9112C16.9715 44.0852 17.366 44.0662 17.6729 43.8616L17.1182 43.0296ZM1 24.5224C1 24.3293 1.00607 24.1371 1.01808 23.946L-0.977985 23.8206C-0.992616 24.0534 -1 24.2874 -1 24.5224L1 24.5224ZM20.9023 38.8872C15.1768 38.3965 10.1555 36.5717 6.59226 33.9658C3.02564 31.3574 1 28.0377 1 24.5224L-1 24.5224C-1 28.8675 1.50747 32.7248 5.41163 35.5801C9.3192 38.4379 14.7063 40.3635 20.7315 40.8799L20.9023 38.8872ZM19.8169 33.8471L19.8169 39.8836L21.8169 39.8836L21.8169 33.8471L19.8169 33.8471ZM-0.923724 24.2139C0.109853 27.1645 2.94655 29.6288 6.70179 31.4309C10.4883 33.248 15.3623 34.4697 20.7474 34.8447L20.8863 32.8495C15.7017 32.4885 11.0834 31.3152 7.56707 29.6277C4.01939 27.9253 1.74253 25.7757 0.963816 23.5527L-0.923724 24.2139ZM27.6161 40.8499C33.4217 40.3002 38.6158 38.4398 42.4363 35.7009C46.2523 32.9652 48.7744 29.2879 48.9986 25.1241L47.0015 25.0166C46.8197 28.3935 44.7627 31.5723 41.271 34.0754C37.7839 36.5753 32.9419 38.3366 27.4276 38.8588L27.6161 40.8499ZM28.6659 36.3669L26.6925 39.2955L28.3512 40.4131L30.3245 37.4844L28.6659 36.3669ZM25.9408 34.5936L28.7653 37.6092L30.2251 36.242L27.4006 33.2264L25.9408 34.5936ZM47.1291 24.5789C45.9394 26.6873 43.3972 28.6599 39.7799 30.1717C36.1869 31.6733 31.644 32.672 26.6231 32.9111L26.7183 34.9088C31.9335 34.6604 36.7107 33.622 40.5511 32.017C44.3671 30.4222 47.3716 28.2188 48.8709 25.5618L47.1291 24.5789ZM16.5635 32.1869L25.3195 38.0242L26.4289 36.3601L17.6729 30.5228L16.5635 32.1869ZM25.3195 36.3601L16.5635 42.1975L17.6729 43.8616L26.4289 38.0242L25.3195 36.3601ZM16.1182 31.3548L16.1182 43.0296L18.1182 43.0296L18.1182 31.3548L16.1182 31.3548Z" fill="white" mask="url(#path-1-inside-1)"/>
<path d="M12.9975 22.8168C13.7496 22.8168 14.3197 22.6167 14.7079 22.2164C15.1082 21.8161 15.3083 21.3309 15.3083 20.7608C15.3083 20.0693 15.1021 19.5599 14.6897 19.2324C14.2772 18.9049 13.6283 18.7411 12.7428 18.7411H11.4328V17.4857L13.6344 14.4835L14.1489 13.8285H13.2341H10.1773V11.827H17.1278V13.1188L14.5623 16.5577L14.1838 17.0308H14.5259C14.9505 17.0672 15.3508 17.1642 15.7268 17.3219C16.1149 17.4796 16.4485 17.7101 16.7275 18.0133C17.0186 18.3044 17.2491 18.6683 17.4189 19.105C17.5887 19.5417 17.6737 20.0451 17.6737 20.6152C17.6737 21.3309 17.5524 21.9495 17.3098 22.4711C17.0793 22.9927 16.7518 23.4294 16.3272 23.7811C15.9148 24.1329 15.4296 24.3937 14.8716 24.5635C14.3136 24.7333 13.7132 24.8183 13.0703 24.8183C12.5366 24.8183 11.9847 24.7697 11.4146 24.6727C10.8445 24.5757 10.3835 24.4362 10.0317 24.2542L10.6686 22.2891C10.9839 22.4468 11.3297 22.5742 11.7057 22.6712C12.0938 22.7683 12.5245 22.8168 12.9975 22.8168Z" fill="white"/>
<path d="M27.4877 20.6152C27.4877 21.2096 27.3846 21.7615 27.1784 22.2709C26.9843 22.7804 26.7054 23.2232 26.3415 23.5992C25.9776 23.9752 25.5348 24.2724 25.0132 24.4907C24.5038 24.7091 23.9397 24.8183 23.3211 24.8183C22.6903 24.8183 22.1081 24.7212 21.5744 24.5271C21.0528 24.3209 20.5979 24.0177 20.2097 23.6174C19.8216 23.2171 19.5183 22.7137 19.3 22.1072C19.0816 21.5007 18.9725 20.7972 18.9725 19.9966C18.9725 18.7957 19.1423 17.7101 19.4819 16.7397C19.8337 15.7693 20.3007 14.9262 20.8829 14.2105C21.4773 13.4827 22.1627 12.9005 22.939 12.4638C23.7274 12.015 24.5583 11.7178 25.4317 11.5723L25.9594 13.4464C25.3529 13.5434 24.7949 13.7314 24.2854 14.0104C23.776 14.2894 23.3211 14.623 22.9208 15.0111C22.5326 15.3993 22.1991 15.836 21.9201 16.3212C21.6532 16.7942 21.4652 17.2855 21.356 17.795C21.5986 17.4917 21.914 17.237 22.3022 17.0308C22.6903 16.8124 23.1755 16.7033 23.7578 16.7033C24.3036 16.7033 24.807 16.7882 25.268 16.958C25.7289 17.1278 26.1231 17.3825 26.4506 17.7222C26.7781 18.0497 27.0329 18.4561 27.2148 18.9413C27.3968 19.4265 27.4877 19.9844 27.4877 20.6152ZM25.1952 20.7426C25.1952 19.384 24.528 18.7047 23.1937 18.7047C22.7085 18.7047 22.2961 18.8139 21.9565 19.0322C21.6289 19.2506 21.3985 19.5053 21.265 19.7964C21.2408 19.9299 21.2287 20.0451 21.2287 20.1421C21.2287 20.2392 21.2287 20.3362 21.2287 20.4332C21.2287 20.7244 21.2711 21.0155 21.356 21.3066C21.4409 21.5856 21.5622 21.8403 21.7199 22.0708C21.8897 22.2891 22.102 22.4711 22.3567 22.6167C22.6115 22.7501 22.9147 22.8168 23.2665 22.8168C23.8366 22.8168 24.2975 22.6227 24.6493 22.2346C25.0132 21.8464 25.1952 21.3491 25.1952 20.7426Z" fill="white"/>
<path d="M28.1679 18.1771C28.1679 15.9451 28.55 14.2894 29.3142 13.2098C30.0784 12.1181 31.1762 11.5723 32.6075 11.5723C34.1359 11.5723 35.2579 12.1121 35.9736 13.1916C36.6893 14.2591 37.0471 15.9209 37.0471 18.1771C37.0471 20.4211 36.6589 22.089 35.8826 23.1807C35.1184 24.2724 34.0207 24.8183 32.5893 24.8183C31.0731 24.8183 29.9571 24.2481 29.2414 23.1079C28.5258 21.9556 28.1679 20.3119 28.1679 18.1771ZM30.5333 18.1771C30.5333 19.6569 30.691 20.8032 31.0064 21.6159C31.3339 22.4165 31.8676 22.8168 32.6075 22.8168C33.3232 22.8168 33.8448 22.4468 34.1723 21.7069C34.5119 20.967 34.6817 19.7904 34.6817 18.1771C34.6817 16.7093 34.5241 15.5752 34.2087 14.7746C33.8933 13.974 33.3535 13.5737 32.5893 13.5737C31.8615 13.5737 31.3339 13.9498 31.0064 14.7018C30.691 15.4539 30.5333 16.6123 30.5333 18.1771Z" fill="white"/>
<path d="M37.9456 14.5926C37.9456 14.1438 38.0245 13.7375 38.1822 13.3736C38.3399 12.9975 38.5521 12.6761 38.819 12.4092C39.098 12.1424 39.4134 11.9362 39.7651 11.7906C40.129 11.645 40.5172 11.5723 40.9296 11.5723C41.342 11.5723 41.7302 11.639 42.0941 11.7724C42.4701 11.9058 42.7976 12.106 43.0766 12.3728C43.3556 12.6276 43.574 12.943 43.7316 13.319C43.8893 13.695 43.9682 14.1196 43.9682 14.5926C43.9682 15.0657 43.8893 15.4903 43.7316 15.8663C43.574 16.2302 43.3556 16.5395 43.0766 16.7942C42.7976 17.049 42.4701 17.2431 42.0941 17.3765C41.7302 17.5099 41.342 17.5766 40.9296 17.5766C40.5172 17.5766 40.129 17.5099 39.7651 17.3765C39.4134 17.2431 39.098 17.049 38.819 16.7942C38.5521 16.5395 38.3399 16.2302 38.1822 15.8663C38.0245 15.4903 37.9456 15.0657 37.9456 14.5926ZM39.7651 14.5926C39.7651 14.9808 39.8804 15.2901 40.1108 15.5206C40.3413 15.7389 40.6203 15.8481 40.9478 15.8481C41.2753 15.8481 41.5604 15.7389 41.803 15.5206C42.0456 15.2901 42.1669 14.9808 42.1669 14.5926C42.1669 14.2045 42.0456 13.8952 41.803 13.6647C41.5604 13.4221 41.2753 13.3008 40.9478 13.3008C40.6203 13.3008 40.3413 13.4221 40.1108 13.6647C39.8804 13.8952 39.7651 14.2045 39.7651 14.5926Z" fill="white"/>
</g>
<defs>
<clipPath id="clip0">
<rect width="48" height="48" fill="white"/>
</clipPath>
</defs>
</svg>
