<svg viewBox="0 0 48 48" fill="none" xmlns="http://www.w3.org/2000/svg">
<path d="M35.3365 8.22852C32.0688 5.80038 28.0204 4.36377 23.6365 4.36377C15.2439 4.36377 8.08105 9.62892 5.27085 17.0363C4.16186 19.526 3.54565 22.2822 3.54565 25.1819C3.54565 36.2778 12.5685 45.2727 23.6987 45.2727C33.6448 45.2727 44.8602 37.1352 46.9497 27.5454H47.0087C45.2981 38.9175 35.4855 47.6363 23.6365 47.6363C10.5826 47.6363 0.000244141 37.054 0.000244141 24C0.000244141 10.9461 10.5826 0.36377 23.6365 0.36377C28.9242 0.36377 33.8064 2.10011 37.744 5.03372L39.3421 2.91302L41.8932 11.205L33.2193 11.0382L35.3365 8.22852Z" fill="white"/>
<path d="M13.2192 23.0493H14.4902C14.9727 23.0493 15.3252 22.8823 15.5479 22.5483C15.7767 22.2082 15.8911 21.7567 15.8911 21.1938C15.8911 20.6558 15.7736 20.2383 15.5386 19.9414C15.3097 19.6383 15.0005 19.4868 14.6108 19.4868C14.2459 19.4868 13.946 19.6291 13.7109 19.9136C13.4821 20.1981 13.3677 20.5568 13.3677 20.9897H10.7422C10.7422 20.2847 10.903 19.6538 11.2246 19.0972C11.5524 18.5343 12.007 18.0952 12.5884 17.7798C13.1759 17.4644 13.8254 17.3066 14.5366 17.3066C15.7798 17.3066 16.7539 17.6499 17.459 18.3364C18.1641 19.0229 18.5166 19.9631 18.5166 21.1567C18.5166 21.769 18.3558 22.3381 18.0342 22.8638C17.7188 23.3833 17.3013 23.7822 16.7817 24.0605C17.4188 24.3327 17.8919 24.7409 18.2012 25.2852C18.5166 25.8294 18.6743 26.4727 18.6743 27.2148C18.6743 28.4147 18.2909 29.3765 17.5239 30.1001C16.7632 30.8237 15.7612 31.1855 14.5181 31.1855C13.3615 31.1855 12.4214 30.8299 11.6978 30.1187C10.9803 29.4012 10.6216 28.4611 10.6216 27.2983H13.2471C13.2471 27.7808 13.3739 28.1859 13.6274 28.5137C13.881 28.8415 14.2026 29.0054 14.5923 29.0054C15.0438 29.0054 15.3994 28.8384 15.6592 28.5044C15.9251 28.1704 16.0581 27.7251 16.0581 27.1685C16.0581 25.8387 15.5417 25.1707 14.5088 25.1646H13.2192V23.0493Z" fill="white"/>
<path d="M26.1849 17.353V19.5796H26.0364C25.053 19.5858 24.2707 19.8826 23.6893 20.4702C23.1141 21.0516 22.7646 21.868 22.6409 22.9194C23.2038 22.2762 23.9088 21.9546 24.7562 21.9546C25.7334 21.9546 26.5127 22.3721 27.0941 23.207C27.6816 24.042 27.9754 25.1553 27.9754 26.5469C27.9754 27.4313 27.8084 28.2292 27.4744 28.9404C27.1404 29.6517 26.6704 30.2052 26.0643 30.6011C25.4643 30.9907 24.784 31.1855 24.0233 31.1855C22.7987 31.1855 21.8153 30.6938 21.0731 29.7104C20.3371 28.7271 19.9691 27.4035 19.9691 25.7397V24.7656C19.9691 23.2751 20.201 21.9701 20.6649 20.8506C21.1349 19.7311 21.8091 18.8714 22.6873 18.2715C23.5718 17.6654 24.6015 17.3592 25.7767 17.353H26.1849ZM23.9305 24.1255C23.5965 24.1255 23.3151 24.2306 23.0863 24.4409C22.8636 24.6512 22.6966 24.911 22.5853 25.2202V26.1665C22.5853 27.119 22.7121 27.8302 22.9656 28.3003C23.2192 28.7703 23.5532 29.0054 23.9676 29.0054C24.3882 29.0054 24.7252 28.7796 24.9788 28.3281C25.2324 27.8704 25.3592 27.286 25.3592 26.5747C25.3592 25.8511 25.2262 25.2635 24.9603 24.812C24.7005 24.3543 24.3572 24.1255 23.9305 24.1255Z" fill="white"/>
<path d="M36.8126 25.415C36.8126 27.2829 36.4725 28.7116 35.7921 29.7012C35.118 30.6908 34.1531 31.1855 32.8976 31.1855C31.6544 31.1855 30.6927 30.7062 30.0123 29.7476C29.3382 28.7827 28.9887 27.4035 28.964 25.6099V23.0586C28.964 21.1969 29.3011 19.7744 29.9752 18.791C30.6494 17.8014 31.6173 17.3066 32.879 17.3066C34.1408 17.3066 35.1087 17.7952 35.7829 18.7725C36.457 19.7497 36.8003 21.1444 36.8126 22.9565V25.415ZM34.1779 22.6782C34.1779 21.6144 34.0727 20.8166 33.8624 20.2847C33.6522 19.7528 33.3244 19.4868 32.879 19.4868C32.0441 19.4868 31.6111 20.4609 31.5802 22.4092V25.7769C31.5802 26.8654 31.6854 27.6756 31.8956 28.2075C32.1121 28.7394 32.4461 29.0054 32.8976 29.0054C33.3244 29.0054 33.6398 28.758 33.8439 28.2632C34.0542 27.7622 34.1655 26.9984 34.1779 25.9717V22.6782Z" fill="white"/>
<path d="M38.2929 19.8672C38.2929 19.1559 38.5434 18.5529 39.0444 18.0581C39.5516 17.5571 40.1453 17.3066 40.8256 17.3066C41.4998 17.3066 42.0812 17.5571 42.5698 18.0581C43.0646 18.5529 43.312 19.1559 43.312 19.8672C43.312 20.5846 43.0646 21.1877 42.5698 21.6763C42.0812 22.1587 41.4998 22.3999 40.8256 22.3999C40.1515 22.3999 39.5608 22.1587 39.0537 21.6763C38.5465 21.1877 38.2929 20.5846 38.2929 19.8672ZM40.8256 21.0176C41.1534 21.0176 41.4225 20.9062 41.6328 20.6836C41.8431 20.4609 41.9482 20.1888 41.9482 19.8672C41.9482 19.5456 41.8431 19.2673 41.6328 19.0322C41.4225 18.7972 41.1534 18.6797 40.8256 18.6797C40.4978 18.6797 40.2195 18.7972 39.9907 19.0322C39.768 19.2611 39.6567 19.5394 39.6567 19.8672C39.6567 20.195 39.7711 20.4702 40 20.6929C40.235 20.9093 40.5102 21.0176 40.8256 21.0176Z" fill="white"/>
</svg>
