<svg viewBox="0 0 48 48" fill="none" xmlns="http://www.w3.org/2000/svg">
<path d="M13.7397 28.2238C14.3891 28.2238 14.8814 28.051 15.2166 27.7053C15.5623 27.3596 15.7351 26.9407 15.7351 26.4484C15.7351 25.8513 15.5571 25.4114 15.2009 25.1286C14.8448 24.8458 14.2844 24.7044 13.5198 24.7044H12.3885V23.6202L14.2896 21.0278L14.734 20.4622H13.944H11.3044V18.7339H17.3063V19.8494L15.0909 22.8189L14.7641 23.2274H15.0595C15.4261 23.2589 15.7718 23.3427 16.0965 23.4788C16.4317 23.615 16.7197 23.814 16.9606 24.0759C17.212 24.3273 17.411 24.6415 17.5577 25.0186C17.7043 25.3957 17.7777 25.8304 17.7777 26.3227C17.7777 26.9407 17.6729 27.4749 17.4634 27.9253C17.2644 28.3757 16.9816 28.7527 16.615 29.0565C16.2588 29.3603 15.8399 29.5855 15.358 29.7321C14.8762 29.8788 14.3577 29.9521 13.8026 29.9521C13.3417 29.9521 12.8651 29.9102 12.3728 29.8264C11.8805 29.7426 11.4825 29.6221 11.1787 29.465L11.7286 27.7681C12.001 27.9043 12.2995 28.0143 12.6242 28.0981C12.9594 28.1819 13.3312 28.2238 13.7397 28.2238Z" fill="white"/>
<path d="M26.2523 26.3227C26.2523 26.8359 26.1633 27.3125 25.9852 27.7524C25.8176 28.1924 25.5767 28.5747 25.2625 28.8994C24.9482 29.2241 24.5659 29.4807 24.1155 29.6693C23.6756 29.8578 23.1885 29.9521 22.6543 29.9521C22.1096 29.9521 21.6069 29.8683 21.146 29.7007C20.6956 29.5226 20.3028 29.2608 19.9676 28.9151C19.6324 28.5694 19.3706 28.1348 19.182 27.611C18.9935 27.0873 18.8992 26.4798 18.8992 25.7885C18.8992 24.7515 19.0458 23.814 19.3391 22.9761C19.6429 22.1381 20.0462 21.4101 20.5489 20.7921C21.0622 20.1637 21.654 19.6609 22.3244 19.2838C23.0052 18.8962 23.7227 18.6396 24.4769 18.5139L24.9325 20.1322C24.4088 20.216 23.927 20.3784 23.487 20.6193C23.0471 20.8602 22.6543 21.1483 22.3087 21.4834C21.9735 21.8186 21.6854 22.1957 21.4445 22.6147C21.2141 23.0232 21.0517 23.4474 20.9574 23.8873C21.1669 23.6255 21.4393 23.4055 21.7745 23.2274C22.1096 23.0389 22.5286 22.9446 23.0314 22.9446C23.5027 22.9446 23.9374 23.018 24.3355 23.1646C24.7335 23.3112 25.0739 23.5312 25.3567 23.8245C25.6395 24.1073 25.8595 24.4582 26.0166 24.8772C26.1737 25.2962 26.2523 25.778 26.2523 26.3227ZM24.2726 26.4326C24.2726 25.2595 23.6965 24.6729 22.5443 24.6729C22.1253 24.6729 21.7692 24.7672 21.4759 24.9557C21.1931 25.1443 20.9941 25.3642 20.8789 25.6156C20.8579 25.7309 20.8475 25.8304 20.8475 25.9142C20.8475 25.998 20.8475 26.0817 20.8475 26.1655C20.8475 26.4169 20.8841 26.6683 20.9574 26.9197C21.0308 27.1606 21.1355 27.3806 21.2717 27.5796C21.4183 27.7681 21.6016 27.9253 21.8216 28.051C22.0416 28.1662 22.3034 28.2238 22.6072 28.2238C23.0995 28.2238 23.4975 28.0562 23.8013 27.721C24.1155 27.3858 24.2726 26.9564 24.2726 26.4326Z" fill="white"/>
<path d="M26.8397 24.2173C26.8397 22.29 27.1696 20.8602 27.8295 19.928C28.4894 18.9853 29.4373 18.5139 30.6733 18.5139C31.9931 18.5139 32.962 18.98 33.58 19.9123C34.198 20.834 34.507 22.269 34.507 24.2173C34.507 26.1551 34.1718 27.5953 33.5014 28.538C32.8415 29.4807 31.8936 29.9521 30.6576 29.9521C29.3483 29.9521 28.3846 29.4598 27.7666 28.4752C27.1487 27.4801 26.8397 26.0608 26.8397 24.2173ZM28.8822 24.2173C28.8822 25.4952 29.0184 26.485 29.2907 27.1868C29.5735 27.8781 30.0344 28.2238 30.6733 28.2238C31.2913 28.2238 31.7417 27.9043 32.0245 27.2654C32.3178 26.6264 32.4645 25.6104 32.4645 24.2173C32.4645 22.9499 32.3283 21.9705 32.056 21.2792C31.7836 20.5879 31.3175 20.2422 30.6576 20.2422C30.0291 20.2422 29.5735 20.5669 29.2907 21.2163C29.0184 21.8658 28.8822 22.8661 28.8822 24.2173Z" fill="white"/>
<path d="M35.2829 21.1221C35.2829 20.7345 35.351 20.3836 35.4871 20.0694C35.6233 19.7447 35.8066 19.4671 36.0371 19.2367C36.278 19.0062 36.5503 18.8282 36.8541 18.7025C37.1683 18.5768 37.5035 18.5139 37.8596 18.5139C38.2157 18.5139 38.5509 18.5715 38.8652 18.6867C39.1899 18.802 39.4727 18.9748 39.7136 19.2052C39.9545 19.4252 40.1431 19.6975 40.2792 20.0222C40.4154 20.347 40.4835 20.7136 40.4835 21.1221C40.4835 21.5306 40.4154 21.8972 40.2792 22.2219C40.1431 22.5361 39.9545 22.8032 39.7136 23.0232C39.4727 23.2432 39.1899 23.4107 38.8652 23.526C38.5509 23.6412 38.2157 23.6988 37.8596 23.6988C37.5035 23.6988 37.1683 23.6412 36.8541 23.526C36.5503 23.4107 36.278 23.2432 36.0371 23.0232C35.8066 22.8032 35.6233 22.5361 35.4871 22.2219C35.351 21.8972 35.2829 21.5306 35.2829 21.1221ZM36.8541 21.1221C36.8541 21.4573 36.9536 21.7244 37.1526 21.9234C37.3516 22.1119 37.5925 22.2062 37.8753 22.2062C38.1581 22.2062 38.4043 22.1119 38.6138 21.9234C38.8233 21.7244 38.928 21.4573 38.928 21.1221C38.928 20.7869 38.8233 20.5198 38.6138 20.3208C38.4043 20.1113 38.1581 20.0065 37.8753 20.0065C37.5925 20.0065 37.3516 20.1113 37.1526 20.3208C36.9536 20.5198 36.8541 20.7869 36.8541 21.1221Z" fill="white"/>
<path fill-rule="evenodd" clip-rule="evenodd" d="M46.2612 24.9729L44.2631 24.8871C44.2757 24.5931 44.2821 24.2974 44.2821 24C44.2821 23.7027 44.2757 23.407 44.2631 23.113L46.2612 23.0271C46.2751 23.3497 46.2821 23.6741 46.2821 24C46.2821 24.326 46.2751 24.6504 46.2612 24.9729ZM46.0937 21.0898L44.1105 21.3485C44.0337 20.7593 43.9316 20.1782 43.8053 19.6064L45.7583 19.1752C45.8971 19.8039 46.0093 20.4425 46.0937 21.0898ZM45.2564 17.2977L43.3488 17.8986C43.1709 17.3336 42.9688 16.7793 42.7439 16.2369L44.5913 15.4708C44.8386 16.0671 45.0607 16.6765 45.2564 17.2977ZM43.7685 13.7092L41.9953 14.6342C41.7218 14.11 41.426 13.599 41.1092 13.1027L42.795 12.0266C43.143 12.5718 43.468 13.1331 43.7685 13.7092ZM41.6786 10.4351L40.0928 11.6538C39.7328 11.1853 39.3528 10.733 38.9541 10.2981L40.4283 8.94652C40.8661 9.42404 41.2833 9.9207 41.6786 10.4351ZM39.0536 7.57184C38.5761 7.13404 38.0794 6.7168 37.565 6.3215L36.3463 7.90734C36.8148 8.26731 37.2671 8.6473 37.702 9.04603L39.0536 7.57184ZM35.9735 5.20513L34.8974 6.89091C34.401 6.57407 33.8901 6.2783 33.3659 6.00483L34.2909 4.23158C34.867 4.53211 35.4283 4.85709 35.9735 5.20513ZM32.5293 3.40879L31.7632 5.25624C31.2208 5.03129 30.6665 4.82924 30.1015 4.65128L30.7024 2.74368C31.3236 2.93935 31.933 3.16149 32.5293 3.40879ZM28.8248 2.24178L28.3937 4.19477C27.8219 4.06853 27.2408 3.96641 26.6516 3.88955L26.9103 1.90635C27.5576 1.99079 28.1962 2.10301 28.8248 2.24178ZM24.9729 1.73888L24.8871 3.73703C24.5931 3.7244 24.2974 3.71802 24 3.71802C23.7027 3.71802 23.407 3.7244 23.113 3.73703L23.0271 1.73888C23.3497 1.72502 23.6741 1.71802 24 1.71802C24.326 1.71802 24.6504 1.72502 24.9729 1.73888ZM21.0898 1.90635L21.3485 3.88955C20.7593 3.96641 20.1782 4.06853 19.6064 4.19477L19.1752 2.24179C19.8039 2.10301 20.4425 1.99079 21.0898 1.90635ZM17.2977 2.74368L17.8986 4.65128C17.3336 4.82924 16.7793 5.03129 16.2369 5.25624L15.4708 3.40879C16.0671 3.16149 16.6765 2.93935 17.2977 2.74368ZM13.7092 4.23158L14.6342 6.00483C14.11 6.2783 13.599 6.57407 13.1027 6.89091L12.0266 5.20513C12.5718 4.85709 13.1331 4.53211 13.7092 4.23158ZM10.4351 6.3215L11.6538 7.90734C11.1853 8.2673 10.733 8.6473 10.2981 9.04603L8.94652 7.57183C9.42404 7.13404 9.9207 6.7168 10.4351 6.3215ZM7.57184 8.94652L9.04603 10.2981C8.6473 10.733 8.26731 11.1853 7.90734 11.6538L6.3215 10.4351C6.7168 9.9207 7.13404 9.42404 7.57184 8.94652ZM5.20513 12.0266L6.89091 13.1027C6.57407 13.599 6.2783 14.11 6.00483 14.6342L4.23158 13.7092C4.53211 13.1331 4.85709 12.5718 5.20513 12.0266ZM3.40879 15.4708L5.25624 16.2369C5.03129 16.7793 4.82924 17.3336 4.65128 17.8986L2.74368 17.2977C2.93935 16.6765 3.16149 16.0671 3.40879 15.4708ZM2.24178 19.1752L4.19477 19.6064C4.06853 20.1782 3.96641 20.7593 3.88955 21.3485L1.90635 21.0898C1.99079 20.4425 2.10301 19.8039 2.24178 19.1752ZM1.73888 23.0271C1.72502 23.3497 1.71802 23.6741 1.71802 24C1.71802 24.326 1.72502 24.6504 1.73888 24.9729L3.73703 24.8871C3.7244 24.5931 3.71802 24.2974 3.71802 24C3.71802 23.7027 3.7244 23.407 3.73703 23.113L1.73888 23.0271ZM1.90635 26.9103L3.88955 26.6516C3.96641 27.2408 4.06853 27.8219 4.19477 28.3937L2.24179 28.8249C2.10301 28.1962 1.99079 27.5576 1.90635 26.9103ZM2.74368 30.7024L4.65128 30.1015C4.82924 30.6665 5.03129 31.2208 5.25624 31.7632L3.40879 32.5293C3.16149 31.933 2.93935 31.3236 2.74368 30.7024ZM4.23158 34.2909L6.00483 33.3659C6.2783 33.8901 6.57407 34.401 6.89091 34.8974L5.20513 35.9735C4.85709 35.4283 4.53211 34.867 4.23158 34.2909ZM6.3215 37.565L7.90734 36.3463C8.2673 36.8148 8.6473 37.2671 9.04603 37.702L7.57184 39.0536C7.13404 38.576 6.7168 38.0794 6.3215 37.565ZM8.94652 40.4283L10.2981 38.9541C10.733 39.3528 11.1853 39.7328 11.6538 40.0928L10.4351 41.6786C9.9207 41.2833 9.42404 40.8661 8.94652 40.4283ZM12.0266 42.795L13.1027 41.1092C13.599 41.426 14.11 41.7218 14.6342 41.9953L13.7092 43.7685C13.1331 43.468 12.5718 43.143 12.0266 42.795ZM15.4708 44.5913L16.2369 42.7439C16.7793 42.9688 17.3336 43.1709 17.8986 43.3488L17.2977 45.2564C16.6765 45.0607 16.0671 44.8386 15.4708 44.5913ZM19.1752 45.7583L19.6064 43.8053C20.1782 43.9316 20.7593 44.0337 21.3485 44.1105L21.0898 46.0937C20.4425 46.0093 19.8039 45.8971 19.1752 45.7583ZM23.0271 46.2612L23.113 44.2631C23.407 44.2757 23.7027 44.2821 24 44.2821C24.2974 44.2821 24.5931 44.2757 24.8871 44.2631L24.9729 46.2612C24.6504 46.2751 24.326 46.2821 24 46.2821C23.6741 46.2821 23.3497 46.2751 23.0271 46.2612ZM26.9103 46.0937L26.6516 44.1105C27.2408 44.0337 27.8219 43.9316 28.3937 43.8053L28.8249 45.7583C28.1962 45.8971 27.5576 46.0093 26.9103 46.0937ZM30.7024 45.2564L30.1015 43.3488C30.6665 43.1709 31.2208 42.9688 31.7632 42.7439L32.5293 44.5913C31.933 44.8386 31.3236 45.0607 30.7024 45.2564ZM34.2909 43.7685L33.3659 41.9953C33.8901 41.7218 34.401 41.426 34.8974 41.1092L35.9735 42.795C35.4283 43.143 34.867 43.468 34.2909 43.7685ZM37.565 41.6786L36.3463 40.0928C36.8148 39.7328 37.2671 39.3528 37.702 38.9541L39.0536 40.4283C38.576 40.8661 38.0794 41.2833 37.565 41.6786ZM40.4283 39.0536L38.9541 37.702C39.3528 37.2671 39.7328 36.8148 40.0928 36.3463L41.6786 37.565C41.2833 38.0794 40.8661 38.5761 40.4283 39.0536ZM42.795 35.9735C43.143 35.4283 43.468 34.867 43.7685 34.2909L41.9953 33.3659C41.7218 33.8901 41.426 34.401 41.1092 34.8974L42.795 35.9735ZM44.5913 32.5293L42.7439 31.7632C42.9688 31.2208 43.1709 30.6665 43.3488 30.1015L45.2564 30.7024C45.0607 31.3236 44.8386 31.933 44.5913 32.5293ZM45.7583 28.8248L43.8053 28.3937C43.9316 27.8219 44.0337 27.2408 44.1105 26.6516L46.0937 26.9103C46.0093 27.5576 45.8971 28.1962 45.7583 28.8248Z" fill="white"/>
</svg>
