<svg viewBox="0 0 48 48" fill="none" xmlns="http://www.w3.org/2000/svg">
<path d="M36.3377 4.06282L34.1854 7.43437C33.7048 7.12759 33.2102 6.84128 32.7028 6.5766L34.5528 3.0301C35.1639 3.34889 35.7594 3.69362 36.3377 4.06282Z" fill="white"/>
<path d="M32.6842 2.1573L31.152 5.85221C30.6271 5.63457 30.0909 5.4391 29.5444 5.26696L30.7462 1.45177C31.4052 1.65933 32.0516 1.89498 32.6842 2.1573Z" fill="white"/>
<path d="M28.7546 0.91937L27.8923 4.82533C27.3391 4.7032 26.7767 4.60436 26.2063 4.52995L26.7236 0.56355C27.4103 0.653121 28.0877 0.772164 28.7546 0.91937Z" fill="white"/>
<path d="M24.6686 0.385896L24.4969 4.38221C24.2119 4.36997 23.925 4.36377 23.6365 4.36377C23.348 4.36377 23.0612 4.36997 22.7762 4.38221L22.6045 0.385896C22.9467 0.371195 23.2907 0.36377 23.6365 0.36377C23.9823 0.36377 24.3264 0.371195 24.6686 0.385896Z" fill="white"/>
<path d="M20.5494 0.56355L21.0668 4.52995C20.4963 4.60436 19.934 4.7032 19.3807 4.82533L18.5185 0.919371C19.1853 0.772165 19.8627 0.653121 20.5494 0.56355Z" fill="white"/>
<path d="M16.5268 1.45177L17.7286 5.26696C17.1821 5.43911 16.6459 5.63457 16.1211 5.85221L14.5888 2.1573C15.2214 1.89498 15.8679 1.65933 16.5268 1.45177Z" fill="white"/>
<path d="M12.7203 3.0301L14.5702 6.5766C14.0628 6.84128 13.5682 7.1276 13.0877 7.43437L10.9353 4.06282C11.5136 3.69362 12.1091 3.3489 12.7203 3.0301Z" fill="white"/>
<path d="M9.24713 5.24704L11.6844 8.41872C11.2307 8.76738 10.7926 9.13548 10.3712 9.52177L7.66808 6.57337C8.17462 6.10897 8.70146 5.66636 9.24713 5.24704Z" fill="white"/>
<path d="M6.20984 8.03161L9.15824 10.7347C8.77195 11.1561 8.40385 11.5942 8.05519 12.048L4.88351 9.61066C5.30283 9.06499 5.74544 8.53815 6.20984 8.03161Z" fill="white"/>
<path d="M3.69929 11.2988L7.07085 13.4512C6.76407 13.9318 6.47775 14.4263 6.21307 14.9338L2.66658 13.0838C2.98537 12.4726 3.3301 11.8772 3.69929 11.2988Z" fill="white"/>
<path d="M1.79378 14.9524L5.48868 16.4846C5.4101 16.6741 5.3344 16.8651 5.26165 17.0575C5.11338 17.3914 4.97397 17.7301 4.84371 18.0733L1.08825 16.8903C1.29581 16.2314 1.53145 15.585 1.79378 14.9524Z" fill="white"/>
<path d="M4.30265 19.7091C4.14597 20.2621 4.01244 20.8247 3.90318 21.396L0.200024 20.9129C0.289595 20.2263 0.408639 19.5488 0.555844 18.882L4.30265 19.7091Z" fill="white"/>
<path d="M3.65034 23.1239C3.59128 23.7025 3.55685 24.2885 3.54812 24.8806L0.0223704 25.0321C0.00766981 24.6899 0.000244141 24.3458 0.000244141 24C0.000244141 23.6543 0.00766978 23.3102 0.0223703 22.968L3.65034 23.1239Z" fill="white"/>
<path d="M3.59844 26.6439C3.64124 27.2372 3.70988 27.8233 3.80324 28.4012L0.555845 29.1181C0.40864 28.4513 0.289596 27.7738 0.200025 27.0872L3.59844 26.6439Z" fill="white"/>
<path d="M4.16443 30.1408C4.31218 30.7209 4.48525 31.2911 4.68239 31.8499L1.79378 33.0477C1.53145 32.4151 1.29581 31.7687 1.08825 31.1098L4.16443 30.1408Z" fill="white"/>
<path d="M5.35523 33.5138C5.60629 34.0623 5.88137 34.5975 6.17913 35.1182L3.6993 36.7013C3.3301 36.1229 2.98537 35.5275 2.66658 34.9163L5.35523 33.5138Z" fill="white"/>
<path d="M7.14865 36.6488C7.49644 37.1467 7.86626 37.6282 8.25671 38.0919L6.20984 39.9685C5.74544 39.4619 5.30284 38.9351 4.88351 38.3894L7.14865 36.6488Z" fill="white"/>
<path d="M9.49484 39.4342C9.9286 39.8639 10.3819 40.274 10.8532 40.6631L9.24713 42.7531C8.70147 42.3337 8.17462 41.8911 7.66808 41.4267L9.49484 39.4342Z" fill="white"/>
<path d="M12.3209 41.7668C12.8266 42.1122 13.3489 42.4353 13.8864 42.7345L12.7203 44.97C12.1091 44.6512 11.5136 44.3065 10.9353 43.9373L12.3209 41.7668Z" fill="white"/>
<path d="M15.5368 43.5567C16.0978 43.8047 16.6722 44.0279 17.2587 44.225L16.5268 46.5483C15.8679 46.3408 15.2214 46.1051 14.5888 45.8428L15.5368 43.5567Z" fill="white"/>
<path d="M19.0369 44.7324C19.6339 44.8734 20.2412 44.9879 20.8575 45.0746L20.5494 47.4365C19.8627 47.347 19.1853 47.2279 18.5185 47.0807L19.0369 44.7324Z" fill="white"/>
<path d="M22.7061 45.2488C23.035 45.2647 23.366 45.2727 23.6989 45.2727C23.9873 45.2727 24.2768 45.2659 24.5671 45.2524L24.6686 47.6142C24.3264 47.6289 23.9823 47.6363 23.6365 47.6363C23.2907 47.6363 22.9467 47.6289 22.6045 47.6142L22.7061 45.2488Z" fill="white"/>
<path d="M26.4161 45.0787C27.0231 44.9936 27.6313 44.8812 28.2385 44.743L28.7546 47.0807C28.0877 47.2279 27.4103 47.347 26.7236 47.4365L26.4161 45.0787Z" fill="white"/>
<path d="M30.0259 44.2614C30.6122 44.079 31.1954 43.8735 31.7733 43.6463L32.6842 45.8428C32.0516 46.1051 31.4052 46.3408 30.7463 46.5483L30.0259 44.2614Z" fill="white"/>
<path d="M33.4767 42.9071C34.0365 42.6408 34.5892 42.3546 35.1328 42.0498L36.3377 43.9373C35.7594 44.3065 35.1639 44.6512 34.5528 44.97L33.4767 42.9071Z" fill="white"/>
<path d="M36.7384 41.0776C37.2674 40.7329 37.785 40.3704 38.2891 39.9914L39.605 41.4267C39.0984 41.8911 38.5716 42.3337 38.0259 42.7531L36.7384 41.0776Z" fill="white"/>
<path d="M41.0632 39.9685L39.778 38.7901C40.2677 38.3662 40.7409 37.9262 41.1952 37.4716L42.3895 38.3894C41.9702 38.9351 41.5276 39.4619 41.0632 39.9685Z" fill="white"/>
<path d="M43.5737 36.7012L42.527 36.033C42.9605 35.5265 43.3707 35.0056 43.7547 34.472L44.6065 34.9163C44.2877 35.5274 43.9429 36.1229 43.5737 36.7012Z" fill="white"/>
<path d="M45.4793 33.0477L44.8537 32.7883C45.1999 32.1992 45.514 31.5978 45.7929 30.9863L46.1848 31.1098C45.9772 31.7687 45.7416 32.4151 45.4793 33.0477Z" fill="white"/>
<path d="M46.7172 29.1181L46.5356 29.078C46.699 28.572 46.8377 28.0608 46.9499 27.5454H47.0087C46.9289 28.0756 46.8316 28.6 46.7172 29.1181Z" fill="white"/>
<path d="M33.2193 11.0382L41.8932 11.205L39.3421 2.91302L33.2193 11.0382Z" fill="white"/>
<path d="M13.2192 23.0493H14.4902C14.9727 23.0493 15.3252 22.8823 15.5479 22.5483C15.7767 22.2082 15.8911 21.7567 15.8911 21.1938C15.8911 20.6558 15.7736 20.2383 15.5386 19.9414C15.3097 19.6383 15.0005 19.4868 14.6108 19.4868C14.2459 19.4868 13.946 19.6291 13.7109 19.9136C13.4821 20.1981 13.3677 20.5568 13.3677 20.9897H10.7422C10.7422 20.2847 10.903 19.6538 11.2246 19.0972C11.5524 18.5343 12.007 18.0952 12.5884 17.7798C13.1759 17.4644 13.8254 17.3066 14.5366 17.3066C15.7798 17.3066 16.7539 17.6499 17.459 18.3364C18.1641 19.0229 18.5166 19.9631 18.5166 21.1567C18.5166 21.769 18.3558 22.3381 18.0342 22.8638C17.7188 23.3833 17.3013 23.7822 16.7817 24.0605C17.4188 24.3327 17.8919 24.7409 18.2012 25.2852C18.5166 25.8294 18.6743 26.4727 18.6743 27.2148C18.6743 28.4147 18.2909 29.3765 17.5239 30.1001C16.7632 30.8237 15.7612 31.1855 14.5181 31.1855C13.3615 31.1855 12.4214 30.8299 11.6978 30.1187C10.9803 29.4012 10.6216 28.4611 10.6216 27.2983H13.2471C13.2471 27.7808 13.3739 28.1859 13.6274 28.5137C13.881 28.8415 14.2026 29.0054 14.5923 29.0054C15.0438 29.0054 15.3994 28.8384 15.6592 28.5044C15.9251 28.1704 16.0581 27.7251 16.0581 27.1685C16.0581 25.8387 15.5417 25.1707 14.5088 25.1646H13.2192V23.0493Z" fill="white"/>
<path d="M26.1849 17.353V19.5796H26.0364C25.053 19.5858 24.2707 19.8826 23.6893 20.4702C23.1141 21.0516 22.7646 21.868 22.6409 22.9194C23.2038 22.2762 23.9088 21.9546 24.7562 21.9546C25.7334 21.9546 26.5127 22.3721 27.0941 23.207C27.6816 24.042 27.9754 25.1553 27.9754 26.5469C27.9754 27.4313 27.8084 28.2292 27.4744 28.9404C27.1404 29.6517 26.6704 30.2052 26.0643 30.6011C25.4643 30.9907 24.784 31.1855 24.0233 31.1855C22.7987 31.1855 21.8153 30.6938 21.0731 29.7104C20.3371 28.7271 19.9691 27.4035 19.9691 25.7397V24.7656C19.9691 23.2751 20.201 21.9701 20.6649 20.8506C21.1349 19.7311 21.8091 18.8714 22.6873 18.2715C23.5718 17.6654 24.6015 17.3592 25.7767 17.353H26.1849ZM23.9305 24.1255C23.5965 24.1255 23.3151 24.2306 23.0863 24.4409C22.8636 24.6512 22.6966 24.911 22.5853 25.2202V26.1665C22.5853 27.119 22.7121 27.8302 22.9656 28.3003C23.2192 28.7703 23.5532 29.0054 23.9676 29.0054C24.3882 29.0054 24.7252 28.7796 24.9788 28.3281C25.2324 27.8704 25.3592 27.286 25.3592 26.5747C25.3592 25.8511 25.2262 25.2635 24.9603 24.812C24.7005 24.3543 24.3572 24.1255 23.9305 24.1255Z" fill="white"/>
<path d="M36.8126 25.415C36.8126 27.2829 36.4725 28.7116 35.7921 29.7012C35.118 30.6908 34.1531 31.1855 32.8976 31.1855C31.6544 31.1855 30.6927 30.7062 30.0123 29.7476C29.3382 28.7827 28.9887 27.4035 28.964 25.6099V23.0586C28.964 21.1969 29.3011 19.7744 29.9752 18.791C30.6494 17.8014 31.6173 17.3066 32.879 17.3066C34.1408 17.3066 35.1087 17.7952 35.7829 18.7725C36.457 19.7497 36.8003 21.1444 36.8126 22.9565V25.415ZM34.1779 22.6782C34.1779 21.6144 34.0727 20.8166 33.8624 20.2847C33.6522 19.7528 33.3244 19.4868 32.879 19.4868C32.0441 19.4868 31.6111 20.4609 31.5802 22.4092V25.7769C31.5802 26.8654 31.6854 27.6756 31.8956 28.2075C32.1121 28.7394 32.4461 29.0054 32.8976 29.0054C33.3244 29.0054 33.6398 28.758 33.8439 28.2632C34.0542 27.7622 34.1655 26.9984 34.1779 25.9717V22.6782Z" fill="white"/>
<path d="M38.2929 19.8672C38.2929 19.1559 38.5434 18.5529 39.0444 18.0581C39.5516 17.5571 40.1453 17.3066 40.8256 17.3066C41.4998 17.3066 42.0812 17.5571 42.5698 18.0581C43.0646 18.5529 43.312 19.1559 43.312 19.8672C43.312 20.5846 43.0646 21.1877 42.5698 21.6763C42.0812 22.1587 41.4998 22.3999 40.8256 22.3999C40.1515 22.3999 39.5608 22.1587 39.0537 21.6763C38.5465 21.1877 38.2929 20.5846 38.2929 19.8672ZM40.8256 21.0176C41.1534 21.0176 41.4225 20.9062 41.6328 20.6836C41.8431 20.4609 41.9482 20.1888 41.9482 19.8672C41.9482 19.5456 41.8431 19.2673 41.6328 19.0322C41.4225 18.7972 41.1534 18.6797 40.8256 18.6797C40.4978 18.6797 40.2195 18.7972 39.9907 19.0322C39.768 19.2611 39.6567 19.5394 39.6567 19.8672C39.6567 20.195 39.7711 20.4702 40 20.6929C40.235 20.9093 40.5102 21.0176 40.8256 21.0176Z" fill="white"/>
</svg>
