<svg width="13" height="14" viewBox="0 0 13 14" fill="none" xmlns="http://www.w3.org/2000/svg">
<path fill-rule="evenodd" clip-rule="evenodd" d="M8.88386 4.33851C8.73645 4.23782 8.64673 4.05994 8.64673 3.86841V2.87726V1.74506V0.552631C8.64673 0.361102 8.73645 0.183229 8.88386 0.0825358C9.03127 -0.0181571 9.21534 -0.0273114 9.37034 0.058343L12.3703 1.71623C12.5397 1.80985 12.6467 2.0012 12.6467 2.21052C12.6467 2.41984 12.5397 2.6112 12.3703 2.70481L9.37034 4.3627C9.21534 4.44835 9.03127 4.4392 8.88386 4.33851Z" fill="white"/>
<path d="M11.3315 13.1855C11.1683 12.7937 11.0206 12.3925 10.8893 11.9827C9.49201 11.714 8.20249 11.4013 7.04316 11.0519C4.99539 10.4346 3.41051 9.71926 2.36104 8.97133C1.26679 8.1915 1 7.56228 1 7.18417C1 6.80606 1.26679 6.17685 2.36104 5.39701C3.41051 4.64908 4.99539 3.93373 7.04316 3.31646C7.55313 3.16274 8.08829 3.01613 8.64673 2.87726V1.74506C3.37409 3.02403 -1.15189e-07 4.98533 0 7.18417C1.33714e-07 9.7366 4.54647 11.9689 11.3315 13.1855Z" fill="white"/>
</svg>
