<svg viewBox="0 0 48 48" fill="none" xmlns="http://www.w3.org/2000/svg">
<path d="M30.9705 24.4854L31.6776 25.1925C32.0681 24.8019 32.0681 24.1688 31.6776 23.7782L30.9705 24.4854ZM21.7781 32.2635C21.3875 32.654 21.3875 33.2872 21.7781 33.6777C22.1686 34.0683 22.8018 34.0683 23.1923 33.6777L21.7781 32.2635ZM23.1923 15.293C22.8018 14.9024 22.1686 14.9024 21.7781 15.293C21.3875 15.6835 21.3875 16.3167 21.7781 16.7072L23.1923 15.293ZM30.2633 23.7782L21.7781 32.2635L23.1923 33.6777L31.6776 25.1925L30.2633 23.7782ZM21.7781 16.7072L30.2633 25.1925L31.6776 23.7782L23.1923 15.293L21.7781 16.7072Z" fill="#999999"/>
</svg>
