<svg viewBox="0 0 48 48" fill="none" xmlns="http://www.w3.org/2000/svg">
<path d="M23.9861 24L24.34 24.3532C24.5348 24.1581 24.5348 23.8419 24.34 23.6468L23.9861 24ZM15.6461 31.6468L15.2929 32.0006L16.0006 32.7071L16.3539 32.3532L15.6461 31.6468ZM16.3539 15.6468L16.0006 15.2929L15.2929 15.9994L15.6461 16.3532L16.3539 15.6468ZM23.6322 23.6468L15.6461 31.6468L16.3539 32.3532L24.34 24.3532L23.6322 23.6468ZM15.6461 16.3532L23.6322 24.3532L24.34 23.6468L16.3539 15.6468L15.6461 16.3532Z" fill="#999999"/>
<path d="M24.0146 24L23.6608 23.6468C23.4659 23.8419 23.4659 24.1581 23.6608 24.3532L24.0146 24ZM32.3546 16.3532L32.7079 15.9994L32.0001 15.2929L31.6469 15.6468L32.3546 16.3532ZM31.6469 32.3532L32.0001 32.7071L32.7079 32.0006L32.3546 31.6468L31.6469 32.3532ZM24.3685 24.3532L32.3546 16.3532L31.6469 15.6468L23.6608 23.6468L24.3685 24.3532ZM32.3546 31.6468L24.3685 23.6468L23.6608 24.3532L31.6469 32.3532L32.3546 31.6468Z" fill="#999999"/>
</svg>
