<svg viewBox="0 0 48 48" fill="none" xmlns="http://www.w3.org/2000/svg">
<path d="M39 6L43.5 4.5L42 9L39 6Z" fill="#999999"/>
<path d="M9 42L4.5 43.5L6 39L9 42Z" fill="#999999"/>
<path d="M43.5 43.5L42 39L39 42L43.5 43.5Z" fill="#999999"/>
<path d="M6 9L4.5 4.5L9 6L6 9Z" fill="#999999"/>
<path d="M5 43.0564L15.056 33.0004M43.4436 4.5564L32.4853 15.5147M43.0564 43L32.9971 32.9407M4.5564 4.5564L15.5147 15.5147M43.5 4.5L39 6L42 9L43.5 4.5ZM4.5 43.5L9 42L6 39L4.5 43.5ZM42 39L43.5 43.5L39 42L42 39ZM4.5 4.5L6 9L9 6L4.5 4.5Z" stroke="#999999" stroke-linejoin="round"/>
</svg>
