<svg viewBox="0 0 48 48" fill="none" xmlns="http://www.w3.org/2000/svg"><mask id="a" fill="#fff"><path d="M8.9999 22.8996C3.94109 24.1836.72192 26.1163.72192 28.2779c0 3.5761 8.81109 6.5259 20.18648 6.9482v-3.0022c-9.7136-.376-17.18659-2.671-17.18659-5.446 0-1.4359 2.00103-2.7433 5.27809-3.7229v-.1554zM36.9999 22.6648v-.1033c5.8823 1.2679 9.7219 3.3557 9.7219 5.7164 0 3.6435-9.1462 6.6368-20.832 6.9693l2.1329-1.4219-2.3595-1.573c10.1347-.2684 18.0586-2.6169 18.0586-5.4744 0-1.6362-2.5982-3.1056-6.7219-4.1131z"/><path d="M25.0227 33.8252l-7.1143-4.7428v9.4857l7.1143-4.7429z"/></mask><path d="M8.9999 22.8996C3.94109 24.1836.72192 26.1163.72192 28.2779c0 3.5761 8.81109 6.5259 20.18648 6.9482v-3.0022c-9.7136-.376-17.18659-2.671-17.18659-5.446 0-1.4359 2.00103-2.7433 5.27809-3.7229v-.1554zM36.9999 22.6648v-.1033c5.8823 1.2679 9.7219 3.3557 9.7219 5.7164 0 3.6435-9.1462 6.6368-20.832 6.9693l2.1329-1.4219-2.3595-1.573c10.1347-.2684 18.0586-2.6169 18.0586-5.4744 0-1.6362-2.5982-3.1056-6.7219-4.1131z" fill="#333"/><path d="M25.0227 33.8252l-7.1143-4.7428v9.4857l7.1143-4.7429z" fill="#333"/><path d="M.72192 28.2779h-1 1zm8.27798-5.3783h1V21.614l-1.24603.3163.24603.9693zm11.9085 12.3265l-.0371.9993 1.0371.0385v-1.0378h-1zm0-3.0022h1v-.962l-.9613-.0372-.0387.9992zm-17.18659-5.446h-1 1zM8.9999 23.055l.28638.9582.71362-.2133v-.7449h-1zm28-.4935l.2107-.9775-1.2107-.261v1.2385h1zm0 .1033h-1v.7851l.7627.1864.2373-.9715zm9.7219 5.6131h-1 1zm-20.832 6.9693l-.5547-.832-2.8959 1.9306 3.479-.099-.0284-.9996zm2.1329-1.4219l.5547.8321 1.248-.8321-1.248-.832-.5547.832zm-2.3595-1.573l-.0265-.9996-3.1506.0834 2.6224 1.7483.5547-.8321zm18.0586-5.4744h-1 1zm-25.8134 2.3045l.5547-.8321c-.3069-.2046-.7014-.2236-1.0266-.0496-.3251.174-.5281.5129-.5281.8817h1zm7.1143 4.7428l.5547.8321c.2782-.1855.4453-.4977.4453-.8321a.9999.9999 0 00-.4453-.832l-.5547.832zm-7.1143 4.7429h-1c0 .3688.203.7076.5281.8817.3252.174.7197.1549 1.0266-.0497l-.5547-.832zM1.72192 28.2779c0-.5494.42204-1.3118 1.77854-2.1744 1.31177-.8342 3.26768-1.6057 5.74546-2.2347l-.49205-1.9385c-2.58103.6551-4.7641 1.4919-6.32661 2.4855-1.51779.9652-2.70534 2.25-2.70534 3.8621h2zm19.22358 5.9489c-5.6235-.2088-10.5675-1.0419-14.07307-2.2385-1.75821-.6001-3.09871-1.273-3.9795-1.9628-.89379-.6999-1.17101-1.2968-1.17101-1.7476h-2c0 1.3372.82417 2.4501 1.93794 3.3223 1.12677.8823 2.70001 1.6438 4.56649 2.2809 3.74384 1.2779 8.89305 2.1308 14.64495 2.3443l.0742-1.9986zm-1.0371-2.0029v3.0022h2v-3.0022h-2zm-17.18659-5.446c0 1.1766.78811 2.1012 1.73666 2.7814.97427.6987 2.32453 1.2962 3.91454 1.7953 3.19279 1.0023 7.58319 1.6783 12.49669 1.8686l.0774-1.9985c-4.8001-.1859-9.003-.8453-11.97509-1.7783-1.49243-.4685-2.61752-.9885-3.348-1.5124-.75619-.5423-.9022-.9452-.9022-1.1561h-2zm5.99171-4.681c-1.68666.5042-3.11808 1.1126-4.15008 1.8257-1.00032.6913-1.84163 1.6385-1.84163 2.8553h2c0-.2191.15921-.6436.97866-1.2099.78778-.5444 1.99541-1.0795 3.58581-1.5548l-.57276-1.9163zm1.28638.9581v-.1554h-2v.1554h2zm26-.4935v.1033h2v-.1033h-2zm11.7219 5.7164c0-1.7557-1.4028-3.1256-3.1563-4.1347-1.8204-1.0476-4.3623-1.9142-7.3549-2.5592l-.4214 1.9551c2.8897.6228 5.2087 1.4341 6.7787 2.3376 1.6369.9419 2.1539 1.7962 2.1539 2.4012h2zm-21.8036 7.9689c5.9085-.1681 11.219-1.0088 15.0852-2.2936 1.9274-.6406 3.5521-1.4098 4.7156-2.3027 1.1482-.8812 2.0028-2.0103 2.0028-3.3726h-2c0 .4595-.2886 1.0708-1.2205 1.786-.9166.7035-2.3088 1.3865-4.1287 1.9913-3.6284 1.2058-8.7338 2.028-14.5112 2.1924l.0568 1.9992zm1.5498-3.2535l-2.1329 1.4219 1.1094 1.6641 2.1329-1.4219-1.1094-1.6641zm-2.3595.0911l2.3595 1.573 1.1094-1.6641-2.3595-1.573-1.1094 1.6641zm17.6133-6.3065c0 .2179-.1572.6392-.9671 1.2019-.7791.5414-1.9743 1.0742-3.55 1.5487-3.1381.9448-7.5592 1.5915-12.568 1.7242l.053 1.9993c5.1259-.1358 9.7341-.7976 13.0916-1.8085 1.6722-.5034 3.0914-1.1102 4.1147-1.8213.9925-.6896 1.8258-1.6334 1.8258-2.8443h-2zm-5.9592-3.1416c2.0155.4924 3.5875 1.0823 4.6308 1.7072 1.1042.6613 1.3284 1.1785 1.3284 1.4344h2c0-1.3803-1.0749-2.416-2.3007-3.1502-1.2867-.7707-3.0757-1.4192-5.1839-1.9343l-.4746 1.9429zm-19.4089 6.2781l7.1143 4.7429 1.1094-1.6641-7.1143-4.7429-1.1094 1.6641zm7.1143 3.0788l-7.1143 4.7428 1.1094 1.6641 7.1143-4.7428-1.1094-1.6641zm-7.5596-3.9108v9.4857h2v-9.4857h-2z" fill="#333" mask="url(#a)"/><path d="M13.9404 17.2458h1.2041c.4571 0 .791-.1582 1.002-.4746.2168-.3222.3252-.75.3252-1.2832 0-.5097-.1113-.9052-.334-1.1865-.2168-.2871-.5098-.4307-.8789-.4307-.3457 0-.6299.1348-.8526.4043-.2167.2696-.3251.6094-.3251 1.0196h-2.4873c0-.668.1523-1.2656.457-1.793.3105-.5332.7412-.9492 1.292-1.248.5566-.2989 1.1718-.4483 1.8457-.4483 1.1777 0 2.1006.3252 2.7685.9756.668.6504 1.002 1.541 1.002 2.6719 0 .5801-.1524 1.1191-.457 1.6172-.2989.4922-.6944.8701-1.1866 1.1338.6035.2578 1.0518.6445 1.3448 1.1601.2988.5156.4482 1.125.4482 1.8281 0 1.1368-.3633 2.0479-1.0898 2.7334-.7207.6856-1.67 1.0284-2.8477 1.0284-1.0957 0-1.9863-.337-2.6719-1.0108-.6797-.6797-1.0195-1.5703-1.0195-2.6719h2.4873c0 .4571.1201.8409.3603 1.1514.2403.3106.545.4658.9141.4658.4277 0 .7647-.1582 1.0108-.4746.2519-.3164.3779-.7383.3779-1.2656 0-1.2598-.4893-1.8926-1.4678-1.8984h-1.2217v-2.004zM26.0437 11.8494v2.1093h-.1407c-.9316.0059-1.6728.2871-2.2236.8438-.5449.5508-.876 1.3242-.9932 2.3203.5333-.6094 1.2012-.9141 2.004-.9141.9257 0 1.664.3955 2.2148 1.1866.5566.791.835 1.8457.835 3.164 0 .8379-.1582 1.5938-.4746 2.2676-.3165.6738-.7618 1.1982-1.336 1.5732-.5683.3692-1.2129.5538-1.9336.5538-1.1601 0-2.0918-.4659-2.7949-1.3975-.6973-.9316-1.0459-2.1856-1.0459-3.7617v-.9229c0-1.4121.2197-2.6484.6592-3.709.4453-1.0605 1.084-1.875 1.916-2.4433.8379-.5742 1.8135-.8643 2.9268-.8701h.3867zm-2.1358 6.416c-.3164 0-.583.0996-.7998.2988-.2109.1992-.3691.4453-.4746.7383v.8965c0 .9023.1201 1.5761.3604 2.0215.2402.4453.5566.6679.9492.6679.3984 0 .7178-.2138.958-.6416.2402-.4336.3603-.9873.3603-1.6611 0-.6856-.1259-1.2422-.3779-1.6699-.2461-.4336-.5713-.6504-.9756-.6504zM35.9321 19.4871c0 1.7695-.3223 3.123-.9668 4.0605-.6387.9375-1.5528 1.4063-2.7422 1.4063-1.1777 0-2.0889-.4541-2.7334-1.3623-.6387-.9141-.9697-2.2208-.9932-3.92v-2.417c0-1.7636.3194-3.1113.958-4.0429.6387-.9375 1.5557-1.4063 2.751-1.4063 1.1953 0 2.1123.4629 2.751 1.3887.6387.9258.9639 2.2471.9756 3.9639v2.3291zm-2.4961-2.5928c0-1.0078-.0996-1.7637-.2989-2.2676-.1992-.5039-.5097-.7559-.9316-.7559-.791 0-1.2012.9229-1.2305 2.7686v3.1904c0 1.0313.0996 1.7989.2989 2.3028.205.5039.5215.7558.9492.7558.4043 0 .7031-.2343.8965-.7031.1992-.4746.3047-1.1982.3164-2.1709v-3.1201zM37.1545 14.2312c0-.6738.2373-1.2451.7119-1.7139.4804-.4746 1.0429-.7119 1.6875-.7119.6386 0 1.1894.2373 1.6523.7119.4688.4688.7031 1.0401.7031 1.7139 0 .6797-.2343 1.251-.7031 1.7139-.4629.457-1.0137.6855-1.6523.6855-.6387 0-1.1983-.2285-1.6787-.6855-.4805-.4629-.7207-1.0342-.7207-1.7139zm2.3994 1.0898c.3105 0 .5654-.1054.7646-.3164.1992-.2109.2988-.4687.2988-.7734 0-.3047-.0996-.5684-.2988-.791-.1992-.2227-.4541-.334-.7646-.334-.3106 0-.5743.1113-.791.334-.211.2168-.3165.4805-.3165.791 0 .3105.1084.5713.3252.7822.2227.2051.4834.3076.7823.3076z" fill="#333"/></svg>