<svg viewBox="0 0 48 48" fill="none" xmlns="http://www.w3.org/2000/svg">
<path d="M18.7593 9.34921C18.3998 8.92988 17.7685 8.88132 17.3492 9.24074C16.9299 9.60017 16.8813 10.2315 17.2407 10.6508L18.7593 9.34921ZM30 24L30.7593 24.6508C31.0802 24.2763 31.0802 23.7237 30.7593 23.3492L30 24ZM17.2407 37.3492C16.8813 37.7685 16.9299 38.3998 17.3492 38.7593C17.7685 39.1187 18.3998 39.0701 18.7593 38.6508L17.2407 37.3492ZM17.2407 10.6508L29.2407 24.6508L30.7593 23.3492L18.7593 9.34921L17.2407 10.6508ZM29.2407 23.3492L17.2407 37.3492L18.7593 38.6508L30.7593 24.6508L29.2407 23.3492Z" fill="#999999"/>
</svg>
