<svg viewBox="0 0 24 48" fill="none" xmlns="http://www.w3.org/2000/svg">
<path d="M14.2426 23.8787L10 21.7574L10 26L14.2426 23.8787Z" fill="#999999"/>
<path d="M10 21.7574L10.2236 21.3101C10.0686 21.2326 9.88454 21.2409 9.73713 21.332C9.58973 21.4231 9.5 21.5841 9.5 21.7574L10 21.7574ZM14.2426 23.8787L14.4662 24.3259C14.6356 24.2412 14.7426 24.0681 14.7426 23.8787C14.7426 23.6893 14.6356 23.5162 14.4662 23.4315L14.2426 23.8787ZM10 26L9.5 26C9.5 26.1733 9.58973 26.3342 9.73713 26.4253C9.88454 26.5164 10.0686 26.5247 10.2236 26.4472L10 26ZM9.77639 22.2046L14.019 24.3259L14.4662 23.4315L10.2236 21.3101L9.77639 22.2046ZM14.019 23.4315L9.77639 25.5528L10.2236 26.4472L14.4662 24.3259L14.019 23.4315ZM9.5 21.7574L9.5 26L10.5 26L10.5 21.7574L9.5 21.7574Z" fill="#999999"/>
</svg>
