<svg viewBox="0 0 48 48" fill="none" xmlns="http://www.w3.org/2000/svg">
<path d="M23.6464 31.6464C23.4512 31.8417 23.4512 32.1583 23.6464 32.3536C23.8417 32.5488 24.1583 32.5488 24.3536 32.3536L23.6464 31.6464ZM32 24L32.3536 24.3536L32.7071 24L32.3536 23.6464L32 24ZM24.3536 15.6464C24.1583 15.4512 23.8417 15.4512 23.6464 15.6464C23.4512 15.8417 23.4512 16.1583 23.6464 16.3536L24.3536 15.6464ZM16 23.5C15.7239 23.5 15.5 23.7239 15.5 24C15.5 24.2761 15.7239 24.5 16 24.5V23.5ZM24.3536 32.3536L32.3536 24.3536L31.6464 23.6464L23.6464 31.6464L24.3536 32.3536ZM32.3536 23.6464L24.3536 15.6464L23.6464 16.3536L31.6464 24.3536L32.3536 23.6464ZM32 23.5H16V24.5H32V23.5Z" fill="#999999"/>
</svg>
