<svg viewBox="0 0 48 48" fill="none" xmlns="http://www.w3.org/2000/svg">
<path d="M3 45L2 45L2 46L3 46L3 45ZM4 33L4 32L2 32L2 33L4 33ZM15 46L16 46L16 44L15 44L15 46ZM4 45L4 33L2 33L2 45L4 45ZM15 44L3 44L3 46L15 46L15 44Z" fill="#999999"/>
<path d="M45 3L46 3L46 2L45 2L45 3ZM44 15L44 16L46 16L46 15L44 15ZM33 2L32 2L32 4L33 4L33 2ZM44 3L44 15L46 15L46 3L44 3ZM33 4L45 4L45 2L33 2L33 4Z" fill="#999999"/>
<path d="M45 45L45 46L46 46L46 45L45 45ZM33 44L32 44L32 46L33 46L33 44ZM46 33L46 32L44 32L44 33L46 33ZM45 44L33 44L33 46L45 46L45 44ZM44 33L44 45L46 45L46 33L44 33Z" fill="#999999"/>
<path d="M3 3L3 2L2 2L2 3L3 3ZM15 4L16 4L16 2L15 2L15 4ZM2 15L2 16L4 16L4 15L2 15ZM3 4L15 4L15 2L3 2L3 4ZM4 15L4 3L2 3L2 15L4 15Z" fill="#999999"/>
</svg>
