<svg viewBox="0 0 48 48" fill="none" xmlns="http://www.w3.org/2000/svg">
<path d="M8 40L7 40C7 40.5523 7.44772 41 8 41L8 40ZM9 28C9 27.4477 8.55228 27 8 27C7.44771 27 7 27.4477 7 28L9 28ZM20 41C20.5523 41 21 40.5523 21 40C21 39.4477 20.5523 39 20 39L20 41ZM9 40L9 28L7 28L7 40L9 40ZM20 39L8 39L8 41L20 41L20 39Z" fill="#999999"/>
<path d="M40 8L41 8C41 7.44772 40.5523 7 40 7L40 8ZM39 20C39 20.5523 39.4477 21 40 21C40.5523 21 41 20.5523 41 20L39 20ZM28 7C27.4477 7 27 7.44772 27 8C27 8.55228 27.4477 9 28 9L28 7ZM39 8L39 20L41 20L41 8L39 8ZM28 9L40 9L40 7L28 7L28 9Z" fill="#999999"/>
<path d="M8 8L8 7C7.44772 7 7 7.44772 7 8L8 8ZM20 9C20.5523 9 21 8.55228 21 8C21 7.44772 20.5523 7 20 7V9ZM7 20C7 20.5523 7.44771 21 8 21C8.55228 21 9 20.5523 9 20L7 20ZM8 9L20 9V7L8 7L8 9ZM9 20L9 8L7 8L7 20L9 20Z" fill="#999999"/>
<path d="M40 40L40 41C40.5523 41 41 40.5523 41 40L40 40ZM28 39C27.4477 39 27 39.4477 27 40C27 40.5523 27.4477 41 28 41L28 39ZM41 28C41 27.4477 40.5523 27 40 27C39.4477 27 39 27.4477 39 28L41 28ZM40 39L28 39L28 41L40 41L40 39ZM39 28L39 40L41 40L41 28L39 28Z" fill="#999999"/>
</svg>
