<svg viewBox="0 0 48 48" fill="none" xmlns="http://www.w3.org/2000/svg">
<path d="M4.5 43.5L4 43.5C4 43.7761 4.22386 44 4.5 44L4.5 43.5ZM5 31.5C5 31.2239 4.77614 31 4.5 31C4.22386 31 4 31.2239 4 31.5L5 31.5ZM16.5 44C16.7761 44 17 43.7761 17 43.5C17 43.2239 16.7761 43 16.5 43L16.5 44ZM5 43.5L5 31.5L4 31.5L4 43.5L5 43.5ZM16.5 43L4.5 43L4.5 44L16.5 44L16.5 43Z" fill="#999999"/>
<path d="M4.85355 43.8536L19.9099 28.7972L19.2028 28.0901L4.14645 43.1464L4.85355 43.8536Z" fill="#999999"/>
<path d="M43.5 4.5L44 4.5C44 4.22386 43.7761 4 43.5 4L43.5 4.5ZM43 16.5C43 16.7761 43.2239 17 43.5 17C43.7761 17 44 16.7761 44 16.5L43 16.5ZM31.5 4C31.2239 4 31 4.22386 31 4.5C31 4.77614 31.2239 5 31.5 5L31.5 4ZM43 4.5L43 16.5L44 16.5L44 4.5L43 4.5ZM31.5 5L43.5 5L43.5 4L31.5 4L31.5 5Z" fill="#999999"/>
<path d="M43.0901 4.20284L28.0901 19.2028L28.7972 19.9099L43.7972 4.90995L43.0901 4.20284Z" fill="#999999"/>
</svg>
