<svg viewBox="0 0 48 48" fill="none" xmlns="http://www.w3.org/2000/svg">
<path d="M6 42L5 42C5 42.5523 5.44772 43 6 43L6 42ZM7 30C7 29.4477 6.55228 29 6 29C5.44771 29 5 29.4477 5 30L7 30ZM18 43C18.5523 43 19 42.5523 19 42C19 41.4477 18.5523 41 18 41L18 43ZM7 42L7 30L5 30L5 42L7 42ZM18 41L6 41L6 43L18 43L18 41Z" fill="#999999"/>
<path d="M7.22151 42.3389L21.7677 27.7927L20.3535 26.3785L5.8073 40.9247L7.22151 42.3389Z" fill="#999999"/>
<path d="M42 6L43 6C43 5.44772 42.5523 5 42 5L42 6ZM41 18C41 18.5523 41.4477 19 42 19C42.5523 19 43 18.5523 43 18L41 18ZM30 5C29.4477 5 29 5.44772 29 6C29 6.55228 29.4477 7 30 7L30 5ZM41 6L41 18L43 18L43 6L41 6ZM30 7L42 7L42 5L30 5L30 7Z" fill="#999999"/>
<path d="M40.9247 5.8073L26.3785 20.3535L27.7927 21.7677L42.3389 7.22151L40.9247 5.8073Z" fill="#999999"/>
</svg>
