<svg viewBox="0 0 48 48" fill="none" xmlns="http://www.w3.org/2000/svg">
<g clip-path="url(#clip0)">
<!-- <rect width="48" height="48" fill="white"/> -->
<path fill-rule="evenodd" clip-rule="evenodd" d="M34.0134 16.5038L33.8801 26.777L25.4473 32.3973V22.5917L34.0134 16.5038ZM24.4473 22.5973V32.3417L15.4995 25.7469V16.4741L24.4473 22.5973ZM24.9419 21.724L15.9045 15.5395L24.9421 9.74097L33.6443 15.5393L24.9419 21.724Z" fill="rgba(255, 255, 255, 0.85)"/>
<path fill-rule="evenodd" clip-rule="evenodd" d="M35.9197 20.3354C35.8774 20.6846 35.8188 21.0289 35.7446 21.3672C36.0093 21.5037 36.2659 21.645 36.5139 21.7909C39.4346 23.5089 41 25.7377 41 28C41 30.2623 39.4346 32.4911 36.5139 34.2091C34.4951 35.3966 31.9082 36.2841 28.9866 36.7133C28.9956 36.8076 29 36.9033 29 37C29 37.1233 28.9924 37.2449 28.978 37.3643C28.9626 37.4902 28.9397 37.6137 28.9094 37.7343C36.4138 36.6954 42 32.7314 42 28C42 24.9226 39.6367 22.1699 35.9197 20.3354ZM14.2554 21.3672C14.1812 21.0289 14.1226 20.6846 14.0803 20.3354C10.3633 22.1699 8 24.9226 8 28C8 33.1553 14.6316 37.3994 23.1506 37.9415C23.0527 37.6454 23 37.3289 23 37L23.0007 36.9291C19.2654 36.6624 15.9519 35.6595 13.4861 34.2091C10.5654 32.4911 9 30.2623 9 28C9 25.7377 10.5654 23.5089 13.4861 21.7909C13.7341 21.645 13.9907 21.5037 14.2554 21.3672Z" fill="rgba(255, 255, 255, 0.85)"/>
<path d="M20.2571 34.1964L23.2501 37.1894L20.1981 40.198" stroke="rgba(255, 255, 255, 0.85)" stroke-linecap="round" stroke-linejoin="round"/>
</g>
<defs>
<clipPath id="clip0">
<!-- <rect width="48" height="48" fill="white"/> -->
<rect width="48" height="48"/>
</clipPath>
</defs>
</svg>
