<svg viewBox="0 0 48 48" fill="none" xmlns="http://www.w3.org/2000/svg">
<path d="M23.9706 24.4853L24.6777 25.1924C25.0683 24.8019 25.0683 24.1687 24.6777 23.7782L23.9706 24.4853ZM14.7782 32.2635C14.3877 32.654 14.3877 33.2871 14.7782 33.6777C15.1688 34.0682 15.8019 34.0682 16.1925 33.6777L14.7782 32.2635ZM16.1925 15.2929C15.8019 14.9024 15.1688 14.9024 14.7782 15.2929C14.3877 15.6834 14.3877 16.3166 14.7782 16.7071L16.1925 15.2929ZM23.2635 23.7782L14.7782 32.2635L16.1925 33.6777L24.6777 25.1924L23.2635 23.7782ZM14.7782 16.7071L23.2635 25.1924L24.6777 23.7782L16.1925 15.2929L14.7782 16.7071Z" fill="#999999"/>
<path d="M24.0002 24.4853L23.2931 23.7782C22.9026 24.1687 22.9026 24.8019 23.2931 25.1924L24.0002 24.4853ZM33.1926 16.7071C33.5832 16.3166 33.5832 15.6834 33.1926 15.2929C32.8021 14.9024 32.1689 14.9024 31.7784 15.2929L33.1926 16.7071ZM31.7784 33.6777C32.1689 34.0682 32.8021 34.0682 33.1926 33.6777C33.5832 33.2871 33.5832 32.654 33.1926 32.2635L31.7784 33.6777ZM24.7074 25.1924L33.1926 16.7071L31.7784 15.2929L23.2931 23.7782L24.7074 25.1924ZM33.1926 32.2635L24.7074 23.7782L23.2931 25.1924L31.7784 33.6777L33.1926 32.2635Z" fill="#999999"/>
</svg>
