<svg viewBox="0 0 48 48" fill="none" xmlns="http://www.w3.org/2000/svg">
<path d="M10 2H2V10L5.79303 6.20697L15.3104 15.724C15.5404 15.4826 15.7803 15.2508 16.0296 15.0292L6.50002 5.49998L10 2Z" fill="#999999"/>
<path d="M32.1829 15.2227C32.4267 15.4501 32.661 15.6875 32.8852 15.9343L42.41 6.40995L46 10V2H38L41.703 5.70296L32.1829 15.2227Z" fill="#999999"/>
<path d="M32.9711 31.9701C32.7495 32.2194 32.5177 32.4593 32.2763 32.6893L41.7937 42.2063L38 46H46V38L42.5006 41.4994L32.9711 31.9701Z" fill="#999999"/>
<path d="M15.934 32.8849C15.6872 32.6608 15.4498 32.4264 15.2224 32.1826L5.70234 41.7023L2 38V46H10L6.40933 42.4093L15.934 32.8849Z" fill="#999999"/>
</svg>
