<svg viewBox="0 0 58 58" fill="none" xmlns="http://www.w3.org/2000/svg">
<g opacity="0.7" filter="url(#filter0_dd)">
<path d="M9.5 44.5L8.5 44.5C8.5 45.0523 8.94772 45.5 9.5 45.5L9.5 44.5ZM10.5 32.5C10.5 31.9477 10.0523 31.5 9.5 31.5C8.94772 31.5 8.5 31.9477 8.5 32.5L10.5 32.5ZM21.5 45.5C22.0523 45.5 22.5 45.0523 22.5 44.5C22.5 43.9477 22.0523 43.5 21.5 43.5L21.5 45.5ZM10.5 44.5L10.5 32.5L8.5 32.5L8.5 44.5L10.5 44.5ZM21.5 43.5L9.5 43.5L9.5 45.5L21.5 45.5L21.5 43.5Z" fill="white"/>
<path d="M8.79289 43.7929C8.40237 44.1834 8.40237 44.8166 8.79289 45.2071C9.18342 45.5976 9.81658 45.5976 10.2071 45.2071L8.79289 43.7929ZM25.2635 30.1508C25.654 29.7602 25.654 29.1271 25.2635 28.7365C24.8729 28.346 24.2398 28.346 23.8492 28.7365L25.2635 30.1508ZM10.2071 45.2071L25.2635 30.1508L23.8492 28.7365L8.79289 43.7929L10.2071 45.2071Z" fill="white"/>
<path d="M48.5 5.5L49.5 5.5C49.5 4.94772 49.0523 4.5 48.5 4.5L48.5 5.5ZM47.5 17.5C47.5 18.0523 47.9477 18.5 48.5 18.5C49.0523 18.5 49.5 18.0523 49.5 17.5L47.5 17.5ZM36.5 4.5C35.9477 4.5 35.5 4.94772 35.5 5.5C35.5 6.05228 35.9477 6.5 36.5 6.5L36.5 4.5ZM47.5 5.5L47.5 17.5L49.5 17.5L49.5 5.5L47.5 5.5ZM36.5 6.5L48.5 6.5L48.5 4.5L36.5 4.5L36.5 6.5Z" fill="white"/>
<path d="M49.1507 6.2635C49.5412 5.87298 49.5412 5.23981 49.1507 4.84929C48.7602 4.45877 48.127 4.45877 47.7365 4.84929L49.1507 6.2635ZM32.7365 19.8493C32.346 20.2398 32.346 20.873 32.7365 21.2635C33.127 21.654 33.7602 21.654 34.1507 21.2635L32.7365 19.8493ZM47.7365 4.84929L32.7365 19.8493L34.1507 21.2635L49.1507 6.2635L47.7365 4.84929Z" fill="white"/>
</g>
<defs>
<filter id="filter0_dd" x="0.0856934" y="0.142212" width="57.772" height="57.772" filterUnits="userSpaceOnUse" color-interpolation-filters="sRGB">
<feFlood flood-opacity="0" result="BackgroundImageFix"/>
<feColorMatrix in="SourceAlpha" type="matrix" values="0 0 0 0 0 0 0 0 0 0 0 0 0 0 0 0 0 0 127 0"/>
<feOffset dy="4"/>
<feGaussianBlur stdDeviation="4"/>
<feColorMatrix type="matrix" values="0 0 0 0 0.184314 0 0 0 0 0.211765 0 0 0 0 0.247059 0 0 0 0.3 0"/>
<feBlend mode="normal" in2="BackgroundImageFix" result="effect1_dropShadow"/>
<feColorMatrix in="SourceAlpha" type="matrix" values="0 0 0 0 0 0 0 0 0 0 0 0 0 0 0 0 0 0 127 0"/>
<feOffset dy="2"/>
<feGaussianBlur stdDeviation="2"/>
<feColorMatrix type="matrix" values="0 0 0 0 0.184314 0 0 0 0 0.211765 0 0 0 0 0.247059 0 0 0 0.1 0"/>
<feBlend mode="normal" in2="effect1_dropShadow" result="effect2_dropShadow"/>
<feBlend mode="normal" in="SourceGraphic" in2="effect2_dropShadow" result="shape"/>
</filter>
</defs>
</svg>
