<svg viewBox="0 0 48 48" fill="none" xmlns="http://www.w3.org/2000/svg"><mask id="a" fill="#fff"><path d="M10.1131 26.8761l1.648-.208c.2026 1.2587.8746 1.888 2.016 1.888.5973 0 1.0773-.1867 1.44-.56.3733-.384.56-.9173.56-1.6 0-.704-.1867-1.2427-.56-1.616-.3627-.384-.8427-.576-1.44-.576-.32 0-.6454.0747-.976.224l-.672-.896 2.32-3.232h-3.792v-1.536h6.24v.576l-2.72 3.712c.128-.032.2826-.048.464-.048.8533 0 1.536.32 2.048.96.5226.6293.784 1.44.784 2.432 0 1.0667-.3574 1.952-1.072 2.656-.704.6933-1.5787 1.04-2.624 1.04-.9707 0-1.808-.304-2.512-.912-.704-.608-1.088-1.376-1.152-2.304zM22.2871 22.7961c1.024 0 1.8613.3413 2.512 1.024.6506.6827.976 1.5573.976 2.624 0 1.0347-.3414 1.904-1.024 2.608-.672.6933-1.5254 1.04-2.56 1.04-1.0347 0-1.8934-.3467-2.576-1.04-.672-.704-1.008-1.5733-1.008-2.608 0-.7147.1813-1.392.544-2.032l3.328-5.776h1.888l-2.448 4.224c.0853-.0427.208-.064.368-.064zm-1.984 3.648c0 .6187.176 1.1253.528 1.52.352.3947.8053.592 1.36.592.5546 0 1.008-.1973 1.36-.592.352-.3947.528-.9013.528-1.52 0-.6507-.176-1.1627-.528-1.536-.3414-.384-.7947-.576-1.36-.576-.5654 0-1.024.192-1.376.576-.3414.3733-.512.8853-.512 1.536zM28.0856 20.1561c.6933-1.0133 1.6906-1.52 2.992-1.52 1.3013 0 2.2986.5067 2.992 1.52.6933 1.0133 1.04 2.416 1.04 4.208 0 1.792-.3467 3.1947-1.04 4.208-.6934 1.0133-1.6907 1.52-2.992 1.52-1.3014 0-2.2987-.5067-2.992-1.52-.6934-1.0133-1.04-2.416-1.04-4.208 0-1.792.3466-3.1947 1.04-4.208zm4.736 1.104c-.384-.7253-.9654-1.088-1.744-1.088-.7787 0-1.3654.3627-1.76 1.088-.384.7253-.576 1.76-.576 3.104s.192 2.3787.576 3.104c.3946.7253.9813 1.088 1.76 1.088.7786 0 1.36-.3627 1.744-1.088.3946-.7253.592-1.76.592-3.104s-.1974-2.3787-.592-3.104zM37.1709 21.7561c-.3413-.3413-.512-.768-.512-1.28s.1707-.9333.512-1.264c.3414-.3413.7787-.512 1.312-.512.5334 0 .9707.1707 1.312.512.3414.3307.512.752.512 1.264s-.1706.9387-.512 1.28c-.3413.3307-.7786.496-1.312.496-.5333 0-.9706-.1653-1.312-.496zm.832-1.76c-.1173.1173-.176.2773-.176.48s.0587.368.176.496c.1174.1173.2774.176.48.176.2027 0 .3627-.0587.48-.176.1174-.128.176-.2933.176-.496s-.0586-.3627-.176-.48c-.1173-.128-.2773-.192-.48-.192-.2026 0-.3626.064-.48.192z"/><path d="M24.19 43.1603c-.0633.0006-.1267.0009-.1901.0009-10.5825 0-19.16128-8.5788-19.16128-19.1613 0-10.5825 8.57878-19.16128 19.16128-19.16128 10.5825 0 19.1613 8.57878 19.1613 19.16128 0 8.8891-6.0529 16.3644-14.2619 18.5292l1.7475 1.0397c8.15-2.7675 14.0144-10.4833 14.0144-19.5689 0-11.4109-9.2504-20.66128-20.6613-20.66128S3.33862 12.589 3.33862 23.9999c0 11.4109 9.25038 20.6613 20.66128 20.6613.0511 0 .1021-.0002.1531-.0005l.037-1.5004z"/><path d="M19.9755 39.7771l6.7954 4.0427-6.9946 4.0422.1992-8.0849z"/></mask><path d="M10.1131 26.8761l1.648-.208c.2026 1.2587.8746 1.888 2.016 1.888.5973 0 1.0773-.1867 1.44-.56.3733-.384.56-.9173.56-1.6 0-.704-.1867-1.2427-.56-1.616-.3627-.384-.8427-.576-1.44-.576-.32 0-.6454.0747-.976.224l-.672-.896 2.32-3.232h-3.792v-1.536h6.24v.576l-2.72 3.712c.128-.032.2826-.048.464-.048.8533 0 1.536.32 2.048.96.5226.6293.784 1.44.784 2.432 0 1.0667-.3574 1.952-1.072 2.656-.704.6933-1.5787 1.04-2.624 1.04-.9707 0-1.808-.304-2.512-.912-.704-.608-1.088-1.376-1.152-2.304zM22.2871 22.7961c1.024 0 1.8613.3413 2.512 1.024.6506.6827.976 1.5573.976 2.624 0 1.0347-.3414 1.904-1.024 2.608-.672.6933-1.5254 1.04-2.56 1.04-1.0347 0-1.8934-.3467-2.576-1.04-.672-.704-1.008-1.5733-1.008-2.608 0-.7147.1813-1.392.544-2.032l3.328-5.776h1.888l-2.448 4.224c.0853-.0427.208-.064.368-.064zm-1.984 3.648c0 .6187.176 1.1253.528 1.52.352.3947.8053.592 1.36.592.5546 0 1.008-.1973 1.36-.592.352-.3947.528-.9013.528-1.52 0-.6507-.176-1.1627-.528-1.536-.3414-.384-.7947-.576-1.36-.576-.5654 0-1.024.192-1.376.576-.3414.3733-.512.8853-.512 1.536zM28.0856 20.1561c.6933-1.0133 1.6906-1.52 2.992-1.52 1.3013 0 2.2986.5067 2.992 1.52.6933 1.0133 1.04 2.416 1.04 4.208 0 1.792-.3467 3.1947-1.04 4.208-.6934 1.0133-1.6907 1.52-2.992 1.52-1.3014 0-2.2987-.5067-2.992-1.52-.6934-1.0133-1.04-2.416-1.04-4.208 0-1.792.3466-3.1947 1.04-4.208zm4.736 1.104c-.384-.7253-.9654-1.088-1.744-1.088-.7787 0-1.3654.3627-1.76 1.088-.384.7253-.576 1.76-.576 3.104s.192 2.3787.576 3.104c.3946.7253.9813 1.088 1.76 1.088.7786 0 1.36-.3627 1.744-1.088.3946-.7253.592-1.76.592-3.104s-.1974-2.3787-.592-3.104zM37.1709 21.7561c-.3413-.3413-.512-.768-.512-1.28s.1707-.9333.512-1.264c.3414-.3413.7787-.512 1.312-.512.5334 0 .9707.1707 1.312.512.3414.3307.512.752.512 1.264s-.1706.9387-.512 1.28c-.3413.3307-.7786.496-1.312.496-.5333 0-.9706-.1653-1.312-.496zm.832-1.76c-.1173.1173-.176.2773-.176.48s.0587.368.176.496c.1174.1173.2774.176.48.176.2027 0 .3627-.0587.48-.176.1174-.128.176-.2933.176-.496s-.0586-.3627-.176-.48c-.1173-.128-.2773-.192-.48-.192-.2026 0-.3626.064-.48.192z" fill="#fff"/><path d="M24.19 43.1603c-.0633.0006-.1267.0009-.1901.0009-10.5825 0-19.16128-8.5788-19.16128-19.1613 0-10.5825 8.57878-19.16128 19.16128-19.16128 10.5825 0 19.1613 8.57878 19.1613 19.16128 0 8.8891-6.0529 16.3644-14.2619 18.5292l1.7475 1.0397c8.15-2.7675 14.0144-10.4833 14.0144-19.5689 0-11.4109-9.2504-20.66128-20.6613-20.66128S3.33862 12.589 3.33862 23.9999c0 11.4109 9.25038 20.6613 20.66128 20.6613.0511 0 .1021-.0002.1531-.0005l.037-1.5004z" fill="#fff"/><path d="M19.9755 39.7771l6.7954 4.0427-6.9946 4.0422.1992-8.0849z" fill="#fff"/><path d="M10.1131 26.8761l-.18786-1.4882-1.40613.1775.09751 1.4139 1.49648-.1032zm1.648-.208l1.4809-.2384-.2305-1.4313-1.4383.1815.1879 1.4882zm3.456 1.328l-1.0755-1.0456-.0004.0004 1.0759 1.0452zm0-3.216L14.1266 25.81l.0147.0156.0151.0152 1.0607-1.0607zm-2.416-.352l-1.2.9.7215.962 1.0959-.4949-.6174-1.3671zm-.672-.896l-1.2186-.8747-.6418.8942.6604.8805 1.2-.9zm2.32-3.232l1.2185.8747 1.7046-2.3747h-2.9231v1.5zm-3.792 0H9.15707v1.5h1.50003v-1.5zm0-1.536v-1.5H9.15707v1.5h1.50003zm6.24 0h1.5v-1.5h-1.5v1.5zm0 .576l1.2099.8866.2901-.3958v-.4908h-1.5zm-2.72 3.712l-1.21-.8866-2.4538 3.3487 4.0276-1.0069-.3638-1.4552zm2.512.912l-1.1713.9371.0086.0107.0087.0106 1.154-.9584zm-.288 5.088l1.0525 1.0687.0001-.0001-1.0526-1.0686zm-5.136.128l.9804-1.1352-.9804 1.1352zm13.534-5.36l-1.0858 1.0349 1.0858-1.0349zm-.048 5.232l-1.0769-1.0442-.0002.0003 1.0771 1.0439zm-5.136 0L18.53 30.0878l.0081.0084.0081.0083 1.0689-1.0524zm-.464-4.64l-1.2998-.7489-.0053.0094 1.3051.7395zm3.328-5.776v-1.5h-.8669l-.4328.7512 1.2997.7488zm1.888 0l1.2978.7521 1.3052-2.2521h-2.603v1.5zm-2.448 4.224l-1.2978-.7521-2.5117 4.3339 4.4803-2.2401-.6708-1.3417zm-1.088 5.104l1.1194-.9984-1.1194.9984zm2.72 0l1.1194.9984-1.1194-.9984zm0-3.056l-1.1211.9966.0146.0164.0151.016 1.0914-1.029zm-2.736 0l-1.1058-1.0136-.0013.0015 1.1071 1.0121zm7.2705-4.752l-1.238-.847 1.238.847zm5.984 0l1.2379-.847-1.2379.847zm-5.984 8.416l1.2379-.847-1.2379.847zm4.736-7.312l-1.3257.7018.004.0076.0041.0075 1.3176-.7169zm-3.504 0L28 20.5432l-.0041.0075-.004.0076 1.3257.7018zm0 6.208l-1.3257.7018.004.0076.0041.0075 1.3176-.7169zm3.504 0l-1.3176-.7169-.0041.0075-.004.0076 1.3257.7018zm4.3493-5.712l-1.0606 1.0607.0084.0084.0086.0083 1.0436-1.0774zm0-2.544l1.0437 1.0774.0086-.0083.0084-.0084-1.0607-1.0607zm2.624 0l-1.0606 1.0607.0084.0084.0086.0083 1.0436-1.0774zm0 2.544l1.0437 1.0774.0086-.0083.0084-.0084-1.0607-1.0607zm-1.792-1.76l1.0607 1.0607.0231-.0231.022-.024-1.1058-1.0136zm0 .976l-1.1057 1.0136.022.024.0231.0231 1.0606-1.0607zm.96 0l1.0607 1.0607.0231-.0231.022-.024-1.1058-1.0136zm0-.976l-1.1057 1.0136.022.024.0231.0231 1.0606-1.0607zM24.19 43.1603l1.4995.0369.0382-1.5519-1.5523.0151.0146 1.4999zm4.7093-.6312l-.3825-1.4504-3.457.9117 3.0726 1.8279.7669-1.2892zm1.7475 1.0397l-.7669 1.2891.5944.3536.6548-.2224-.4823-1.4203zm-6.4938 1.0919l.0109 1.4999 1.4529-.0105.0357-1.4525-1.4995-.0369zm-4.1775-4.8836l.7669-1.2891-2.2033-1.3108-.0632 2.563 1.4996.0369zm-.1992 8.0849l-1.4995-.0369-.0659 2.6741 2.316-1.3384-.7506-1.2988zm6.9946-4.0422l.7505 1.2987 2.2148-1.28-2.1984-1.3079-.7669 1.2892zm-16.47-15.4555l1.648-.208-.3757-2.9764-1.64796.208.37566 2.9764zm-.0208-1.4577c.1342.8332.455 1.6575 1.1116 2.2724.6768.6337 1.5296.8771 2.3854.8771v-3c-.1488 0-.2344-.0206-.2762-.0351-.0369-.0128-.0503-.0241-.0585-.0317-.0154-.0145-.1319-.1342-.2004-.5596l-2.9619.4769zm3.497 3.1495c.9374 0 1.8283-.307 2.5159-1.0148l-2.1518-2.0904c-.0378.0389-.1069.1052-.3641.1052v3zm2.5155-1.0144c.7147-.7352.9845-1.6845.9845-2.6456h-3c0 .4042-.1036.5216-.1355.5544l2.151 2.0912zm.9845-2.6456c0-.9648-.2608-1.938-.9994-2.6766l-2.1213 2.1213c.0081.008.1207.1121.1207.5553h3zm-.9695-2.6459c-.6844-.7247-1.5799-1.0461-2.5305-1.0461v3c.244 0 .3085.0626.3495.1059l2.181-2.0598zm-2.5305-1.0461c-.5597 0-1.0947.1317-1.5934.357l1.2348 2.7341c.1626-.0735.2782-.0911.3586-.0911v-3zm.224.824l-.672-.896-2.4 1.8.672.896 2.4-1.8zm-.6535.8787l2.32-3.232-2.4371-1.7494-2.32 3.232 2.4371 1.7494zm1.1015-5.6067h-3.792v3h3.792v-3zm-2.292 1.5v-1.536H9.15707v1.536h3.00003zm-1.5-.036h6.24v-3h-6.24v3zm4.74-1.5v.576h3v-.576h-3zm.29-.3106l-2.72 3.712 2.4199 1.7732 2.72-3.712-2.4199-1.7732zm-1.1462 6.0538c-.0157.004-.0163.0028.0025.0008.0185-.0019.0503-.004.0977-.004v-3c-.2618 0-.5459.0223-.8278.0928l.7276 2.9104zm.1002-.0032c.4193 0 .6626.1295.8767.3971l2.3426-1.8741c-.81-1.0125-1.932-1.523-3.2193-1.523v3zm.894.4184c.2542.306.438.7544.438 1.4736h3c0-1.2648-.3389-2.4377-1.1301-3.3903l-2.3079 1.9167zm.438 1.4736c0 .6932-.2157 1.1846-.6247 1.5874l2.1053 2.1372c1.0204-1.0051 1.5194-2.2845 1.5194-3.7246h-3zm-.6246 1.5873c-.4058.3997-.8947.6087-1.5714.6087v3c1.4139 0 2.6744-.4843 3.6765-1.4713l-2.1051-2.1374zm-1.5714.6087c-.6278 0-1.1127-.1854-1.5316-.5472l-1.9609 2.2704c.9891.8543 2.1789 1.2768 3.4925 1.2768v-3zm-1.5316-.5472c-.4013-.3466-.5995-.743-.636-1.272l-2.99288.2064c.09153 1.3271.66129 2.4666 1.66798 3.336l1.9609-2.2704zm10.0416-3.7488c.6528 0 1.0845.2004 1.4262.5589l2.1716-2.0698c-.9597-1.0069-2.2026-1.4891-3.5978-1.4891v3zm1.4262.5589c.3493.3665.5618.8532.5618 1.5891h3c0-1.3974-.4382-2.6601-1.3902-3.6589l-2.1716 2.0698zm.5618 1.5891c0 .6686-.2057 1.1563-.6009 1.5638l2.1537 2.0884c.9702-1.0004 1.4472-2.2514 1.4472-3.6522h-3zm-.6011 1.5641c-.3678.3794-.8219.5839-1.4829.5839v3c1.4083 0 2.6608-.4888 3.6371-1.496l-2.1542-2.0879zm-1.4829.5839c-.6612 0-1.1257-.205-1.5072-.5924l-2.1377 2.1048c.9839.9993 2.2367 1.4876 3.6449 1.4876v-3zm-1.491-.5757c-.3877-.4062-.593-.8966-.593-1.5723h-3c0 1.3936.4666 2.6419 1.4229 3.6437l2.1701-2.0714zm-.593-1.5723c0-.4476.1102-.8711.349-1.2925l-2.6101-1.479c-.4865.8586-.7389 1.7898-.7389 2.7715h3zm.3437-1.2831l3.328-5.776-2.5994-1.4977-3.328 5.776 2.5994 1.4977zm2.0283-5.0249h1.888v-3h-1.888v3zm.5902-2.2521l-2.448 4.224 2.5956 1.5042 2.448-4.224-2.5956-1.5042zm-.4794 6.3178c-.1207.0603-.2166.081-.2578.0881-.0435.0076-.0618.0062-.045.0062v-3c-.2549 0-.6495.0277-1.0388.2224l1.3416 2.6833zm-3.7868 2.2423c0 .9206.2706 1.8032.9085 2.5184l2.2389-1.9968c-.0661-.0741-.1474-.2048-.1474-.5216h-3zm.9085 2.5184c.652.7311 1.5209 1.0936 2.4795 1.0936v-3c-.0965 0-.1413-.0164-.1574-.0233-.0142-.0062-.0413-.0201-.0832-.0671l-2.2389 1.9968zm2.4795 1.0936c.9585 0 1.8274-.3625 2.4794-1.0936l-2.2389-1.9968c-.0419.047-.0689.0609-.0832.0671-.016.0069-.0609.0233-.1573.0233v3zm2.4794-1.0936c.6379-.7152.9086-1.5978.9086-2.5184h-3c0 .3168-.0814.4475-.1475.5216l2.2389 1.9968zm.9086-2.5184c0-.9264-.2571-1.8443-.9366-2.565l-2.1828 2.058c.0244.0259.1194.1321.1194.507h3zm-.9069-2.5325c-.6565-.7386-1.5355-1.0795-2.4811-1.0795v3c.1112 0 .1628.0184.179.0252.0126.0054.0305.0143.0599.0474l2.2422-1.9931zm-2.4811-1.0795c-.9457 0-1.8196.3401-2.4818 1.0624l2.2115 2.0272c.0419-.0457.0853-.0896.2703-.0896v-3zM19.708 23.896c-.66.7218-.9049 1.6335-.9049 2.5481h3c0-.3867.0964-.4991.119-.5238L19.708 23.896zm9.6155-2.8929c.3945-.5765.9127-.867 1.7541-.867v-3c-1.7613 0-3.2378.7228-4.23 2.173l2.4759 1.694zm1.7541-.867c.8413 0 1.3596.2905 1.754.867l2.4759-1.694c-.9922-1.4502-2.4686-2.173-4.2299-2.173v3zm1.754.867c.4608.6735.778 1.7392.778 3.361h3c0-1.9622-.3762-3.7018-1.3021-5.055l-2.4759 1.694zm.778 3.361c0 1.6218-.3172 2.6875-.778 3.361l2.4759 1.694c.9259-1.3532 1.3021-3.0928 1.3021-5.055h-3zm-.778 3.361c-.3944.5765-.9127.867-1.754.867v3c1.7613 0 3.2377-.7228 4.2299-2.173l-2.4759-1.694zm-1.754.867c-.8414 0-1.3596-.2905-1.7541-.867l-2.4759 1.694c.9922 1.4502 2.4687 2.173 4.23 2.173v-3zm-1.7541-.867c-.4608-.6735-.7779-1.7392-.7779-3.361h-3c0 1.9622.3761 3.7018 1.302 5.055l2.4759-1.694zm-.7779-3.361c0-1.6218.3171-2.6875.7779-3.361l-2.4759-1.694c-.9259 1.3532-1.302 3.0928-1.302 5.055h3zm5.6017-3.8058c-.2913-.5502-.7-1.0401-1.2558-1.3868-.5601-.3494-1.1831-.4994-1.8139-.4994v3c.1478 0 .2048.0314.226.0447.0255.0159.0995.07.1923.2451l2.6514-1.4036zm-3.0697-1.8862c-.6311 0-1.2529.15-1.8128.4961-.5552.3433-.9674.8284-1.2648 1.375l2.6352 1.4338c.0972-.1787.1757-.2376.2071-.257.0268-.0166.0877-.0479.2353-.0479v-3zm-3.0857 1.8862c-.5493 1.0375-.7503 2.3556-.7503 3.8058h3c0-1.2378.1829-1.989.4017-2.4022l-2.6514-1.4036zm-.7503 3.8058c0 1.4502.201 2.7683.7503 3.8058l2.6514-1.4036c-.2188-.4132-.4017-1.1644-.4017-2.4022h-3zM28 28.185c.2974.5466.7096 1.0318 1.2648 1.375.5599.3461 1.1817.4961 1.8128.4961v-3c-.1476 0-.2085-.0313-.2353-.0479-.0314-.0194-.1099-.0783-.2071-.257L28 28.185zm3.0776 1.8711c.6308 0 1.2538-.1499 1.8139-.4993.5558-.3468.9645-.8367 1.2558-1.3869l-2.6514-1.4036c-.0928.1752-.1668.2292-.1923.2452-.0212.0132-.0782.0446-.226.0446v3zm3.0616-1.8711c.567-1.0421.7744-2.3666.7744-3.8209h-3c0 1.2337-.1873 1.9786-.4096 2.3871l2.6352 1.4338zm.7744-3.8209c0-1.4543-.2074-2.7787-.7744-3.8209L31.504 21.977c.2223.4085.4096 1.1534.4096 2.3871h3zm3.318-3.6686c-.0416-.0417-.0727-.0784-.0727-.2194h-3c0 .8831.3104 1.6996.9514 2.3407l2.1213-2.1213zm-.0727-.2194c0-.0872.014-.1263.0183-.1368.0033-.0082.0099-.0231.0374-.0498l-2.0873-2.1547c-.6572.6366-.9684 1.4581-.9684 2.3413h3zm.0727-.2033c.0292-.0293.0701-.0727.2513-.0727v-3c-.8853 0-1.7192.2979-2.3726.9514l2.1213 2.1213zm.2513-.0727c.1813 0 .2221.0434.2514.0727l2.1213-2.1213c-.6534-.6535-1.4873-.9514-2.3727-.9514v3zm.2684.0894c.0275.0267.034.0416.0374.0498.0042.0105.0182.0496.0182.1368h3c0-.8832-.3111-1.7047-.9683-2.3413l-2.0873 2.1547zm.0556.1866c0 .141-.031.1777-.0726.2194l2.1213 2.1213c.641-.6411.9513-1.4576.9513-2.3407h-3zm-.0556.2027c-.0265.0255-.0728.0733-.2684.0733v3c.8712 0 1.6995-.2829 2.3557-.9186l-2.0873-2.1547zm-.2684.0733c-.1955 0-.2418-.0478-.2683-.0733l-2.0873 2.1547c.6562.6357 1.4845.9186 2.3556.9186v-3zm-1.5406-1.8166c-.4586.4586-.6154 1.0339-.6154 1.5406h3c0 .0423-.0061.131-.0476.2444-.0436.1188-.1161.2367-.2157.3363l-2.1213-2.1213zm-.6154 1.5406c0 .5111.1576 1.0593.5703 1.5096l2.2115-2.0272c.0787.0859.1387.1871.1759.292.0359.1013.0423.1821.0423.2256h-3zm.6154 1.5567c.4586.4586 1.0339.6153 1.5406.6153v-3c.0424 0 .131.0061.2444.0477.1189.0436.2367.1161.3363.2157l-2.1213 2.1213zm1.5406.6153c.5068 0 1.0821-.1567 1.5407-.6153l-2.1213-2.1213c.0996-.0996.2174-.1721.3363-.2157.1134-.0416.202-.0477.2443-.0477v3zm1.5858-.6624c.4127-.4503.5702-.9985.5702-1.5096h-3c0-.0435.0065-.1243.0424-.2256.0372-.1049.0972-.2061.1759-.292l2.2115 2.0272zm.5702-1.5096c0-.5067-.1567-1.082-.6153-1.5406l-2.1213 2.1213c-.0996-.0996-.1721-.2175-.2157-.3363-.0416-.1134-.0477-.2021-.0477-.2444h3zm-.5702-1.4936c-.4496-.4904-1.0396-.6784-1.5858-.6784v3c-.0564 0-.1596-.0091-.285-.0593-.1307-.0522-.2484-.1345-.3407-.2351l2.2115-2.0272zm-1.5858-.6784c-.5461 0-1.1361.188-1.5857.6784l2.2115 2.0272c-.0923.1006-.21.1829-.3407.2351-.1254.0502-.2286.0593-.2851.0593v-3zm-14.483 26.3571c.0683 0 .1365-.0003.2046-.001l-.0291-2.9998c-.0584.0005-.1169.0008-.1755.0008v3zM3.33862 23.9999c0 11.4109 9.25038 20.6613 20.66128 20.6613v-3c-9.754 0-17.66128-7.9072-17.66128-17.6613h-3zM23.9999 3.33862c-11.4109 0-20.66128 9.25038-20.66128 20.66128h3c0-9.754 7.90728-17.66128 17.66128-17.66128v-3zM44.6612 23.9999c0-11.4109-9.2504-20.66128-20.6613-20.66128v3c9.7541 0 17.6613 7.90728 17.6613 17.66128h3zM29.2818 43.9796c8.8512-2.3342 15.3794-10.3926 15.3794-19.9797h-3c0 8.1912-5.5776 15.0834-13.1444 17.0788l.765 2.9009zm-1.1494-.1613l1.7475 1.0396 1.5338-2.5783-1.7475-1.0396-1.5338 2.5783zm2.9967 1.1708c8.7399-2.9677 15.0321-11.2417 15.0321-20.9892h-3c0 8.4236-5.4366 15.5814-12.9967 18.1485l.9646 2.8407zm15.0321-20.9892c0-12.2393-9.9219-22.16128-22.1613-22.16128v3c10.5825 0 19.1613 8.57878 19.1613 19.16128h3zM23.9999 1.83862c-12.2393 0-22.16128 9.92198-22.16128 22.16128h3c0-10.5825 8.57878-19.16128 19.16128-19.16128v-3zM1.83862 23.9999c0 12.2394 9.92198 22.1613 22.16128 22.1613v-3c-10.5825 0-19.16128-8.5788-19.16128-19.1613h-3zM23.9999 46.1612c.0547 0 .1094-.0002.164-.0006l-.0218-2.9999c-.0474.0003-.0948.0005-.1422.0005v3zm-4.7913-5.095l6.7953 4.0427 1.5339-2.5783-6.7954-4.0426-1.5338 2.5782zm6.8117 1.4548l-6.9945 4.0423 1.5011 2.5975 6.9945-4.0423-1.5011-2.5975zm-.3678 2.1766l.037-1.5004-2.9991-.0738-.0369 1.5003 2.999.0739zm-7.1766-4.9574l-.1991 8.0849 2.9991.0739.1991-8.085-2.9991-.0738z" fill="#fff" mask="url(#a)"/></svg>