<svg viewBox="0 0 48 48" fill="none" xmlns="http://www.w3.org/2000/svg"><path d="M36.3377 4.06282l-2.1523 3.37155a19.62277 19.62277 0 00-1.4826-.85777l1.85-3.5465a23.61224 23.61224 0 011.7849 1.03272zM32.6842 2.1573L31.152 5.85221a19.46592 19.46592 0 00-1.6076-.58525l1.2018-3.81519c.659.20756 1.3054.44321 1.938.70553zM28.7546.91937l-.8623 3.90596a19.55223 19.55223 0 00-1.686-.29538l.5173-3.9664a23.55738 23.55738 0 012.031.35582zM24.6686.3859l-.1717 3.99631a20.05351 20.05351 0 00-.8604-.01844c-.2885 0-.5753.0062-.8603.01844L22.6045.3859c.3422-.0147.6862-.02213 1.032-.02213s.6899.00743 1.0321.02213zM20.5494.56355l.5174 3.9664a19.55452 19.55452 0 00-1.6861.29538L18.5185.91937a23.54835 23.54835 0 012.0309-.35582zM16.5268 1.45177l1.2018 3.81519a19.45413 19.45413 0 00-1.6075.58525L14.5888 2.1573a23.4653 23.4653 0 011.938-.70553zM12.7203 3.0301l1.8499 3.5465c-.5074.26468-1.002.551-1.4825.85777l-2.1524-3.37155a23.59799 23.59799 0 011.785-1.03272zM9.24713 5.24704l2.43727 3.17168a19.78007 19.78007 0 00-1.3132 1.10305l-2.70312-2.9484a23.76073 23.76073 0 011.57905-1.32633zM6.20984 8.03161l2.9484 2.70309a19.75625 19.75625 0 00-1.10305 1.3133L4.88351 9.61066a23.76073 23.76073 0 011.32633-1.57905zM3.69929 11.2988l3.37156 2.1524a19.6032 19.6032 0 00-.85778 1.4826l-3.54649-1.85a23.61754 23.61754 0 011.03271-1.785zM1.79378 14.9524l3.6949 1.5322a19.51097 19.51097 0 00-.22703.5729 19.91936 19.91936 0 00-.41794 1.0158l-3.75546-1.183c.20756-.6589.4432-1.3053.70553-1.9379zM4.30265 19.7091a19.90046 19.90046 0 00-.39947 1.6869l-3.70316-.4831a23.55548 23.55548 0 01.35582-2.0309l3.74681.8271zM3.65034 23.1239a20.23576 20.23576 0 00-.10222 1.7567l-3.52575.1515A24.04697 24.04697 0 01.00024 24c0-.3457.00743-.6898.02213-1.032l3.62797.1559zM3.59844 26.6439c.0428.5933.11144 1.1794.2048 1.7573l-3.2474.7169a23.55548 23.55548 0 01-.35581-2.0309l3.39841-.4433zM4.16443 30.1408a19.9015 19.9015 0 00.51796 1.7091l-2.88861 1.1978a23.45948 23.45948 0 01-.70553-1.9379l3.07618-.969zM5.35523 33.5138c.25106.5485.52614 1.0837.8239 1.6044L3.6993 36.7013a23.61425 23.61425 0 01-1.03272-1.785l2.68865-1.4025zM7.14865 36.6488c.34779.4979.71761.9794 1.10806 1.4431l-2.04687 1.8766a23.77235 23.77235 0 01-1.32633-1.5791l2.26514-1.7406zM9.49484 39.4342a20.2382 20.2382 0 001.35836 1.2289l-1.60607 2.09a23.78871 23.78871 0 01-1.57905-1.3264l1.82676-1.9925zM12.3209 41.7668c.5057.3454 1.028.6685 1.5655.9677L12.7203 44.97a23.59777 23.59777 0 01-1.785-1.0327l1.3856-2.1705zM15.5368 43.5567c.561.248 1.1354.4712 1.7219.6683l-.7319 2.3233a23.45053 23.45053 0 01-1.938-.7055l.948-2.2861zM19.0369 44.7324c.597.141 1.2043.2555 1.8206.3422l-.3081 2.3619a23.52331 23.52331 0 01-2.0309-.3558l.5184-2.3483zM22.7061 45.2488c.3289.0159.6599.0239.9928.0239.2884 0 .5779-.0068.8682-.0203l.1015 2.3618c-.3422.0147-.6863.0221-1.0321.0221s-.6898-.0074-1.032-.0221l.1016-2.3654zM26.4161 45.0787c.607-.0851 1.2152-.1975 1.8224-.3357l.5161 2.3377c-.6669.1472-1.3443.2663-2.031.3558l-.3075-2.3578zM30.0259 44.2614c.5863-.1824 1.1695-.3879 1.7474-.6151l.9109 2.1965c-.6326.2623-1.279.498-1.9379.7055l-.7204-2.2869zM33.4767 42.9071c.5598-.2663 1.1125-.5525 1.6561-.8573l1.2049 1.8875c-.5783.3692-1.1738.7139-1.7849 1.0327l-1.0761-2.0629zM36.7384 41.0776c.529-.3447 1.0466-.7072 1.5507-1.0862l1.3159 1.4353c-.5066.4644-1.0334.907-1.5791 1.3264l-1.2875-1.6755zM41.0632 39.9685l-1.2852-1.1784c.4897-.4239.9629-.8639 1.4172-1.3185l1.1943.9178a23.76277 23.76277 0 01-1.3263 1.5791zM43.5737 36.7012l-1.0467-.6682c.4335-.5065.8437-1.0274 1.2277-1.561l.8518.4443a23.61651 23.61651 0 01-1.0328 1.7849zM45.4793 33.0477l-.6256-.2594c.3462-.5891.6603-1.1905.9392-1.802l.3919.1235a23.4848 23.4848 0 01-.7055 1.9379zM46.7172 29.1181l-.1816-.0401c.1634-.506.3021-1.0172.4143-1.5326h.0588a23.54752 23.54752 0 01-.2915 1.5727zM33.2193 11.0382l8.6739.1668-2.5511-8.29198-6.1228 8.12518zM13.2192 23.0493h1.271c.4825 0 .835-.167 1.0577-.501.2288-.3401.3432-.7916.3432-1.3545 0-.538-.1175-.9555-.3525-1.2524-.2289-.3031-.5381-.4546-.9278-.4546-.3649 0-.6648.1423-.8999.4268-.2288.2845-.3432.6432-.3432 1.0761h-2.6255c0-.705.1608-1.3359.4824-1.8925.3278-.5629.7824-1.002 1.3638-1.3174.5875-.3154 1.237-.4732 1.9482-.4732 1.2432 0 2.2173.3433 2.9224 1.0298.7051.6865 1.0576 1.6267 1.0576 2.8203 0 .6123-.1608 1.1814-.4824 1.7071-.3154.5195-.7329.9184-1.2525 1.1967.6371.2722 1.1102.6804 1.4195 1.2247.3154.5442.4731 1.1875.4731 1.9296 0 1.1999-.3834 2.1617-1.1504 2.8853-.7607.7236-1.7627 1.0854-3.0058 1.0854-1.1566 0-2.0967-.3556-2.8203-1.0668-.7175-.7175-1.0762-1.6576-1.0762-2.8204h2.6255c0 .4825.1268.8876.3803 1.2154.2536.3278.5752.4917.9649.4917.4515 0 .8071-.167 1.0669-.501.2659-.334.3989-.7793.3989-1.3359 0-1.3298-.5164-1.9978-1.5493-2.0039h-1.2896v-2.1153zM26.1849 17.353v2.2266h-.1485c-.9834.0062-1.7657.303-2.3471.8906-.5752.5814-.9247 1.3978-1.0484 2.4492.5629-.6432 1.2679-.9648 2.1153-.9648.9772 0 1.7565.4175 2.3379 1.2524.5875.835.8813 1.9483.8813 3.3399 0 .8844-.167 1.6823-.501 2.3935-.334.7113-.804 1.2648-1.4101 1.6607-.6.3896-1.2803.5844-2.041.5844-1.2246 0-2.208-.4917-2.9502-1.4751-.736-.9833-1.104-2.3069-1.104-3.9707v-.9741c0-1.4905.2319-2.7955.6958-3.915.47-1.1195 1.1442-1.9792 2.0224-2.5791.8845-.6061 1.9142-.9123 3.0894-.9185h.4082zm-2.2544 6.7725c-.334 0-.6154.1051-.8442.3154-.2227.2103-.3897.4701-.501.7793v.9463c0 .9525.1268 1.6637.3803 2.1338.2536.47.5876.7051 1.002.7051.4206 0 .7576-.2258 1.0112-.6773.2536-.4577.3804-1.0421.3804-1.7534 0-.7236-.133-1.3112-.3989-1.7627-.2598-.4577-.6031-.6865-1.0298-.6865zM36.8126 25.415c0 1.8679-.3401 3.2966-1.0205 4.2862-.6741.9896-1.639 1.4843-2.8945 1.4843-1.2432 0-2.2049-.4793-2.8853-1.4379-.6741-.9649-1.0236-2.3441-1.0483-4.1377v-2.5513c0-1.8617.3371-3.2842 1.0112-4.2676.6742-.9896 1.6421-1.4844 2.9038-1.4844 1.2618 0 2.2297.4886 2.9039 1.4659.6741.9772 1.0174 2.3719 1.0297 4.184v2.4585zm-2.6347-2.7368c0-1.0638-.1052-1.8616-.3155-2.3935-.2102-.5319-.538-.7979-.9834-.7979-.8349 0-1.2679.9741-1.2988 2.9224v3.3677c0 1.0885.1052 1.8987.3154 2.4306.2165.5319.5505.7979 1.002.7979.4268 0 .7422-.2474.9463-.7422.2103-.501.3216-1.2648.334-2.2915v-3.2935zM38.2929 19.8672c0-.7113.2505-1.3143.7515-1.8091.5072-.501 1.1009-.7515 1.7812-.7515.6742 0 1.2556.2505 1.7442.7515.4948.4948.7422 1.0978.7422 1.8091 0 .7174-.2474 1.3205-.7422 1.8091-.4886.4824-1.07.7236-1.7442.7236-.6741 0-1.2648-.2412-1.7719-.7236-.5072-.4886-.7608-1.0917-.7608-1.8091zm2.5327 1.1504c.3278 0 .5969-.1114.8072-.334.2103-.2227.3154-.4948.3154-.8164s-.1051-.5999-.3154-.835c-.2103-.235-.4794-.3525-.8072-.3525-.3278 0-.6061.1175-.8349.3525-.2227.2289-.334.5072-.334.835s.1144.603.3433.8257c.235.2164.5102.3247.8256.3247z" fill="#fff"/></svg>