<svg viewBox="0 0 48 48" fill="none" xmlns="http://www.w3.org/2000/svg"><g clip-path="url(#clip0)" fill="#fff"><mask id="a"><path d="M.02005 23.8833A10.1879 10.1879 0 000 24.5224c0 7.8604 9.06623 14.354 20.8169 15.3612v-6.0365C10.2472 33.1112 1.83233 29.0568.02005 23.8833zM48 25.0703c-.4059 7.5408-9.1583 13.7122-20.4781 14.784l1.9733-2.9287-2.8245-3.0156C36.9067 33.4224 45.311 29.8358 48 25.0703z"/><path d="M25.8742 37.1922l-8.756-5.8374v11.6748l8.756-5.8374z"/></mask><path d="M.02005 23.8833A10.1879 10.1879 0 000 24.5224c0 7.8604 9.06623 14.354 20.8169 15.3612v-6.0365C10.2472 33.1112 1.83233 29.0568.02005 23.8833zM48 25.0703c-.4059 7.5408-9.1583 13.7122-20.4781 14.784l1.9733-2.9287-2.8245-3.0156C36.9067 33.4224 45.311 29.8358 48 25.0703z"/><path d="M25.8742 37.1922l-8.756-5.8374v11.6748l8.756-5.8374z"/><path d="M0 24.5224h-1 1zm.02005-.6391l.94377-.3306c-.15729-.449-.60914-.725-1.08043-.66-.4713.065-.83154.4531-.86138.9279l.99804.0627zM20.8169 39.8836l-.0854.9963a1 1 0 00.7616-.2597.99988.99988 0 00.3238-.7366h-1zm0-6.0365h1c0-.5254-.4065-.9611-.9306-.9976l-.0694.9976zm6.705 6.0072l-.8294-.5588c-.216.3207-.2279.7372-.0303 1.0697.1975.3324.569.5211.9539.4847l-.0942-.9956zM48 25.0703l.9986.0538c.0249-.4638-.2727-.8837-.7186-1.0138-.4459-.13-.9226.0641-1.1509.4686l.8709.4914zM29.4952 36.9256l.8293.5588c.2606-.3866.2193-.9021-.0994-1.2424l-.7299.6836zM26.6707 33.91l-.0476-.9989c-.3894.0186-.7326.2618-.8791.6231-.1465.3613-.0697.7748.1968 1.0594l.7299-.6836zm-9.5525-2.5552l.5547-.832c-.3069-.2046-.7014-.2237-1.0266-.0497-.3252.1741-.5281.5129-.5281.8817h1zm8.756 5.8374l.5547.832a.9999.9999 0 00.4453-.832c0-.3344-.1671-.6466-.4453-.8321l-.5547.8321zm-8.756 5.8374h-1c0 .3688.203.7076.5281.8816.3252.174.7197.155 1.0266-.0496l-.5547-.832zM1 24.5224c0-.1931.00607-.3853.01808-.5764l-1.99607-.1254A11.18752 11.18752 0 00-1 24.5224h2zm19.9023 14.3648c-5.7255-.4907-10.7468-2.3155-14.31004-4.9214C3.02564 31.3574 1 28.0377 1 24.5224h-2c0 4.3451 2.50747 8.2024 6.41163 11.0577 3.90757 2.8578 9.29467 4.7834 15.31987 5.2998l.1708-1.9927zm-1.0854-5.0401v6.0365h2v-6.0365h-2zM-.92372 24.2139c1.03357 2.9506 3.87027 5.4149 7.62551 7.217 3.78651 1.8171 8.66051 3.0388 14.04561 3.4138l.1389-1.9952c-5.1846-.361-9.8029-1.5343-13.31923-3.2218-3.54768-1.7024-5.82454-3.852-6.60325-6.075l-1.88754.6612zm28.53982 16.636c5.8056-.5497 10.9997-2.4101 14.8202-5.149 3.816-2.7357 6.3381-6.413 6.5623-10.5768l-1.9971-.1075c-.1818 3.3769-2.2388 6.5557-5.7305 9.0588-3.4871 2.4999-8.3291 4.2612-13.8434 4.7834l.1885 1.9911zm1.0498-4.483l-1.9734 2.9286 1.6587 1.1176 1.9733-2.9287-1.6586-1.1175zm-2.7251-1.7733l2.8245 3.0156 1.4598-1.3672-2.8245-3.0156-1.4598 1.3672zm21.1883-10.0147c-1.1897 2.1084-3.7319 4.081-7.3492 5.5928-3.593 1.5016-8.1359 2.5003-13.1568 2.7394l.0952 1.9977c5.2152-.2484 9.9924-1.2868 13.8328-2.8918 3.816-1.5948 6.8205-3.7982 8.3198-6.4552l-1.7418-.9829zm-30.5656 7.608l8.756 5.8373 1.1094-1.6641-8.756-5.8373-1.1094 1.6641zm8.756 4.1732l-8.756 5.8374 1.1094 1.6641 8.756-5.8374-1.1094-1.6641zm-9.2013-5.0053v11.6748h2V31.3548h-2z" mask="url(#a)"/><path d="M12.9975 22.8168c.7521 0 1.3222-.2001 1.7104-.6004.4003-.4003.6004-.8855.6004-1.4556 0-.6915-.2062-1.2009-.6186-1.5284-.4125-.3275-1.0614-.4913-1.9469-.4913h-1.31v-1.2554l2.2016-3.0022.5145-.655h-3.9716V11.827h6.9505v1.2918l-2.5655 3.4389-.3785.4731h.3421c.4246.0364.8249.1334 1.2009.2911.3881.1577.7217.3882 1.0007.6914.2911.2911.5216.655.6914 1.0917.1698.4367.2548.9401.2548 1.5102 0 .7157-.1213 1.3343-.3639 1.8559-.2305.5216-.558.9583-.9826 1.31-.4124.3518-.8976.6126-1.4556.7824-.558.1698-1.1584.2548-1.8013.2548-.5337 0-1.0856-.0486-1.6557-.1456s-1.0311-.2365-1.3829-.4185l.6369-1.9651c.3153.1577.6611.2851 1.0371.3821.3881.0971.8188.1456 1.2918.1456zM27.4877 20.6152c0 .5944-.1031 1.1463-.3093 1.6557-.1941.5095-.473.9523-.8369 1.3283s-.8067.6732-1.3283.8915c-.5094.2184-1.0735.3276-1.6921.3276-.6308 0-1.213-.0971-1.7467-.2912-.5216-.2062-.9765-.5094-1.3647-.9097-.3881-.4003-.6914-.9037-.9097-1.5102-.2184-.6065-.3275-1.31-.3275-2.1106 0-1.2009.1698-2.2865.5094-3.2569.3518-.9704.8188-1.8135 1.401-2.5292.5944-.7278 1.2798-1.31 2.0561-1.7467.7884-.4488 1.6193-.746 2.4927-.8915l.5277 1.8741c-.6065.097-1.1645.285-1.674.564-.5094.279-.9643.6126-1.3646 1.0007-.3882.3882-.7217.8249-1.0007 1.3101-.2669.473-.4549.9643-.5641 1.4738.2426-.3033.558-.558.9462-.7642.3881-.2184.8733-.3275 1.4556-.3275.5458 0 1.0492.0849 1.5102.2547.4609.1698.8551.4245 1.1826.7642.3275.3275.5823.7339.7642 1.2191.182.4852.2729 1.0431.2729 1.6739zm-2.2925.1274c0-1.3586-.6672-2.0379-2.0015-2.0379-.4852 0-.8976.1092-1.2372.3275-.3276.2184-.558.4731-.6915.7642-.0242.1335-.0363.2487-.0363.3457v.2911c0 .2912.0424.5823.1273.8734.0849.279.2062.5337.3639.7642.1698.2183.3821.4003.6368.5459.2548.1334.558.2001.9098.2001.5701 0 1.031-.1941 1.3828-.5822.3639-.3882.5459-.8855.5459-1.492zM28.1679 18.1771c0-2.232.3821-3.8877 1.1463-4.9673.7642-1.0917 1.862-1.6375 3.2933-1.6375 1.5284 0 2.6504.5398 3.3661 1.6193.7157 1.0675 1.0735 2.7293 1.0735 4.9855 0 2.244-.3882 3.9119-1.1645 5.0036-.7642 1.0917-1.8619 1.6376-3.2933 1.6376-1.5162 0-2.6322-.5702-3.3479-1.7104-.7156-1.1523-1.0735-2.796-1.0735-4.9308zm2.3654 0c0 1.4798.1577 2.6261.4731 3.4388.3275.8006.8612 1.2009 1.6011 1.2009.7157 0 1.2373-.37 1.5648-1.1099.3396-.7399.5094-1.9165.5094-3.5298 0-1.4678-.1576-2.6019-.473-3.4025-.3154-.8006-.8552-1.2009-1.6194-1.2009-.7278 0-1.2554.3761-1.5829 1.1281-.3154.7521-.4731 1.9105-.4731 3.4753zM37.9456 14.5926c0-.4488.0789-.8551.2366-1.219.1577-.3761.3699-.6975.6368-.9644.279-.2668.5944-.473.9461-.6186.3639-.1456.7521-.2183 1.1645-.2183.4124 0 .8006.0667 1.1645.2001.376.1334.7035.3336.9825.6004.279.2548.4974.5702.655.9462.1577.376.2366.8006.2366 1.2736 0 .4731-.0789.8977-.2366 1.2737-.1576.3639-.376.6732-.655.9279-.279.2548-.6065.4489-.9825.5823-.3639.1334-.7521.2001-1.1645.2001-.4124 0-.8006-.0667-1.1645-.2001-.3517-.1334-.6671-.3275-.9461-.5823-.2669-.2547-.4791-.564-.6368-.9279-.1577-.376-.2366-.8006-.2366-1.2737zm1.8195 0c0 .3882.1153.6975.3457.928.2305.2183.5095.3275.837.3275s.6126-.1092.8552-.3275c.2426-.2305.3639-.5398.3639-.928 0-.3881-.1213-.6974-.3639-.9279-.2426-.2426-.5277-.3639-.8552-.3639s-.6065.1213-.837.3639c-.2304.2305-.3457.5398-.3457.9279z"/></g><defs><clipPath id="clip0"><path fill="#fff" d="M0 0h48v48H0z"/></clipPath></defs></svg>