<svg viewBox="0 0 48 48" fill="none" xmlns="http://www.w3.org/2000/svg"><path d="M16.88 25.144c-.624 0-1.144-.104-1.56-.312-.416-.208-.76-.464-1.032-.768l.66-.888c.232.232.496.432.792.6.296.16.636.24 1.02.24.416 0 .752-.1 1.008-.3.264-.208.396-.492.396-.852 0-.2-.036-.38-.108-.54-.072-.16-.196-.296-.372-.408-.168-.112-.396-.196-.684-.252-.288-.064-.648-.096-1.08-.096V20.56c.376 0 .688-.028.936-.084.256-.064.46-.148.612-.252.16-.112.272-.244.336-.396.072-.152.108-.316.108-.492 0-.32-.1-.568-.3-.744-.2-.184-.476-.276-.828-.276-.304 0-.58.068-.828.204-.24.128-.476.3-.708.516l-.708-.852c.328-.288.676-.52 1.044-.696.376-.176.792-.264 1.248-.264.368 0 .704.044 1.008.132.304.088.564.22.78.396.216.168.384.38.504.636.12.248.18.532.18.852 0 .432-.12.792-.36 1.08-.232.288-.556.512-.972.672v.048c.456.12.832.34 1.128.66.304.32.456.732.456 1.236 0 .352-.072.664-.216.936-.136.272-.328.504-.576.696-.24.184-.524.328-.852.432-.32.096-.664.144-1.032.144zm6.5723 0c-.376 0-.732-.072-1.068-.216-.336-.152-.632-.38-.888-.684-.248-.304-.448-.692-.6-1.164-.144-.472-.216-1.028-.216-1.668 0-.744.084-1.38.252-1.908.168-.528.388-.96.66-1.296.28-.336.6-.584.96-.744.36-.16.736-.24 1.128-.24.464 0 .86.084 1.188.252.336.168.62.372.852.612l-.744.84c-.136-.168-.316-.304-.54-.408-.216-.112-.44-.168-.672-.168-.24 0-.468.048-.684.144-.208.096-.392.256-.552.48-.16.216-.292.504-.396.864-.096.36-.152.804-.168 1.332.224-.28.484-.5.78-.66.304-.16.596-.24.876-.24.328 0 .628.048.9.144.28.096.516.244.708.444.2.192.352.436.456.732.112.296.168.644.168 1.044 0 .384-.064.732-.192 1.044-.128.304-.3.564-.516.78-.216.216-.472.384-.768.504-.288.12-.596.18-.924.18zm-.024-1.056c.32 0 .588-.124.804-.372.224-.248.336-.608.336-1.08 0-.456-.104-.796-.312-1.02-.208-.224-.504-.336-.888-.336-.216 0-.444.068-.684.204-.24.128-.468.352-.684.672.072.68.232 1.172.48 1.476.256.304.572.456.948.456zm5.9484 1.056c-.8 0-1.432-.34-1.896-1.02-.464-.688-.696-1.68-.696-2.976s.232-2.272.696-2.928c.464-.664 1.096-.996 1.896-.996.8 0 1.432.332 1.896.996.464.664.696 1.64.696 2.928 0 1.296-.232 2.288-.696 2.976-.464.68-1.096 1.02-1.896 1.02zm0-1.08c.184 0 .352-.048.504-.144.16-.104.296-.272.408-.504.112-.232.2-.532.264-.9s.096-.824.096-1.368c0-.536-.032-.984-.096-1.344-.064-.368-.152-.664-.264-.888-.112-.224-.248-.38-.408-.468-.152-.096-.32-.144-.504-.144s-.356.048-.516.144c-.152.088-.284.244-.396.468-.112.224-.2.52-.264.888-.064.36-.096.808-.096 1.344 0 .544.032 1 .096 1.368.064.368.152.668.264.9.112.232.244.4.396.504.16.096.332.144.516.144zm5.1803-4.02c-.224 0-.436-.04-.636-.12-.192-.08-.364-.192-.516-.336-.144-.144-.26-.316-.348-.516-.08-.2-.12-.42-.12-.66 0-.24.04-.46.12-.66.088-.2.204-.372.348-.516.152-.144.324-.256.516-.336.2-.08.412-.12.636-.12.224 0 .432.04.624.12.2.08.372.192.516.336.152.144.268.316.348.516.088.2.132.42.132.66 0 .24-.044.46-.132.66-.08.2-.196.372-.348.516-.144.144-.316.256-.516.336-.192.08-.4.12-.624.12zm0-.708c.256 0 .46-.084.612-.252.16-.176.24-.4.24-.672 0-.28-.08-.504-.24-.672-.152-.176-.356-.264-.612-.264s-.464.088-.624.264c-.152.168-.228.392-.228.672 0 .272.076.496.228.672.16.168.368.252.624.252zM29 13.5l1.5-3h-3l1.5 3z" fill="#fff"/><path d="M25.9131 3.39148C25.1482 2.32849 24.4883 2 24.0001 2c-.4883 0-1.1482.32849-1.9131 1.39148-.7478 1.03943-1.4627 2.60791-2.0801 4.63623-.4911 1.61394-.9101 3.48319-1.2359 5.54619-.0387.2447-.249.4261-.4968.4261-.3054 0-.5397-.2723-.492-.574C18.9474 6.04382 21.2945 1 24.0001 1c2.2641 0 4.2774 3.53231 5.5569 9.0112h.999a.4998.4998 0 01.2435.0633.49949.49949 0 01.256.4142.49819.49819 0 01-.0523.2461l-1.5 3a.49916.49916 0 01-.1843.2017.4993.4993 0 01-.2629.0747.49922.49922 0 01-.2628-.0747.5001.5001 0 01-.1844-.2017l-1.5-3a.4992.4992 0 01-.0522-.2461.49949.49949 0 01.256-.4142.4997.4997 0 01.2434-.0633h.9734c-.1671-.69696-.3462-1.3593-.5362-1.98349-.6174-2.02832-1.3323-3.5968-2.0801-4.63623zM18.1258 33c-.302 0-.5352.2667-.4935.5658C18.7372 41.4931 21.1728 47 24.0001 47c2.8257 0 5.2605-5.5014 6.3662-13.4224.0417-.2991-.1915-.5659-.4936-.5659-.2511 0-.4631.1863-.4979.435-.3426 2.4529-.8139 4.6599-1.3816 6.5256-.6174 2.0283-1.3323 3.5968-2.0801 4.6362C25.1482 45.6715 24.4883 46 24.0001 46c-.4883 0-1.1482-.3285-1.9131-1.3915-.7478-1.0394-1.4627-2.6079-2.0801-4.6362-.5687-1.8687-1.0402-4.0796-1.3831-6.5372-.0347-.2488-.2468-.4351-.498-.4351zM38 19.0781c0 .2319.1591.4332.384.4896.5532.139 1.0833.2856 1.5884.4393 2.0281.6173 3.5967 1.3322 4.636 2.0801 1.063.7648 1.3916 1.4247 1.3916 1.913 0 .4882-.3286 1.1482-1.3916 1.9129-1.0393.748-2.6079 1.4628-4.636 2.0801-4.0442 1.2308-9.6914 2.007-15.9724 2.007-6.2808 0-11.9282-.7762-15.97217-2.007-2.02832-.6173-3.59692-1.3321-4.63623-2.0801C2.32861 25.1483 2 24.4883 2 24.0001c0-.4883.32861-1.1481 1.3916-1.913 1.03931-.7479 2.60791-1.4628 4.63623-2.0801.15503-.0472.31244-.0937.47217-.1395v1.0044c0 .0853.02179.1691.06329.2435a.50048.50048 0 00.17385.1819.49963.49963 0 00.24038.0741.49832.49832 0 00.24608-.0523l3-1.5a.49916.49916 0 00.2017-.1843.4993.4993 0 00.0747-.2629.49922.49922 0 00-.0747-.2628.5001.5001 0 00-.2017-.1844l-3-1.5a.49934.49934 0 00-.24608-.0522.49963.49963 0 00-.41423.256.49969.49969 0 00-.06329.2434v.9565l-.12875.036C3.83768 20.1429 1 21.9706 1 24.0001c0 3.8659 10.2976 7 23 7 12.7026 0 23-3.1341 23-7 0-2.1767-3.2643-4.1214-8.3846-5.4053-.3134-.0786-.6154.1602-.6154.4833z" fill="#fff"/></svg>