<svg viewBox="0 0 48 48" fill="none" xmlns="http://www.w3.org/2000/svg">
<path d="M46.9499 27.5454C46.8911 27.8154 46.8251 28.0842 46.752 28.3517L46.869 28.3736C46.9203 28.0992 46.9669 27.8231 47.0087 27.5454H46.9499Z" fill="white"/>
<path d="M46.4677 29.2836C46.3646 29.5895 46.2525 29.8934 46.1317 30.1952L46.4302 30.2772C46.5163 29.9641 46.596 29.6483 46.6694 29.3301L46.4677 29.2836Z" fill="white"/>
<path d="M45.748 31.0842C45.6134 31.3748 45.4709 31.6631 45.3208 31.9488L45.8348 32.1373C45.9466 31.8322 46.0524 31.5243 46.1519 31.2135L45.748 31.0842Z" fill="white"/>
<path d="M44.8537 32.7883C44.693 33.0619 44.5253 33.3329 44.351 33.6011L45.0862 33.9425C45.2232 33.6475 45.3543 33.3492 45.4793 33.0477L44.8537 32.7883Z" fill="white"/>
<path d="M43.816 34.3865C43.6339 34.642 43.4457 34.8947 43.2519 35.1443L44.1907 35.6788C44.3516 35.3961 44.5069 35.1098 44.6564 34.82L43.816 34.3865Z" fill="white"/>
<path d="M42.6616 35.8744C42.4619 36.1118 42.2571 36.3461 42.0474 36.5771L43.1547 37.335C43.3385 37.0665 43.5169 36.794 43.6898 36.5176L42.6616 35.8744Z" fill="white"/>
<path d="M41.4117 37.2524C41.1975 37.4719 40.9789 37.6881 40.7561 37.9008L41.9856 38.9004C42.191 38.6478 42.3913 38.3908 42.5863 38.1297L41.4117 37.2524Z" fill="white"/>
<path d="M40.0826 38.5224C39.8563 38.7243 39.6262 38.9227 39.3926 39.1175L40.6918 40.3644C40.9173 40.1295 41.138 39.8898 41.3537 39.6457L40.0826 38.5224Z" fill="white"/>
<path d="M38.6872 39.6865C38.4504 39.8712 38.2104 40.0523 37.9675 40.2296L39.2822 41.7172C39.5263 41.5015 39.7659 41.2808 40.0009 41.0553L38.6872 39.6865Z" fill="white"/>
<path d="M37.2343 40.747C36.9882 40.9148 36.7395 41.0788 36.4883 41.2388L37.7662 42.9498C38.0273 42.7548 38.2843 42.5545 38.5369 42.3491L37.2343 40.747Z" fill="white"/>
<path d="M35.7303 41.705C35.4759 41.8559 35.2193 42.0028 34.9607 42.1455L36.1541 44.0533C36.4305 43.8804 36.703 43.702 36.9715 43.5182L35.7303 41.705Z" fill="white"/>
<path d="M34.1799 42.5602C33.9177 42.6942 33.6538 42.8238 33.3882 42.9489L34.4564 45.02C34.7463 44.8705 35.0326 44.7152 35.3153 44.5542L34.1799 42.5602Z" fill="white"/>
<path d="M32.586 43.3111C32.3164 43.4276 32.0454 43.5393 31.7733 43.6463L32.6842 45.8428C32.9856 45.7178 33.2839 45.5867 33.5789 45.4498L32.586 43.3111Z" fill="white"/>
<path d="M30.9507 43.9537C30.6744 44.0516 30.3971 44.1445 30.1191 44.2322L30.8499 46.5154C31.1607 46.4159 31.4687 46.3102 31.7738 46.1983L30.9507 43.9537Z" fill="white"/>
<path d="M29.2782 44.481C28.9955 44.5591 28.7122 44.6318 28.4286 44.6989L28.9665 47.0329C29.2848 46.9596 29.6005 46.8798 29.9137 46.7937L29.2782 44.481Z" fill="white"/>
<path d="M27.5708 44.8844C27.2823 44.941 26.9937 44.9916 26.7054 45.0361L27.0457 47.3923C27.3693 47.3455 27.6908 47.2922 28.01 47.2325L27.5708 44.8844Z" fill="white"/>
<path d="M25.8335 45.152C25.5411 45.1846 25.2491 45.2107 24.9579 45.2302L25.1024 47.5916C25.4286 47.5717 25.7529 47.5451 26.0754 47.512L25.8335 45.152Z" fill="white"/>
<path d="M23.6989 45.2727C23.5303 45.2727 23.3621 45.2707 23.1944 45.2666L23.1463 47.6313C23.3093 47.6347 23.4727 47.6363 23.6365 47.6363C23.8003 47.6363 23.9637 47.6347 24.1267 47.6313L24.0787 45.2688C23.9519 45.2714 23.8253 45.2727 23.6989 45.2727Z" fill="white"/>
<path d="M22.3154 45.2261C22.0218 45.2063 21.73 45.1802 21.44 45.1479L21.1977 47.512C21.5201 47.5451 21.8445 47.5717 22.1706 47.5916L22.3154 45.2261Z" fill="white"/>
<path d="M20.5683 45.0318C20.2779 44.9866 19.9896 44.9353 19.7035 44.8779L19.263 47.2325C19.5822 47.2922 19.9037 47.3455 20.2273 47.3923L20.5683 45.0318Z" fill="white"/>
<path d="M18.8472 44.6867C18.5627 44.6166 18.2806 44.5405 18.001 44.4585L17.3594 46.7937C17.6725 46.8798 17.9883 46.9596 18.3065 47.0329L18.8472 44.6867Z" fill="white"/>
<path d="M17.1663 44.1937C16.8896 44.0993 16.6157 43.999 16.3446 43.893L15.4993 46.1983C15.8043 46.3102 16.1123 46.4159 16.4231 46.5154L17.1663 44.1937Z" fill="white"/>
<path d="M15.5368 43.5567C15.2699 43.4387 15.0059 43.315 14.7452 43.1859L13.6941 45.4498C13.9891 45.5867 14.2874 45.7178 14.5888 45.8428L15.5368 43.5567Z" fill="white"/>
<path d="M13.9712 42.7815C13.7161 42.641 13.4643 42.4952 13.2161 42.3443L11.9577 44.5542C12.2404 44.7152 12.5268 44.8705 12.8166 45.02L13.9712 42.7815Z" fill="white"/>
<path d="M12.4814 41.8752C12.2399 41.7137 12.0022 41.547 11.7683 41.3755L10.3015 43.5182C10.5701 43.702 10.8426 43.8804 11.1189 44.0533L12.4814 41.8752Z" fill="white"/>
<path d="M11.0781 40.846C10.8519 40.6647 10.6298 40.4787 10.4119 40.288L8.73613 42.3491C8.98877 42.5545 9.24573 42.7548 9.50685 42.9498L11.0781 40.846Z" fill="white"/>
<path d="M9.77114 39.7027C9.56205 39.5034 9.35726 39.2996 9.15692 39.0915L7.27214 41.0553C7.5071 41.2808 7.74672 41.5015 7.99082 41.7172L9.77114 39.7027Z" fill="white"/>
<path d="M8.57031 38.4555C8.3797 38.2397 8.19366 38.0199 8.01234 37.796L5.91933 39.6457C6.13506 39.8899 6.35575 40.1295 6.58126 40.3644L8.57031 38.4555Z" fill="white"/>
<path d="M7.48396 37.1146C7.31314 36.8843 7.14713 36.6502 6.98609 36.4125L4.68675 38.1297C4.88177 38.3908 5.08206 38.6478 5.28747 38.9004L7.48396 37.1146Z" fill="white"/>
<path d="M6.51966 35.6913C6.36983 35.4484 6.22503 35.2021 6.08541 34.9525L3.58326 36.5176C3.75613 36.794 3.93455 37.0665 4.11837 37.335L6.51966 35.6913Z" fill="white"/>
<path d="M5.68399 34.1974C5.55606 33.9438 5.43336 33.6872 5.31602 33.4276L2.6166 34.82C2.76609 35.1098 2.9214 35.3961 3.08237 35.6788L5.68399 34.1974Z" fill="white"/>
<path d="M4.98201 32.6446C4.87671 32.3824 4.77679 32.1174 4.68239 31.8499L1.79378 33.0477C1.91878 33.3492 2.04984 33.6475 2.18681 33.9425L4.98201 32.6446Z" fill="white"/>
<path d="M4.41752 31.0448C4.33542 30.7762 4.25882 30.5051 4.18784 30.2318L1.12118 31.2135C1.22066 31.5243 1.3264 31.8322 1.43826 32.1373L4.41752 31.0448Z" fill="white"/>
<path d="M3.99329 29.4116C3.93455 29.1382 3.88138 28.8629 3.83391 28.5856L0.603667 29.3301C0.677009 29.6483 0.756777 29.964 0.842825 30.2772L3.99329 29.4116Z" fill="white"/>
<path d="M3.70966 27.7551C3.67424 27.479 3.64445 27.2011 3.6204 26.9215L0.244296 27.4093C0.291044 27.7329 0.344348 28.0543 0.404068 28.3736L3.70966 27.7551Z" fill="white"/>
<path d="M3.56595 26.0861C3.55365 25.8094 3.54697 25.5312 3.54602 25.2517L0.0449589 25.4659C0.0649153 25.7921 0.0914858 26.1164 0.124538 26.4389L3.56595 26.0861Z" fill="white"/>
<path d="M3.5602 24.4179C3.57069 24.1382 3.58692 23.8599 3.60878 23.5831L0.00522674 23.5098C0.00191035 23.6728 0.000244141 23.8362 0.000244141 24C0.000244141 24.1638 0.00191029 24.3273 0.00522657 24.4903L3.5602 24.4179Z" fill="white"/>
<path d="M3.69116 22.7573C3.7243 22.4827 3.76299 22.2098 3.80712 21.9387L0.124539 21.5612C0.0914863 21.8836 0.0649158 22.208 0.0449593 22.5342L3.69116 22.7573Z" fill="white"/>
<path d="M3.95653 21.1271C4.01189 20.8578 4.07265 20.5905 4.1387 20.3252L0.404069 19.6265C0.344348 19.9457 0.291044 20.2672 0.244296 20.5908L3.95653 21.1271Z" fill="white"/>
<path d="M4.35309 19.5342C4.42992 19.2722 4.51195 19.0124 4.59908 18.755L0.842826 17.7229C0.756777 18.036 0.67701 18.3518 0.603667 18.67L4.35309 19.5342Z" fill="white"/>
<path d="M4.87608 17.9886C4.97356 17.7353 5.07604 17.4844 5.1834 17.2361L1.43826 15.8628C1.32641 16.1679 1.22066 16.4758 1.12118 16.7866L4.87608 17.9886Z" fill="white"/>
<path d="M36.9715 4.48189L34.7121 7.78264C34.4889 7.62986 34.2624 7.48159 34.0328 7.33796L36.1541 3.94679C36.4305 4.11965 36.703 4.29807 36.9715 4.48189Z" fill="white"/>
<path d="M35.3153 3.4459L33.336 6.92187C33.1012 6.78818 32.8634 6.65922 32.6228 6.53511L34.4564 2.98013C34.7463 3.12962 35.0326 3.28492 35.3153 3.4459Z" fill="white"/>
<path d="M33.5789 2.55033L31.8944 6.17834C31.6496 6.06467 31.4021 5.95592 31.152 5.85221L32.6842 2.1573C32.9856 2.28231 33.2839 2.41337 33.5789 2.55033Z" fill="white"/>
<path d="M31.7738 1.80178L30.3967 5.55727C30.1437 5.46449 29.8882 5.37679 29.6304 5.29427L30.8499 1.4847C31.1607 1.58419 31.4687 1.68993 31.7738 1.80178Z" fill="white"/>
<path d="M29.9137 1.20635L28.8539 5.0634C28.5941 4.99203 28.3322 4.92586 28.0682 4.86501L28.9665 0.967193C29.2848 1.04054 29.6005 1.1203 29.9137 1.20635Z" fill="white"/>
<path d="M28.01 0.767594L27.2745 4.69938C27.0095 4.64981 26.7426 4.60555 26.4738 4.56672L27.0457 0.607822C27.3693 0.65457 27.6908 0.707874 28.01 0.767594Z" fill="white"/>
<path d="M26.0754 0.488064L25.6675 4.46721C25.3994 4.43974 25.1296 4.41763 24.8581 4.40102L25.1024 0.408485C25.4286 0.428441 25.7529 0.455012 26.0754 0.488064Z" fill="white"/>
<path d="M24.1267 0.368752L24.0454 4.36792C23.9095 4.36516 23.7732 4.36377 23.6365 4.36377C23.4998 4.36377 23.3636 4.36516 23.2277 4.36792L23.1463 0.368752C23.3093 0.365436 23.4727 0.36377 23.6365 0.36377C23.8003 0.36377 23.9637 0.365436 24.1267 0.368752Z" fill="white"/>
<path d="M22.1706 0.408484L22.4149 4.40102C22.1434 4.41763 21.8736 4.43973 21.6056 4.46721L21.1977 0.488063C21.5201 0.455011 21.8445 0.428441 22.1706 0.408484Z" fill="white"/>
<path d="M20.2273 0.607821L20.7992 4.56672C20.5304 4.60555 20.2635 4.64981 19.9986 4.69938L19.263 0.767594C19.5822 0.707873 19.9037 0.654569 20.2273 0.607821Z" fill="white"/>
<path d="M18.3065 0.967192L19.2049 4.86501C18.9408 4.92586 18.6789 4.99203 18.4192 5.0634L17.3594 1.20635C17.6725 1.1203 17.9883 1.04053 18.3065 0.967192Z" fill="white"/>
<path d="M16.4231 1.4847L17.6426 5.29427C17.3848 5.37678 17.1294 5.46449 16.8763 5.55727L15.4993 1.80178C15.8043 1.68993 16.1123 1.58419 16.4231 1.4847Z" fill="white"/>
<path d="M14.5888 2.1573L16.1211 5.85221C15.871 5.95592 15.6234 6.06467 15.3786 6.17834L13.6941 2.55033C13.9891 2.41337 14.2874 2.28231 14.5888 2.1573Z" fill="white"/>
<path d="M12.8166 2.98013L14.6502 6.53511C14.4096 6.65922 14.1718 6.78818 13.937 6.92187L11.9577 3.4459C12.2404 3.28493 12.5268 3.12962 12.8166 2.98013Z" fill="white"/>
<path d="M11.1189 3.94679L13.2402 7.33796C13.0106 7.48159 12.7842 7.62986 12.561 7.78264L10.3015 4.4819C10.5701 4.29808 10.8426 4.11966 11.1189 3.94679Z" fill="white"/>
<path d="M9.50685 5.05028L11.9004 8.25512C11.6833 8.41726 11.4696 8.5838 11.2595 8.75462L8.73613 5.65099C8.98876 5.44559 9.24572 5.2453 9.50685 5.05028Z" fill="white"/>
<path d="M7.99082 6.28285L10.6397 9.28013C10.4366 9.45956 10.2373 9.64313 10.0419 9.83071L7.27214 6.94478C7.5071 6.71928 7.74672 6.49858 7.99082 6.28285Z" fill="white"/>
<path d="M6.58125 7.63566L9.46718 10.4054C9.2796 10.6008 9.09603 10.8002 8.9166 11.0032L5.91933 8.35435C6.13506 8.11024 6.35575 7.87063 6.58125 7.63566Z" fill="white"/>
<path d="M5.28746 9.09966L8.39109 11.623C8.22028 11.8331 8.05373 12.0468 7.89159 12.2639L4.68675 9.87038C4.88177 9.60925 5.08206 9.35229 5.28746 9.09966Z" fill="white"/>
<path d="M4.11837 10.6651L7.41911 12.9245C7.26633 13.1477 7.11806 13.3742 6.97444 13.6038L3.58326 11.4825C3.75613 11.2061 3.93455 10.9336 4.11837 10.6651Z" fill="white"/>
<path d="M3.08237 12.3213L6.55835 14.3006C6.42465 14.5354 6.29569 14.7731 6.17158 15.0137L2.6166 13.1801C2.76609 12.8903 2.9214 12.604 3.08237 12.3213Z" fill="white"/>
<path d="M2.18681 14.0576L5.81482 15.7421C5.70115 15.987 5.59239 16.2345 5.48868 16.4846L1.79378 14.9524C1.91878 14.6509 2.04984 14.3526 2.18681 14.0576Z" fill="white"/>
<path d="M33.2193 11.0382L41.8932 11.205L39.3421 2.91302L33.2193 11.0382Z" fill="white"/>
<path d="M13.2192 23.0493H14.4902C14.9727 23.0493 15.3252 22.8823 15.5479 22.5483C15.7767 22.2082 15.8911 21.7567 15.8911 21.1938C15.8911 20.6558 15.7736 20.2383 15.5386 19.9414C15.3097 19.6383 15.0005 19.4868 14.6108 19.4868C14.2459 19.4868 13.946 19.6291 13.7109 19.9136C13.4821 20.1981 13.3677 20.5568 13.3677 20.9897H10.7422C10.7422 20.2847 10.903 19.6538 11.2246 19.0972C11.5524 18.5343 12.007 18.0952 12.5884 17.7798C13.1759 17.4644 13.8254 17.3066 14.5366 17.3066C15.7798 17.3066 16.7539 17.6499 17.459 18.3364C18.1641 19.0229 18.5166 19.9631 18.5166 21.1567C18.5166 21.769 18.3558 22.3381 18.0342 22.8638C17.7188 23.3833 17.3013 23.7822 16.7817 24.0605C17.4188 24.3327 17.8919 24.7409 18.2012 25.2852C18.5166 25.8294 18.6743 26.4727 18.6743 27.2148C18.6743 28.4147 18.2909 29.3765 17.5239 30.1001C16.7632 30.8237 15.7612 31.1855 14.5181 31.1855C13.3615 31.1855 12.4214 30.8299 11.6978 30.1187C10.9803 29.4012 10.6216 28.4611 10.6216 27.2983H13.2471C13.2471 27.7808 13.3739 28.1859 13.6274 28.5137C13.881 28.8415 14.2026 29.0054 14.5923 29.0054C15.0438 29.0054 15.3994 28.8384 15.6592 28.5044C15.9251 28.1704 16.0581 27.7251 16.0581 27.1685C16.0581 25.8387 15.5417 25.1707 14.5088 25.1646H13.2192V23.0493Z" fill="white"/>
<path d="M26.1849 17.353V19.5796H26.0364C25.053 19.5858 24.2707 19.8826 23.6893 20.4702C23.1141 21.0516 22.7646 21.868 22.6409 22.9194C23.2038 22.2762 23.9088 21.9546 24.7562 21.9546C25.7334 21.9546 26.5127 22.3721 27.0941 23.207C27.6816 24.042 27.9754 25.1553 27.9754 26.5469C27.9754 27.4313 27.8084 28.2292 27.4744 28.9404C27.1404 29.6517 26.6704 30.2052 26.0643 30.6011C25.4643 30.9907 24.784 31.1855 24.0233 31.1855C22.7987 31.1855 21.8153 30.6938 21.0731 29.7104C20.3371 28.7271 19.9691 27.4035 19.9691 25.7397V24.7656C19.9691 23.2751 20.201 21.9701 20.6649 20.8506C21.1349 19.7311 21.8091 18.8714 22.6873 18.2715C23.5718 17.6654 24.6015 17.3592 25.7767 17.353H26.1849ZM23.9305 24.1255C23.5965 24.1255 23.3151 24.2306 23.0863 24.4409C22.8636 24.6512 22.6966 24.911 22.5853 25.2202V26.1665C22.5853 27.119 22.7121 27.8302 22.9656 28.3003C23.2192 28.7703 23.5532 29.0054 23.9676 29.0054C24.3882 29.0054 24.7252 28.7796 24.9788 28.3281C25.2324 27.8704 25.3592 27.286 25.3592 26.5747C25.3592 25.8511 25.2262 25.2635 24.9603 24.812C24.7005 24.3543 24.3572 24.1255 23.9305 24.1255Z" fill="white"/>
<path d="M36.8126 25.415C36.8126 27.2829 36.4725 28.7116 35.7921 29.7012C35.118 30.6908 34.1531 31.1855 32.8976 31.1855C31.6544 31.1855 30.6927 30.7062 30.0123 29.7476C29.3382 28.7827 28.9887 27.4035 28.964 25.6099V23.0586C28.964 21.1969 29.3011 19.7744 29.9752 18.791C30.6494 17.8014 31.6173 17.3066 32.879 17.3066C34.1408 17.3066 35.1087 17.7952 35.7829 18.7725C36.457 19.7497 36.8003 21.1444 36.8126 22.9565V25.415ZM34.1779 22.6782C34.1779 21.6144 34.0727 20.8166 33.8624 20.2847C33.6522 19.7528 33.3244 19.4868 32.879 19.4868C32.0441 19.4868 31.6111 20.4609 31.5802 22.4092V25.7769C31.5802 26.8654 31.6854 27.6756 31.8956 28.2075C32.1121 28.7394 32.4461 29.0054 32.8976 29.0054C33.3244 29.0054 33.6398 28.758 33.8439 28.2632C34.0542 27.7622 34.1655 26.9984 34.1779 25.9717V22.6782Z" fill="white"/>
<path d="M38.2929 19.8672C38.2929 19.1559 38.5434 18.5529 39.0444 18.0581C39.5516 17.5571 40.1453 17.3066 40.8256 17.3066C41.4998 17.3066 42.0812 17.5571 42.5698 18.0581C43.0646 18.5529 43.312 19.1559 43.312 19.8672C43.312 20.5846 43.0646 21.1877 42.5698 21.6763C42.0812 22.1587 41.4998 22.3999 40.8256 22.3999C40.1515 22.3999 39.5608 22.1587 39.0537 21.6763C38.5465 21.1877 38.2929 20.5846 38.2929 19.8672ZM40.8256 21.0176C41.1534 21.0176 41.4225 20.9062 41.6328 20.6836C41.8431 20.4609 41.9482 20.1888 41.9482 19.8672C41.9482 19.5456 41.8431 19.2673 41.6328 19.0322C41.4225 18.7972 41.1534 18.6797 40.8256 18.6797C40.4978 18.6797 40.2195 18.7972 39.9907 19.0322C39.768 19.2611 39.6567 19.5394 39.6567 19.8672C39.6567 20.195 39.7711 20.4702 40 20.6929C40.235 20.9093 40.5102 21.0176 40.8256 21.0176Z" fill="white"/>
</svg>
