<svg viewBox="0 0 48 48" fill="none" xmlns="http://www.w3.org/2000/svg">
<mask id="path-1-inside-1" fill="white">
<path d="M10.1131 26.8761L11.7611 26.6681C11.9637 27.9268 12.6357 28.5561 13.7771 28.5561C14.3744 28.5561 14.8544 28.3694 15.2171 27.9961C15.5904 27.6121 15.7771 27.0788 15.7771 26.3961C15.7771 25.6921 15.5904 25.1534 15.2171 24.7801C14.8544 24.3961 14.3744 24.2041 13.7771 24.2041C13.4571 24.2041 13.1317 24.2788 12.8011 24.4281L12.1291 23.5321L14.4491 20.3001H10.6571V18.7641H16.8971V19.3401L14.1771 23.0521C14.3051 23.0201 14.4597 23.0041 14.6411 23.0041C15.4944 23.0041 16.1771 23.3241 16.6891 23.9641C17.2117 24.5934 17.4731 25.4041 17.4731 26.3961C17.4731 27.4628 17.1157 28.3481 16.4011 29.0521C15.6971 29.7454 14.8224 30.0921 13.7771 30.0921C12.8064 30.0921 11.9691 29.7881 11.2651 29.1801C10.5611 28.5721 10.1771 27.8041 10.1131 26.8761Z"/>
<path d="M22.2871 22.7961C23.3111 22.7961 24.1484 23.1374 24.7991 23.8201C25.4497 24.5028 25.7751 25.3774 25.7751 26.4441C25.7751 27.4788 25.4337 28.3481 24.7511 29.0521C24.0791 29.7454 23.2257 30.0921 22.1911 30.0921C21.1564 30.0921 20.2977 29.7454 19.6151 29.0521C18.9431 28.3481 18.6071 27.4788 18.6071 26.4441C18.6071 25.7294 18.7884 25.0521 19.1511 24.4121L22.4791 18.6361H24.3671L21.9191 22.8601C22.0044 22.8174 22.1271 22.7961 22.2871 22.7961ZM20.3031 26.4441C20.3031 27.0628 20.4791 27.5694 20.8311 27.9641C21.1831 28.3588 21.6364 28.5561 22.1911 28.5561C22.7457 28.5561 23.1991 28.3588 23.5511 27.9641C23.9031 27.5694 24.0791 27.0628 24.0791 26.4441C24.0791 25.7934 23.9031 25.2814 23.5511 24.9081C23.2097 24.5241 22.7564 24.3321 22.1911 24.3321C21.6257 24.3321 21.1671 24.5241 20.8151 24.9081C20.4737 25.2814 20.3031 25.7934 20.3031 26.4441Z"/>
<path d="M28.0856 20.1561C28.7789 19.1428 29.7762 18.6361 31.0776 18.6361C32.3789 18.6361 33.3762 19.1428 34.0696 20.1561C34.7629 21.1694 35.1096 22.5721 35.1096 24.3641C35.1096 26.1561 34.7629 27.5588 34.0696 28.5721C33.3762 29.5854 32.3789 30.0921 31.0776 30.0921C29.7762 30.0921 28.7789 29.5854 28.0856 28.5721C27.3922 27.5588 27.0456 26.1561 27.0456 24.3641C27.0456 22.5721 27.3922 21.1694 28.0856 20.1561ZM32.8216 21.2601C32.4376 20.5348 31.8562 20.1721 31.0776 20.1721C30.2989 20.1721 29.7122 20.5348 29.3176 21.2601C28.9336 21.9854 28.7416 23.0201 28.7416 24.3641C28.7416 25.7081 28.9336 26.7428 29.3176 27.4681C29.7122 28.1934 30.2989 28.5561 31.0776 28.5561C31.8562 28.5561 32.4376 28.1934 32.8216 27.4681C33.2162 26.7428 33.4136 25.7081 33.4136 24.3641C33.4136 23.0201 33.2162 21.9854 32.8216 21.2601Z"/>
<path d="M37.1709 21.7561C36.8296 21.4148 36.6589 20.9881 36.6589 20.4761C36.6589 19.9641 36.8296 19.5428 37.1709 19.2121C37.5123 18.8708 37.9496 18.7001 38.4829 18.7001C39.0163 18.7001 39.4536 18.8708 39.7949 19.2121C40.1363 19.5428 40.3069 19.9641 40.3069 20.4761C40.3069 20.9881 40.1363 21.4148 39.7949 21.7561C39.4536 22.0868 39.0163 22.2521 38.4829 22.2521C37.9496 22.2521 37.5123 22.0868 37.1709 21.7561ZM38.0029 19.9961C37.8856 20.1134 37.8269 20.2734 37.8269 20.4761C37.8269 20.6788 37.8856 20.8441 38.0029 20.9721C38.1203 21.0894 38.2803 21.1481 38.4829 21.1481C38.6856 21.1481 38.8456 21.0894 38.9629 20.9721C39.0803 20.8441 39.1389 20.6788 39.1389 20.4761C39.1389 20.2734 39.0803 20.1134 38.9629 19.9961C38.8456 19.8681 38.6856 19.8041 38.4829 19.8041C38.2803 19.8041 38.1203 19.8681 38.0029 19.9961Z"/>
<path d="M24.19 43.1603C24.1267 43.1609 24.0633 43.1612 23.9999 43.1612C13.4174 43.1612 4.83862 34.5824 4.83862 23.9999C4.83862 13.4174 13.4174 4.83862 23.9999 4.83862C34.5824 4.83862 43.1612 13.4174 43.1612 23.9999C43.1612 32.889 37.1083 40.3643 28.8993 42.5291L30.6468 43.5688C38.7968 40.8013 44.6612 33.0855 44.6612 23.9999C44.6612 12.589 35.4108 3.33862 23.9999 3.33862C12.589 3.33862 3.33862 12.589 3.33862 23.9999C3.33862 35.4108 12.589 44.6612 23.9999 44.6612C24.051 44.6612 24.102 44.661 24.153 44.6607L24.19 43.1603Z"/>
<path d="M19.9755 39.7771L26.7709 43.8198L19.7763 47.862L19.9755 39.7771Z"/>
</mask>
<path d="M10.1131 26.8761L11.7611 26.6681C11.9637 27.9268 12.6357 28.5561 13.7771 28.5561C14.3744 28.5561 14.8544 28.3694 15.2171 27.9961C15.5904 27.6121 15.7771 27.0788 15.7771 26.3961C15.7771 25.6921 15.5904 25.1534 15.2171 24.7801C14.8544 24.3961 14.3744 24.2041 13.7771 24.2041C13.4571 24.2041 13.1317 24.2788 12.8011 24.4281L12.1291 23.5321L14.4491 20.3001H10.6571V18.7641H16.8971V19.3401L14.1771 23.0521C14.3051 23.0201 14.4597 23.0041 14.6411 23.0041C15.4944 23.0041 16.1771 23.3241 16.6891 23.9641C17.2117 24.5934 17.4731 25.4041 17.4731 26.3961C17.4731 27.4628 17.1157 28.3481 16.4011 29.0521C15.6971 29.7454 14.8224 30.0921 13.7771 30.0921C12.8064 30.0921 11.9691 29.7881 11.2651 29.1801C10.5611 28.5721 10.1771 27.8041 10.1131 26.8761Z" fill="white"/>
<path d="M22.2871 22.7961C23.3111 22.7961 24.1484 23.1374 24.7991 23.8201C25.4497 24.5028 25.7751 25.3774 25.7751 26.4441C25.7751 27.4788 25.4337 28.3481 24.7511 29.0521C24.0791 29.7454 23.2257 30.0921 22.1911 30.0921C21.1564 30.0921 20.2977 29.7454 19.6151 29.0521C18.9431 28.3481 18.6071 27.4788 18.6071 26.4441C18.6071 25.7294 18.7884 25.0521 19.1511 24.4121L22.4791 18.6361H24.3671L21.9191 22.8601C22.0044 22.8174 22.1271 22.7961 22.2871 22.7961ZM20.3031 26.4441C20.3031 27.0628 20.4791 27.5694 20.8311 27.9641C21.1831 28.3588 21.6364 28.5561 22.1911 28.5561C22.7457 28.5561 23.1991 28.3588 23.5511 27.9641C23.9031 27.5694 24.0791 27.0628 24.0791 26.4441C24.0791 25.7934 23.9031 25.2814 23.5511 24.9081C23.2097 24.5241 22.7564 24.3321 22.1911 24.3321C21.6257 24.3321 21.1671 24.5241 20.8151 24.9081C20.4737 25.2814 20.3031 25.7934 20.3031 26.4441Z" fill="white"/>
<path d="M28.0856 20.1561C28.7789 19.1428 29.7762 18.6361 31.0776 18.6361C32.3789 18.6361 33.3762 19.1428 34.0696 20.1561C34.7629 21.1694 35.1096 22.5721 35.1096 24.3641C35.1096 26.1561 34.7629 27.5588 34.0696 28.5721C33.3762 29.5854 32.3789 30.0921 31.0776 30.0921C29.7762 30.0921 28.7789 29.5854 28.0856 28.5721C27.3922 27.5588 27.0456 26.1561 27.0456 24.3641C27.0456 22.5721 27.3922 21.1694 28.0856 20.1561ZM32.8216 21.2601C32.4376 20.5348 31.8562 20.1721 31.0776 20.1721C30.2989 20.1721 29.7122 20.5348 29.3176 21.2601C28.9336 21.9854 28.7416 23.0201 28.7416 24.3641C28.7416 25.7081 28.9336 26.7428 29.3176 27.4681C29.7122 28.1934 30.2989 28.5561 31.0776 28.5561C31.8562 28.5561 32.4376 28.1934 32.8216 27.4681C33.2162 26.7428 33.4136 25.7081 33.4136 24.3641C33.4136 23.0201 33.2162 21.9854 32.8216 21.2601Z" fill="white"/>
<path d="M37.1709 21.7561C36.8296 21.4148 36.6589 20.9881 36.6589 20.4761C36.6589 19.9641 36.8296 19.5428 37.1709 19.2121C37.5123 18.8708 37.9496 18.7001 38.4829 18.7001C39.0163 18.7001 39.4536 18.8708 39.7949 19.2121C40.1363 19.5428 40.3069 19.9641 40.3069 20.4761C40.3069 20.9881 40.1363 21.4148 39.7949 21.7561C39.4536 22.0868 39.0163 22.2521 38.4829 22.2521C37.9496 22.2521 37.5123 22.0868 37.1709 21.7561ZM38.0029 19.9961C37.8856 20.1134 37.8269 20.2734 37.8269 20.4761C37.8269 20.6788 37.8856 20.8441 38.0029 20.9721C38.1203 21.0894 38.2803 21.1481 38.4829 21.1481C38.6856 21.1481 38.8456 21.0894 38.9629 20.9721C39.0803 20.8441 39.1389 20.6788 39.1389 20.4761C39.1389 20.2734 39.0803 20.1134 38.9629 19.9961C38.8456 19.8681 38.6856 19.8041 38.4829 19.8041C38.2803 19.8041 38.1203 19.8681 38.0029 19.9961Z" fill="white"/>
<path d="M24.19 43.1603C24.1267 43.1609 24.0633 43.1612 23.9999 43.1612C13.4174 43.1612 4.83862 34.5824 4.83862 23.9999C4.83862 13.4174 13.4174 4.83862 23.9999 4.83862C34.5824 4.83862 43.1612 13.4174 43.1612 23.9999C43.1612 32.889 37.1083 40.3643 28.8993 42.5291L30.6468 43.5688C38.7968 40.8013 44.6612 33.0855 44.6612 23.9999C44.6612 12.589 35.4108 3.33862 23.9999 3.33862C12.589 3.33862 3.33862 12.589 3.33862 23.9999C3.33862 35.4108 12.589 44.6612 23.9999 44.6612C24.051 44.6612 24.102 44.661 24.153 44.6607L24.19 43.1603Z" fill="white"/>
<path d="M19.9755 39.7771L26.7709 43.8198L19.7763 47.862L19.9755 39.7771Z" fill="white"/>
<path d="M10.1131 26.8761L9.92524 25.3879L8.51911 25.5654L8.61662 26.9793L10.1131 26.8761ZM11.7611 26.6681L13.242 26.4297L13.0115 24.9984L11.5732 25.1799L11.7611 26.6681ZM15.2171 27.9961L14.1416 26.9505L14.1412 26.9509L15.2171 27.9961ZM15.2171 24.7801L14.1266 25.81L14.1413 25.8256L14.1564 25.8408L15.2171 24.7801ZM12.8011 24.4281L11.6011 25.3281L12.3226 26.2901L13.4185 25.7952L12.8011 24.4281ZM12.1291 23.5321L10.9105 22.6574L10.2687 23.5516L10.9291 24.4321L12.1291 23.5321ZM14.4491 20.3001L15.6676 21.1748L17.3722 18.8001H14.4491V20.3001ZM10.6571 20.3001H9.15707V21.8001H10.6571V20.3001ZM10.6571 18.7641V17.2641H9.15707V18.7641H10.6571ZM16.8971 18.7641H18.3971V17.2641H16.8971V18.7641ZM16.8971 19.3401L18.107 20.2267L18.3971 19.8309V19.3401H16.8971ZM14.1771 23.0521L12.9671 22.1655L10.5133 25.5142L14.5409 24.5073L14.1771 23.0521ZM16.6891 23.9641L15.5178 24.9012L15.5264 24.9119L15.5351 24.9225L16.6891 23.9641ZM16.4011 29.0521L17.4536 30.1208L17.4537 30.1207L16.4011 29.0521ZM11.2651 29.1801L12.2455 28.0449L12.2455 28.0449L11.2651 29.1801ZM24.7991 23.8201L23.7133 24.855L23.7133 24.855L24.7991 23.8201ZM24.7511 29.0521L23.6742 28.0079L23.674 28.0082L24.7511 29.0521ZM19.6151 29.0521L18.53 30.0878L18.5381 30.0962L18.5462 30.1045L19.6151 29.0521ZM19.1511 24.4121L17.8513 23.6632L17.846 23.6726L19.1511 24.4121ZM22.4791 18.6361V17.1361H21.6122L21.1794 17.8873L22.4791 18.6361ZM24.3671 18.6361L25.6649 19.3882L26.9701 17.1361H24.3671V18.6361ZM21.9191 22.8601L20.6213 22.108L18.1096 26.4419L22.5899 24.2018L21.9191 22.8601ZM20.8311 27.9641L21.9505 26.9657L21.9505 26.9657L20.8311 27.9641ZM23.5511 27.9641L24.6705 28.9625L24.6705 28.9625L23.5511 27.9641ZM23.5511 24.9081L22.43 25.9047L22.4446 25.9211L22.4597 25.9371L23.5511 24.9081ZM20.8151 24.9081L19.7093 23.8945L19.708 23.896L20.8151 24.9081ZM28.0856 20.1561L26.8476 19.3091L26.8476 19.3091L28.0856 20.1561ZM34.0696 20.1561L35.3075 19.3091L35.3075 19.3091L34.0696 20.1561ZM28.0856 28.5721L29.3235 27.7251L29.3235 27.7251L28.0856 28.5721ZM32.8216 21.2601L31.4959 21.9619L31.4999 21.9695L31.504 21.977L32.8216 21.2601ZM29.3176 21.2601L28 20.5432L27.9959 20.5507L27.9919 20.5583L29.3176 21.2601ZM29.3176 27.4681L27.9919 28.1699L27.9959 28.1775L28 28.185L29.3176 27.4681ZM32.8216 27.4681L31.504 26.7512L31.4999 26.7587L31.4959 26.7663L32.8216 27.4681ZM37.1709 21.7561L36.1103 22.8168L36.1187 22.8252L36.1273 22.8335L37.1709 21.7561ZM37.1709 19.2121L38.2146 20.2895L38.2232 20.2812L38.2316 20.2728L37.1709 19.2121ZM39.7949 19.2121L38.7343 20.2728L38.7427 20.2812L38.7513 20.2895L39.7949 19.2121ZM39.7949 21.7561L40.8386 22.8335L40.8472 22.8252L40.8556 22.8168L39.7949 21.7561ZM38.0029 19.9961L39.0636 21.0568L39.0867 21.0337L39.1087 21.0097L38.0029 19.9961ZM38.0029 20.9721L36.8972 21.9857L36.9192 22.0097L36.9423 22.0328L38.0029 20.9721ZM38.9629 20.9721L40.0236 22.0328L40.0467 22.0097L40.0687 21.9857L38.9629 20.9721ZM38.9629 19.9961L37.8572 21.0097L37.8792 21.0337L37.9023 21.0568L38.9629 19.9961ZM24.19 43.1603L25.6895 43.1972L25.7277 41.6453L24.1754 41.6604L24.19 43.1603ZM28.8993 42.5291L28.5168 41.0787L25.0598 41.9904L28.1324 43.8183L28.8993 42.5291ZM30.6468 43.5688L29.8799 44.8579L30.4743 45.2115L31.1291 44.9891L30.6468 43.5688ZM24.153 44.6607L24.1639 46.1606L25.6168 46.1501L25.6525 44.6976L24.153 44.6607ZM19.9755 39.7771L20.7424 38.488L18.5391 37.1772L18.4759 39.7402L19.9755 39.7771ZM19.7763 47.862L18.2768 47.8251L18.2109 50.4992L20.5269 49.1608L19.7763 47.862ZM26.7709 43.8198L27.5214 45.1185L29.7362 43.8385L27.5378 42.5306L26.7709 43.8198ZM10.3009 28.3643L11.9489 28.1563L11.5732 25.1799L9.92524 25.3879L10.3009 28.3643ZM10.2801 26.9066C10.4143 27.7398 10.7351 28.5641 11.3917 29.179C12.0685 29.8127 12.9213 30.0561 13.7771 30.0561V27.0561C13.6283 27.0561 13.5427 27.0355 13.5009 27.021C13.464 27.0082 13.4506 26.9969 13.4424 26.9893C13.427 26.9748 13.3105 26.8551 13.242 26.4297L10.2801 26.9066ZM13.7771 30.0561C14.7145 30.0561 15.6054 29.7491 16.293 29.0413L14.1412 26.9509C14.1034 26.9898 14.0343 27.0561 13.7771 27.0561V30.0561ZM16.2926 29.0417C17.0073 28.3065 17.2771 27.3572 17.2771 26.3961H14.2771C14.2771 26.8003 14.1735 26.9177 14.1416 26.9505L16.2926 29.0417ZM17.2771 26.3961C17.2771 25.4313 17.0163 24.4581 16.2777 23.7195L14.1564 25.8408C14.1645 25.8488 14.2771 25.9529 14.2771 26.3961H17.2771ZM16.3076 23.7502C15.6232 23.0255 14.7277 22.7041 13.7771 22.7041V25.7041C14.0211 25.7041 14.0856 25.7667 14.1266 25.81L16.3076 23.7502ZM13.7771 22.7041C13.2174 22.7041 12.6824 22.8358 12.1837 23.0611L13.4185 25.7952C13.5811 25.7217 13.6967 25.7041 13.7771 25.7041V22.7041ZM14.0011 23.5281L13.3291 22.6321L10.9291 24.4321L11.6011 25.3281L14.0011 23.5281ZM13.3476 24.4068L15.6676 21.1748L13.2305 19.4254L10.9105 22.6574L13.3476 24.4068ZM14.4491 18.8001H10.6571V21.8001H14.4491V18.8001ZM12.1571 20.3001V18.7641H9.15707V20.3001H12.1571ZM10.6571 20.2641H16.8971V17.2641H10.6571V20.2641ZM15.3971 18.7641V19.3401H18.3971V18.7641H15.3971ZM15.6871 18.4535L12.9671 22.1655L15.387 23.9387L18.107 20.2267L15.6871 18.4535ZM14.5409 24.5073C14.5252 24.5113 14.5246 24.5101 14.5434 24.5081C14.5619 24.5062 14.5937 24.5041 14.6411 24.5041V21.5041C14.3793 21.5041 14.0952 21.5264 13.8133 21.5969L14.5409 24.5073ZM14.6411 24.5041C15.0604 24.5041 15.3037 24.6336 15.5178 24.9012L17.8604 23.0271C17.0504 22.0146 15.9284 21.5041 14.6411 21.5041V24.5041ZM15.5351 24.9225C15.7893 25.2285 15.9731 25.6769 15.9731 26.3961H18.9731C18.9731 25.1313 18.6342 23.9584 17.843 23.0058L15.5351 24.9225ZM15.9731 26.3961C15.9731 27.0893 15.7574 27.5807 15.3484 27.9835L17.4537 30.1207C18.4741 29.1156 18.9731 27.8362 18.9731 26.3961H15.9731ZM15.3485 27.9834C14.9427 28.3831 14.4538 28.5921 13.7771 28.5921V31.5921C15.191 31.5921 16.4515 31.1078 17.4536 30.1208L15.3485 27.9834ZM13.7771 28.5921C13.1493 28.5921 12.6644 28.4067 12.2455 28.0449L10.2846 30.3153C11.2737 31.1696 12.4635 31.5921 13.7771 31.5921V28.5921ZM12.2455 28.0449C11.8442 27.6983 11.646 27.3019 11.6095 26.7729L8.61662 26.9793C8.70815 28.3064 9.27791 29.4459 10.2846 30.3153L12.2455 28.0449ZM22.2871 24.2961C22.9399 24.2961 23.3716 24.4965 23.7133 24.855L25.8849 22.7852C24.9252 21.7783 23.6823 21.2961 22.2871 21.2961V24.2961ZM23.7133 24.855C24.0626 25.2215 24.2751 25.7082 24.2751 26.4441H27.2751C27.2751 25.0467 26.8369 23.784 25.8849 22.7852L23.7133 24.855ZM24.2751 26.4441C24.2751 27.1127 24.0694 27.6004 23.6742 28.0079L25.8279 30.0963C26.7981 29.0959 27.2751 27.8449 27.2751 26.4441H24.2751ZM23.674 28.0082C23.3062 28.3876 22.8521 28.5921 22.1911 28.5921V31.5921C23.5994 31.5921 24.8519 31.1033 25.8282 30.0961L23.674 28.0082ZM22.1911 28.5921C21.5299 28.5921 21.0654 28.3871 20.6839 27.9997L18.5462 30.1045C19.5301 31.1038 20.7829 31.5921 22.1911 31.5921V28.5921ZM20.7001 28.0164C20.3124 27.6102 20.1071 27.1198 20.1071 26.4441H17.1071C17.1071 27.8377 17.5737 29.086 18.53 30.0878L20.7001 28.0164ZM20.1071 26.4441C20.1071 25.9965 20.2173 25.573 20.4561 25.1516L17.846 23.6726C17.3595 24.5312 17.1071 25.4624 17.1071 26.4441H20.1071ZM20.4508 25.161L23.7788 19.385L21.1794 17.8873L17.8514 23.6633L20.4508 25.161ZM22.4791 20.1361H24.3671V17.1361H22.4791V20.1361ZM23.0693 17.884L20.6213 22.108L23.2169 23.6122L25.6649 19.3882L23.0693 17.884ZM22.5899 24.2018C22.4692 24.2621 22.3733 24.2828 22.3321 24.2899C22.2886 24.2975 22.2703 24.2961 22.2871 24.2961V21.2961C22.0322 21.2961 21.6376 21.3238 21.2483 21.5185L22.5899 24.2018ZM18.8031 26.4441C18.8031 27.3647 19.0737 28.2473 19.7116 28.9625L21.9505 26.9657C21.8844 26.8916 21.8031 26.7609 21.8031 26.4441H18.8031ZM19.7116 28.9625C20.3636 29.6936 21.2325 30.0561 22.1911 30.0561V27.0561C22.0946 27.0561 22.0498 27.0397 22.0337 27.0328C22.0195 27.0266 21.9924 27.0127 21.9505 26.9657L19.7116 28.9625ZM22.1911 30.0561C23.1496 30.0561 24.0185 29.6936 24.6705 28.9625L22.4316 26.9657C22.3897 27.0127 22.3627 27.0266 22.3484 27.0328C22.3324 27.0397 22.2875 27.0561 22.1911 27.0561V30.0561ZM24.6705 28.9625C25.3084 28.2473 25.5791 27.3647 25.5791 26.4441H22.5791C22.5791 26.7609 22.4977 26.8916 22.4316 26.9657L24.6705 28.9625ZM25.5791 26.4441C25.5791 25.5177 25.322 24.5998 24.6425 23.8791L22.4597 25.9371C22.4841 25.963 22.5791 26.0692 22.5791 26.4441H25.5791ZM24.6722 23.9116C24.0157 23.173 23.1367 22.8321 22.1911 22.8321V25.8321C22.3023 25.8321 22.3539 25.8505 22.3701 25.8573C22.3827 25.8627 22.4006 25.8716 22.43 25.9047L24.6722 23.9116ZM22.1911 22.8321C21.2454 22.8321 20.3715 23.1722 19.7093 23.8945L21.9208 25.9217C21.9627 25.876 22.0061 25.8321 22.1911 25.8321V22.8321ZM19.708 23.896C19.048 24.6178 18.8031 25.5295 18.8031 26.4441H21.8031C21.8031 26.0574 21.8995 25.945 21.9221 25.9203L19.708 23.896ZM29.3235 21.0031C29.718 20.4266 30.2362 20.1361 31.0776 20.1361V17.1361C29.3163 17.1361 27.8398 17.8589 26.8476 19.3091L29.3235 21.0031ZM31.0776 20.1361C31.9189 20.1361 32.4372 20.4266 32.8316 21.0031L35.3075 19.3091C34.3153 17.8589 32.8389 17.1361 31.0776 17.1361V20.1361ZM32.8316 21.0031C33.2924 21.6766 33.6096 22.7423 33.6096 24.3641H36.6096C36.6096 22.4019 36.2334 20.6623 35.3075 19.3091L32.8316 21.0031ZM33.6096 24.3641C33.6096 25.9859 33.2924 27.0516 32.8316 27.7251L35.3075 29.4191C36.2334 28.0659 36.6096 26.3263 36.6096 24.3641H33.6096ZM32.8316 27.7251C32.4372 28.3016 31.9189 28.5921 31.0776 28.5921V31.5921C32.8389 31.5921 34.3153 30.8693 35.3075 29.4191L32.8316 27.7251ZM31.0776 28.5921C30.2362 28.5921 29.718 28.3016 29.3235 27.7251L26.8476 29.4191C27.8398 30.8693 29.3163 31.5921 31.0776 31.5921V28.5921ZM29.3235 27.7251C28.8627 27.0516 28.5456 25.9859 28.5456 24.3641H25.5456C25.5456 26.3263 25.9217 28.0659 26.8476 29.4191L29.3235 27.7251ZM28.5456 24.3641C28.5456 22.7423 28.8627 21.6766 29.3235 21.0031L26.8476 19.3091C25.9217 20.6623 25.5456 22.4019 25.5456 24.3641H28.5456ZM34.1473 20.5583C33.856 20.0081 33.4473 19.5182 32.8915 19.1715C32.3314 18.8221 31.7084 18.6721 31.0776 18.6721V21.6721C31.2254 21.6721 31.2824 21.7035 31.3036 21.7168C31.3291 21.7327 31.4031 21.7868 31.4959 21.9619L34.1473 20.5583ZM31.0776 18.6721C30.4465 18.6721 29.8247 18.8221 29.2648 19.1682C28.7096 19.5115 28.2974 19.9966 28 20.5432L30.6352 21.977C30.7324 21.7983 30.8109 21.7394 30.8423 21.72C30.8691 21.7034 30.93 21.6721 31.0776 21.6721V18.6721ZM27.9919 20.5583C27.4426 21.5958 27.2416 22.9139 27.2416 24.3641H30.2416C30.2416 23.1263 30.4245 22.3751 30.6433 21.9619L27.9919 20.5583ZM27.2416 24.3641C27.2416 25.8143 27.4426 27.1324 27.9919 28.1699L30.6433 26.7663C30.4245 26.3531 30.2416 25.6019 30.2416 24.3641H27.2416ZM28 28.185C28.2974 28.7316 28.7096 29.2168 29.2648 29.56C29.8247 29.9061 30.4465 30.0561 31.0776 30.0561V27.0561C30.93 27.0561 30.8691 27.0248 30.8423 27.0082C30.8109 26.9888 30.7324 26.9299 30.6352 26.7512L28 28.185ZM31.0776 30.0561C31.7084 30.0561 32.3314 29.9062 32.8915 29.5568C33.4473 29.21 33.856 28.7201 34.1473 28.1699L31.4959 26.7663C31.4031 26.9415 31.3291 26.9955 31.3036 27.0115C31.2824 27.0247 31.2254 27.0561 31.0776 27.0561V30.0561ZM34.1392 28.185C34.7062 27.1429 34.9136 25.8184 34.9136 24.3641H31.9136C31.9136 25.5978 31.7263 26.3427 31.504 26.7512L34.1392 28.185ZM34.9136 24.3641C34.9136 22.9098 34.7062 21.5854 34.1392 20.5432L31.504 21.977C31.7263 22.3855 31.9136 23.1304 31.9136 24.3641H34.9136ZM38.2316 20.6955C38.19 20.6538 38.1589 20.6171 38.1589 20.4761H35.1589C35.1589 21.3592 35.4693 22.1757 36.1103 22.8168L38.2316 20.6955ZM38.1589 20.4761C38.1589 20.3889 38.1729 20.3498 38.1772 20.3393C38.1805 20.3311 38.1871 20.3162 38.2146 20.2895L36.1273 18.1348C35.4701 18.7714 35.1589 19.5929 35.1589 20.4761H38.1589ZM38.2316 20.2728C38.2608 20.2435 38.3017 20.2001 38.4829 20.2001V17.2001C37.5976 17.2001 36.7637 17.498 36.1103 18.1515L38.2316 20.2728ZM38.4829 20.2001C38.6642 20.2001 38.705 20.2435 38.7343 20.2728L40.8556 18.1515C40.2022 17.498 39.3683 17.2001 38.4829 17.2001V20.2001ZM38.7513 20.2895C38.7788 20.3162 38.7853 20.3311 38.7887 20.3393C38.7929 20.3498 38.8069 20.3889 38.8069 20.4761H41.8069C41.8069 19.5929 41.4958 18.7714 40.8386 18.1348L38.7513 20.2895ZM38.8069 20.4761C38.8069 20.6171 38.7759 20.6538 38.7343 20.6955L40.8556 22.8168C41.4966 22.1757 41.8069 21.3592 41.8069 20.4761H38.8069ZM38.7513 20.6788C38.7248 20.7043 38.6785 20.7521 38.4829 20.7521V23.7521C39.3541 23.7521 40.1824 23.4692 40.8386 22.8335L38.7513 20.6788ZM38.4829 20.7521C38.2874 20.7521 38.2411 20.7043 38.2146 20.6788L36.1273 22.8335C36.7835 23.4692 37.6118 23.7521 38.4829 23.7521V20.7521ZM36.9423 18.9355C36.4837 19.3941 36.3269 19.9694 36.3269 20.4761H39.3269C39.3269 20.5184 39.3208 20.6071 39.2793 20.7205C39.2357 20.8393 39.1632 20.9572 39.0636 21.0568L36.9423 18.9355ZM36.3269 20.4761C36.3269 20.9872 36.4845 21.5354 36.8972 21.9857L39.1087 19.9585C39.1874 20.0444 39.2474 20.1456 39.2846 20.2505C39.3205 20.3518 39.3269 20.4326 39.3269 20.4761H36.3269ZM36.9423 22.0328C37.4009 22.4914 37.9762 22.6481 38.4829 22.6481V19.6481C38.5253 19.6481 38.6139 19.6542 38.7273 19.6958C38.8462 19.7394 38.964 19.8119 39.0636 19.9115L36.9423 22.0328ZM38.4829 22.6481C38.9897 22.6481 39.565 22.4914 40.0236 22.0328L37.9023 19.9115C38.0019 19.8119 38.1197 19.7394 38.2386 19.6958C38.352 19.6542 38.4406 19.6481 38.4829 19.6481V22.6481ZM40.0687 21.9857C40.4814 21.5354 40.6389 20.9872 40.6389 20.4761H37.6389C37.6389 20.4326 37.6454 20.3518 37.6813 20.2505C37.7185 20.1456 37.7785 20.0444 37.8572 19.9585L40.0687 21.9857ZM40.6389 20.4761C40.6389 19.9694 40.4822 19.3941 40.0236 18.9355L37.9023 21.0568C37.8027 20.9572 37.7302 20.8393 37.6866 20.7205C37.645 20.6071 37.6389 20.5184 37.6389 20.4761H40.6389ZM40.0687 18.9825C39.6191 18.4921 39.0291 18.3041 38.4829 18.3041V21.3041C38.4265 21.3041 38.3233 21.295 38.1979 21.2448C38.0672 21.1926 37.9495 21.1103 37.8572 21.0097L40.0687 18.9825ZM38.4829 18.3041C37.9368 18.3041 37.3468 18.4921 36.8972 18.9825L39.1087 21.0097C39.0164 21.1103 38.8987 21.1926 38.768 21.2448C38.6426 21.295 38.5394 21.3041 38.4829 21.3041V18.3041ZM23.9999 44.6612C24.0682 44.6612 24.1364 44.6609 24.2045 44.6602L24.1754 41.6604C24.117 41.6609 24.0585 41.6612 23.9999 41.6612V44.6612ZM3.33862 23.9999C3.33862 35.4108 12.589 44.6612 23.9999 44.6612V41.6612C14.2459 41.6612 6.33862 33.754 6.33862 23.9999H3.33862ZM23.9999 3.33862C12.589 3.33862 3.33862 12.589 3.33862 23.9999H6.33862C6.33862 14.2459 14.2459 6.33862 23.9999 6.33862V3.33862ZM44.6612 23.9999C44.6612 12.589 35.4108 3.33862 23.9999 3.33862V6.33862C33.754 6.33862 41.6612 14.2459 41.6612 23.9999H44.6612ZM29.2818 43.9796C38.133 41.6454 44.6612 33.587 44.6612 23.9999H41.6612C41.6612 32.1911 36.0836 39.0833 28.5168 41.0787L29.2818 43.9796ZM28.1324 43.8183L29.8799 44.8579L31.4137 42.2796L29.6662 41.24L28.1324 43.8183ZM31.1291 44.9891C39.869 42.0214 46.1612 33.7474 46.1612 23.9999H43.1612C43.1612 32.4235 37.7246 39.5813 30.1645 42.1484L31.1291 44.9891ZM46.1612 23.9999C46.1612 11.7606 36.2393 1.83862 23.9999 1.83862V4.83862C34.5824 4.83862 43.1612 13.4174 43.1612 23.9999H46.1612ZM23.9999 1.83862C11.7606 1.83862 1.83862 11.7606 1.83862 23.9999H4.83862C4.83862 13.4174 13.4174 4.83862 23.9999 4.83862V1.83862ZM1.83862 23.9999C1.83862 36.2393 11.7606 46.1612 23.9999 46.1612V43.1612C13.4174 43.1612 4.83862 34.5824 4.83862 23.9999H1.83862ZM23.9999 46.1612C24.0546 46.1612 24.1093 46.161 24.1639 46.1606L24.1421 43.1607C24.0947 43.161 24.0473 43.1612 23.9999 43.1612V46.1612ZM19.2086 41.0662L26.0039 45.1089L27.5378 42.5306L20.7424 38.488L19.2086 41.0662ZM26.0203 42.521L19.0258 46.5633L20.5269 49.1608L27.5214 45.1185L26.0203 42.521ZM25.6525 44.6976L25.6895 43.1972L22.6904 43.1234L22.6535 44.6237L25.6525 44.6976ZM18.4759 39.7402L18.2768 47.8251L21.2759 47.899L21.475 39.814L18.4759 39.7402Z" fill="white" mask="url(#path-1-inside-1)"/>
</svg>
